<?xml version="1.0" encoding="utf-8" standalone="no"?>
<!DOCTYPE svg PUBLIC "-//W3C//DTD SVG 1.1//EN"
  "http://www.w3.org/Graphics/SVG/1.1/DTD/svg11.dtd">
<!-- Created with matplotlib (https://matplotlib.org/) -->
<svg height="444.96pt" version="1.1" viewBox="0 0 745.2 444.96" width="745.2pt" xmlns="http://www.w3.org/2000/svg" xmlns:xlink="http://www.w3.org/1999/xlink">
 <defs>
  <style type="text/css">
*{stroke-linecap:butt;stroke-linejoin:round;white-space:pre;}
  </style>
 </defs>
 <g id="figure_1">
  <g id="patch_1">
   <path d="M 0 444.96 
L 745.2 444.96 
L 745.2 0 
L 0 0 
z
" style="fill:#ffffff;"/>
  </g>
  <g id="axes_1">
   <g id="patch_2">
    <path d="M 93.15 209.1312 
L 355.663636 209.1312 
L 355.663636 53.3952 
L 93.15 53.3952 
z
" style="fill:#ffffff;"/>
   </g>
   <g id="matplotlib.axis_1">
    <g id="xtick_1">
     <g id="line2d_1">
      <path clip-path="url(#p09d174822f)" d="M 105.082438 209.1312 
L 105.082438 53.3952 
" style="fill:none;stroke:#b0b0b0;stroke-linecap:square;stroke-width:0.8;"/>
     </g>
     <g id="line2d_2">
      <defs>
       <path d="M 0 0 
L 0 3.5 
" id="m23ff4b1c79" style="stroke:#000000;stroke-width:0.8;"/>
      </defs>
      <g>
       <use style="stroke:#000000;stroke-width:0.8;" x="105.082438" xlink:href="#m23ff4b1c79" y="209.1312"/>
      </g>
     </g>
     <g id="text_1">
      <!-- 0 -->
      <defs>
       <path d="M 31.78125 66.40625 
Q 24.171875 66.40625 20.328125 58.90625 
Q 16.5 51.421875 16.5 36.375 
Q 16.5 21.390625 20.328125 13.890625 
Q 24.171875 6.390625 31.78125 6.390625 
Q 39.453125 6.390625 43.28125 13.890625 
Q 47.125 21.390625 47.125 36.375 
Q 47.125 51.421875 43.28125 58.90625 
Q 39.453125 66.40625 31.78125 66.40625 
z
M 31.78125 74.21875 
Q 44.046875 74.21875 50.515625 64.515625 
Q 56.984375 54.828125 56.984375 36.375 
Q 56.984375 17.96875 50.515625 8.265625 
Q 44.046875 -1.421875 31.78125 -1.421875 
Q 19.53125 -1.421875 13.0625 8.265625 
Q 6.59375 17.96875 6.59375 36.375 
Q 6.59375 54.828125 13.0625 64.515625 
Q 19.53125 74.21875 31.78125 74.21875 
z
" id="DejaVuSans-48"/>
      </defs>
      <g transform="translate(101.901188 223.729637)scale(0.1 -0.1)">
       <use xlink:href="#DejaVuSans-48"/>
      </g>
     </g>
    </g>
    <g id="xtick_2">
     <g id="line2d_3">
      <path clip-path="url(#p09d174822f)" d="M 166.274428 209.1312 
L 166.274428 53.3952 
" style="fill:none;stroke:#b0b0b0;stroke-linecap:square;stroke-width:0.8;"/>
     </g>
     <g id="line2d_4">
      <g>
       <use style="stroke:#000000;stroke-width:0.8;" x="166.274428" xlink:href="#m23ff4b1c79" y="209.1312"/>
      </g>
     </g>
     <g id="text_2">
      <!-- 10 -->
      <defs>
       <path d="M 12.40625 8.296875 
L 28.515625 8.296875 
L 28.515625 63.921875 
L 10.984375 60.40625 
L 10.984375 69.390625 
L 28.421875 72.90625 
L 38.28125 72.90625 
L 38.28125 8.296875 
L 54.390625 8.296875 
L 54.390625 0 
L 12.40625 0 
z
" id="DejaVuSans-49"/>
      </defs>
      <g transform="translate(159.911928 223.729637)scale(0.1 -0.1)">
       <use xlink:href="#DejaVuSans-49"/>
       <use x="63.623047" xlink:href="#DejaVuSans-48"/>
      </g>
     </g>
    </g>
    <g id="xtick_3">
     <g id="line2d_5">
      <path clip-path="url(#p09d174822f)" d="M 227.466418 209.1312 
L 227.466418 53.3952 
" style="fill:none;stroke:#b0b0b0;stroke-linecap:square;stroke-width:0.8;"/>
     </g>
     <g id="line2d_6">
      <g>
       <use style="stroke:#000000;stroke-width:0.8;" x="227.466418" xlink:href="#m23ff4b1c79" y="209.1312"/>
      </g>
     </g>
     <g id="text_3">
      <!-- 20 -->
      <defs>
       <path d="M 19.1875 8.296875 
L 53.609375 8.296875 
L 53.609375 0 
L 7.328125 0 
L 7.328125 8.296875 
Q 12.9375 14.109375 22.625 23.890625 
Q 32.328125 33.6875 34.8125 36.53125 
Q 39.546875 41.84375 41.421875 45.53125 
Q 43.3125 49.21875 43.3125 52.78125 
Q 43.3125 58.59375 39.234375 62.25 
Q 35.15625 65.921875 28.609375 65.921875 
Q 23.96875 65.921875 18.8125 64.3125 
Q 13.671875 62.703125 7.8125 59.421875 
L 7.8125 69.390625 
Q 13.765625 71.78125 18.9375 73 
Q 24.125 74.21875 28.421875 74.21875 
Q 39.75 74.21875 46.484375 68.546875 
Q 53.21875 62.890625 53.21875 53.421875 
Q 53.21875 48.921875 51.53125 44.890625 
Q 49.859375 40.875 45.40625 35.40625 
Q 44.1875 33.984375 37.640625 27.21875 
Q 31.109375 20.453125 19.1875 8.296875 
z
" id="DejaVuSans-50"/>
      </defs>
      <g transform="translate(221.103918 223.729637)scale(0.1 -0.1)">
       <use xlink:href="#DejaVuSans-50"/>
       <use x="63.623047" xlink:href="#DejaVuSans-48"/>
      </g>
     </g>
    </g>
    <g id="xtick_4">
     <g id="line2d_7">
      <path clip-path="url(#p09d174822f)" d="M 288.658408 209.1312 
L 288.658408 53.3952 
" style="fill:none;stroke:#b0b0b0;stroke-linecap:square;stroke-width:0.8;"/>
     </g>
     <g id="line2d_8">
      <g>
       <use style="stroke:#000000;stroke-width:0.8;" x="288.658408" xlink:href="#m23ff4b1c79" y="209.1312"/>
      </g>
     </g>
     <g id="text_4">
      <!-- 30 -->
      <defs>
       <path d="M 40.578125 39.3125 
Q 47.65625 37.796875 51.625 33 
Q 55.609375 28.21875 55.609375 21.1875 
Q 55.609375 10.40625 48.1875 4.484375 
Q 40.765625 -1.421875 27.09375 -1.421875 
Q 22.515625 -1.421875 17.65625 -0.515625 
Q 12.796875 0.390625 7.625 2.203125 
L 7.625 11.71875 
Q 11.71875 9.328125 16.59375 8.109375 
Q 21.484375 6.890625 26.8125 6.890625 
Q 36.078125 6.890625 40.9375 10.546875 
Q 45.796875 14.203125 45.796875 21.1875 
Q 45.796875 27.640625 41.28125 31.265625 
Q 36.765625 34.90625 28.71875 34.90625 
L 20.21875 34.90625 
L 20.21875 43.015625 
L 29.109375 43.015625 
Q 36.375 43.015625 40.234375 45.921875 
Q 44.09375 48.828125 44.09375 54.296875 
Q 44.09375 59.90625 40.109375 62.90625 
Q 36.140625 65.921875 28.71875 65.921875 
Q 24.65625 65.921875 20.015625 65.03125 
Q 15.375 64.15625 9.8125 62.3125 
L 9.8125 71.09375 
Q 15.4375 72.65625 20.34375 73.4375 
Q 25.25 74.21875 29.59375 74.21875 
Q 40.828125 74.21875 47.359375 69.109375 
Q 53.90625 64.015625 53.90625 55.328125 
Q 53.90625 49.265625 50.4375 45.09375 
Q 46.96875 40.921875 40.578125 39.3125 
z
" id="DejaVuSans-51"/>
      </defs>
      <g transform="translate(282.295908 223.729637)scale(0.1 -0.1)">
       <use xlink:href="#DejaVuSans-51"/>
       <use x="63.623047" xlink:href="#DejaVuSans-48"/>
      </g>
     </g>
    </g>
    <g id="xtick_5">
     <g id="line2d_9">
      <path clip-path="url(#p09d174822f)" d="M 349.850397 209.1312 
L 349.850397 53.3952 
" style="fill:none;stroke:#b0b0b0;stroke-linecap:square;stroke-width:0.8;"/>
     </g>
     <g id="line2d_10">
      <g>
       <use style="stroke:#000000;stroke-width:0.8;" x="349.850397" xlink:href="#m23ff4b1c79" y="209.1312"/>
      </g>
     </g>
     <g id="text_5">
      <!-- 40 -->
      <defs>
       <path d="M 37.796875 64.3125 
L 12.890625 25.390625 
L 37.796875 25.390625 
z
M 35.203125 72.90625 
L 47.609375 72.90625 
L 47.609375 25.390625 
L 58.015625 25.390625 
L 58.015625 17.1875 
L 47.609375 17.1875 
L 47.609375 0 
L 37.796875 0 
L 37.796875 17.1875 
L 4.890625 17.1875 
L 4.890625 26.703125 
z
" id="DejaVuSans-52"/>
      </defs>
      <g transform="translate(343.487897 223.729637)scale(0.1 -0.1)">
       <use xlink:href="#DejaVuSans-52"/>
       <use x="63.623047" xlink:href="#DejaVuSans-48"/>
      </g>
     </g>
    </g>
   </g>
   <g id="matplotlib.axis_2">
    <g id="ytick_1">
     <g id="line2d_11">
      <path clip-path="url(#p09d174822f)" d="M 93.15 202.052291 
L 355.663636 202.052291 
" style="fill:none;stroke:#b0b0b0;stroke-linecap:square;stroke-width:0.8;"/>
     </g>
     <g id="line2d_12">
      <defs>
       <path d="M 0 0 
L -3.5 0 
" id="m56976888fc" style="stroke:#000000;stroke-width:0.8;"/>
      </defs>
      <g>
       <use style="stroke:#000000;stroke-width:0.8;" x="93.15" xlink:href="#m56976888fc" y="202.052291"/>
      </g>
     </g>
     <g id="text_6">
      <!-- 0 -->
      <g transform="translate(79.7875 205.85151)scale(0.1 -0.1)">
       <use xlink:href="#DejaVuSans-48"/>
      </g>
     </g>
    </g>
    <g id="ytick_2">
     <g id="line2d_13">
      <path clip-path="url(#p09d174822f)" d="M 93.15 164.296993 
L 355.663636 164.296993 
" style="fill:none;stroke:#b0b0b0;stroke-linecap:square;stroke-width:0.8;"/>
     </g>
     <g id="line2d_14">
      <g>
       <use style="stroke:#000000;stroke-width:0.8;" x="93.15" xlink:href="#m56976888fc" y="164.296993"/>
      </g>
     </g>
     <g id="text_7">
      <!-- 5000 -->
      <defs>
       <path d="M 10.796875 72.90625 
L 49.515625 72.90625 
L 49.515625 64.59375 
L 19.828125 64.59375 
L 19.828125 46.734375 
Q 21.96875 47.46875 24.109375 47.828125 
Q 26.265625 48.1875 28.421875 48.1875 
Q 40.625 48.1875 47.75 41.5 
Q 54.890625 34.8125 54.890625 23.390625 
Q 54.890625 11.625 47.5625 5.09375 
Q 40.234375 -1.421875 26.90625 -1.421875 
Q 22.3125 -1.421875 17.546875 -0.640625 
Q 12.796875 0.140625 7.71875 1.703125 
L 7.71875 11.625 
Q 12.109375 9.234375 16.796875 8.0625 
Q 21.484375 6.890625 26.703125 6.890625 
Q 35.15625 6.890625 40.078125 11.328125 
Q 45.015625 15.765625 45.015625 23.390625 
Q 45.015625 31 40.078125 35.4375 
Q 35.15625 39.890625 26.703125 39.890625 
Q 22.75 39.890625 18.8125 39.015625 
Q 14.890625 38.140625 10.796875 36.28125 
z
" id="DejaVuSans-53"/>
      </defs>
      <g transform="translate(60.7 168.096211)scale(0.1 -0.1)">
       <use xlink:href="#DejaVuSans-53"/>
       <use x="63.623047" xlink:href="#DejaVuSans-48"/>
       <use x="127.246094" xlink:href="#DejaVuSans-48"/>
       <use x="190.869141" xlink:href="#DejaVuSans-48"/>
      </g>
     </g>
    </g>
    <g id="ytick_3">
     <g id="line2d_15">
      <path clip-path="url(#p09d174822f)" d="M 93.15 126.541694 
L 355.663636 126.541694 
" style="fill:none;stroke:#b0b0b0;stroke-linecap:square;stroke-width:0.8;"/>
     </g>
     <g id="line2d_16">
      <g>
       <use style="stroke:#000000;stroke-width:0.8;" x="93.15" xlink:href="#m56976888fc" y="126.541694"/>
      </g>
     </g>
     <g id="text_8">
      <!-- 10000 -->
      <g transform="translate(54.3375 130.340913)scale(0.1 -0.1)">
       <use xlink:href="#DejaVuSans-49"/>
       <use x="63.623047" xlink:href="#DejaVuSans-48"/>
       <use x="127.246094" xlink:href="#DejaVuSans-48"/>
       <use x="190.869141" xlink:href="#DejaVuSans-48"/>
       <use x="254.492188" xlink:href="#DejaVuSans-48"/>
      </g>
     </g>
    </g>
    <g id="ytick_4">
     <g id="line2d_17">
      <path clip-path="url(#p09d174822f)" d="M 93.15 88.786396 
L 355.663636 88.786396 
" style="fill:none;stroke:#b0b0b0;stroke-linecap:square;stroke-width:0.8;"/>
     </g>
     <g id="line2d_18">
      <g>
       <use style="stroke:#000000;stroke-width:0.8;" x="93.15" xlink:href="#m56976888fc" y="88.786396"/>
      </g>
     </g>
     <g id="text_9">
      <!-- 15000 -->
      <g transform="translate(54.3375 92.585615)scale(0.1 -0.1)">
       <use xlink:href="#DejaVuSans-49"/>
       <use x="63.623047" xlink:href="#DejaVuSans-53"/>
       <use x="127.246094" xlink:href="#DejaVuSans-48"/>
       <use x="190.869141" xlink:href="#DejaVuSans-48"/>
       <use x="254.492188" xlink:href="#DejaVuSans-48"/>
      </g>
     </g>
    </g>
    <g id="text_10">
     <!-- $force (N)$ -->
     <defs>
      <path d="M 47.796875 75.984375 
L 46.390625 68.5 
L 37.796875 68.5 
Q 32.90625 68.5 30.6875 66.578125 
Q 28.46875 64.65625 27.390625 59.515625 
L 26.421875 54.6875 
L 41.21875 54.6875 
L 39.890625 47.703125 
L 25.09375 47.703125 
L 15.828125 0 
L 6.78125 0 
L 16.109375 47.703125 
L 7.515625 47.703125 
L 8.796875 54.6875 
L 17.390625 54.6875 
L 18.109375 58.5 
Q 19.96875 68.171875 24.625 72.078125 
Q 29.296875 75.984375 39.3125 75.984375 
z
" id="DejaVuSans-Oblique-102"/>
      <path d="M 25.390625 -1.421875 
Q 15.765625 -1.421875 10.171875 4.515625 
Q 4.59375 10.453125 4.59375 20.703125 
Q 4.59375 26.65625 6.515625 32.828125 
Q 8.453125 39.015625 11.53125 43.21875 
Q 16.359375 49.75 22.3125 52.875 
Q 28.265625 56 35.796875 56 
Q 45.125 56 50.859375 50.1875 
Q 56.59375 44.390625 56.59375 35.015625 
Q 56.59375 28.515625 54.6875 22.0625 
Q 52.78125 15.625 49.703125 11.375 
Q 44.921875 4.828125 38.96875 1.703125 
Q 33.015625 -1.421875 25.390625 -1.421875 
z
M 13.921875 21 
Q 13.921875 13.578125 17.015625 9.890625 
Q 20.125 6.203125 26.421875 6.203125 
Q 35.453125 6.203125 41.375 14.078125 
Q 47.3125 21.96875 47.3125 34.078125 
Q 47.3125 41.15625 44.140625 44.765625 
Q 40.96875 48.390625 34.8125 48.390625 
Q 29.734375 48.390625 25.78125 46.015625 
Q 21.828125 43.65625 18.703125 38.8125 
Q 16.40625 35.203125 15.15625 30.5625 
Q 13.921875 25.921875 13.921875 21 
z
" id="DejaVuSans-Oblique-111"/>
      <path d="M 44.578125 46.390625 
Q 43.21875 47.125 41.453125 47.515625 
Q 39.703125 47.90625 37.703125 47.90625 
Q 30.515625 47.90625 25.140625 42.453125 
Q 19.78125 37.015625 18.015625 27.875 
L 12.5 0 
L 3.515625 0 
L 14.203125 54.6875 
L 23.1875 54.6875 
L 21.484375 46.1875 
Q 25.046875 50.921875 30 53.453125 
Q 34.96875 56 40.578125 56 
Q 42.046875 56 43.453125 55.828125 
Q 44.875 55.671875 46.296875 55.28125 
z
" id="DejaVuSans-Oblique-114"/>
      <path d="M 53.609375 52.59375 
L 51.8125 43.703125 
Q 48.578125 46.046875 44.9375 47.21875 
Q 41.3125 48.390625 37.40625 48.390625 
Q 33.109375 48.390625 29.21875 46.875 
Q 25.34375 45.359375 22.703125 42.578125 
Q 18.5 38.328125 16.203125 32.609375 
Q 13.921875 26.90625 13.921875 20.796875 
Q 13.921875 13.421875 17.609375 9.8125 
Q 21.296875 6.203125 28.8125 6.203125 
Q 32.515625 6.203125 36.6875 7.328125 
Q 40.875 8.453125 45.40625 10.6875 
L 43.703125 1.8125 
Q 39.796875 0.203125 35.671875 -0.609375 
Q 31.546875 -1.421875 27.203125 -1.421875 
Q 16.3125 -1.421875 10.453125 4.015625 
Q 4.59375 9.46875 4.59375 19.578125 
Q 4.59375 28.078125 7.640625 35.234375 
Q 10.6875 42.390625 16.703125 48.09375 
Q 20.796875 52 26.3125 54 
Q 31.84375 56 38.375 56 
Q 42.1875 56 45.9375 55.140625 
Q 49.703125 54.296875 53.609375 52.59375 
z
" id="DejaVuSans-Oblique-99"/>
      <path d="M 48.09375 32.234375 
Q 48.25 33.015625 48.3125 33.84375 
Q 48.390625 34.671875 48.390625 35.5 
Q 48.390625 41.453125 44.890625 44.921875 
Q 41.40625 48.390625 35.40625 48.390625 
Q 28.71875 48.390625 23.578125 44.15625 
Q 18.453125 39.9375 15.828125 32.171875 
z
M 55.90625 25.203125 
L 14.109375 25.203125 
Q 13.8125 23.34375 13.71875 22.265625 
Q 13.625 21.1875 13.625 20.40625 
Q 13.625 13.625 17.796875 9.90625 
Q 21.96875 6.203125 29.59375 6.203125 
Q 35.453125 6.203125 40.671875 7.515625 
Q 45.90625 8.84375 50.390625 11.375 
L 48.6875 2.484375 
Q 43.84375 0.53125 38.6875 -0.4375 
Q 33.546875 -1.421875 28.21875 -1.421875 
Q 16.84375 -1.421875 10.71875 4.015625 
Q 4.59375 9.46875 4.59375 19.484375 
Q 4.59375 28.03125 7.640625 35.375 
Q 10.6875 42.71875 16.609375 48.484375 
Q 20.40625 52.09375 25.65625 54.046875 
Q 30.90625 56 36.8125 56 
Q 46.09375 56 51.578125 50.4375 
Q 57.078125 44.875 57.078125 35.5 
Q 57.078125 33.25 56.78125 30.6875 
Q 56.5 28.125 55.90625 25.203125 
z
" id="DejaVuSans-Oblique-101"/>
      <path d="M 31 75.875 
Q 24.46875 64.65625 21.28125 53.65625 
Q 18.109375 42.671875 18.109375 31.390625 
Q 18.109375 20.125 21.3125 9.0625 
Q 24.515625 -2 31 -13.1875 
L 23.1875 -13.1875 
Q 15.875 -1.703125 12.234375 9.375 
Q 8.59375 20.453125 8.59375 31.390625 
Q 8.59375 42.28125 12.203125 53.3125 
Q 15.828125 64.359375 23.1875 75.875 
z
" id="DejaVuSans-40"/>
      <path d="M 16.890625 72.90625 
L 30.171875 72.90625 
L 50.296875 10.40625 
L 62.5 72.90625 
L 72.125 72.90625 
L 57.90625 0 
L 44.578125 0 
L 24.515625 62.890625 
L 12.3125 0 
L 2.6875 0 
z
" id="DejaVuSans-Oblique-78"/>
      <path d="M 8.015625 75.875 
L 15.828125 75.875 
Q 23.140625 64.359375 26.78125 53.3125 
Q 30.421875 42.28125 30.421875 31.390625 
Q 30.421875 20.453125 26.78125 9.375 
Q 23.140625 -1.703125 15.828125 -13.1875 
L 8.015625 -13.1875 
Q 14.5 -2 17.703125 9.0625 
Q 20.90625 20.125 20.90625 31.390625 
Q 20.90625 42.671875 17.703125 53.65625 
Q 14.5 64.65625 8.015625 75.875 
z
" id="DejaVuSans-41"/>
     </defs>
     <g transform="translate(48.257812 151.6132)rotate(-90)scale(0.1 -0.1)">
      <use transform="translate(0 0.015625)" xlink:href="#DejaVuSans-Oblique-102"/>
      <use transform="translate(35.205078 0.015625)" xlink:href="#DejaVuSans-Oblique-111"/>
      <use transform="translate(96.386719 0.015625)" xlink:href="#DejaVuSans-Oblique-114"/>
      <use transform="translate(137.5 0.015625)" xlink:href="#DejaVuSans-Oblique-99"/>
      <use transform="translate(192.480469 0.015625)" xlink:href="#DejaVuSans-Oblique-101"/>
      <use transform="translate(254.003906 0.015625)" xlink:href="#DejaVuSans-40"/>
      <use transform="translate(293.017578 0.015625)" xlink:href="#DejaVuSans-Oblique-78"/>
      <use transform="translate(367.822266 0.015625)" xlink:href="#DejaVuSans-41"/>
     </g>
    </g>
   </g>
   <g id="line2d_19">
    <path clip-path="url(#p09d174822f)" d="M 105.082438 202.052291 
L 106.993539 194.281756 
L 107.94909 191.145715 
L 108.665753 189.320743 
L 109.382416 188.023407 
L 109.860191 187.471333 
L 110.337966 187.174458 
L 110.815742 187.130043 
L 111.293517 187.329207 
L 111.771292 187.75714 
L 112.487955 188.782002 
L 113.443506 190.718204 
L 115.115719 194.894015 
L 116.549045 198.2011 
L 117.265708 199.424258 
L 117.982371 200.220761 
L 118.460146 200.475593 
L 118.937922 200.489824 
L 119.415697 200.253148 
L 119.893472 199.761358 
L 120.610135 198.551413 
L 121.326798 196.805962 
L 122.282349 193.756291 
L 123.476787 189.099029 
L 126.582326 176.527559 
L 127.537877 173.68103 
L 128.25454 172.118087 
L 128.971203 171.105539 
L 129.448978 170.748312 
L 129.926753 170.644754 
L 130.404529 170.78742 
L 130.882304 171.162877 
L 131.598967 172.119326 
L 132.31563 173.46958 
L 133.510068 176.296454 
L 135.660057 181.502198 
L 136.37672 182.784007 
L 137.093383 183.653566 
L 137.571158 183.963158 
L 138.048933 184.035458 
L 138.526709 183.858744 
L 139.004484 183.427352 
L 139.482259 182.741818 
L 140.198922 181.253353 
L 140.915585 179.257352 
L 141.871136 175.94046 
L 143.543349 169.05049 
L 145.454451 161.288326 
L 146.410001 158.161948 
L 147.126664 156.345937 
L 147.843327 155.058492 
L 148.321102 154.513264 
L 148.798878 154.223243 
L 149.276653 154.185523 
L 149.754428 154.391059 
L 150.232203 154.824888 
L 150.948866 155.857389 
L 151.904417 157.800902 
L 153.576631 161.979877 
L 154.771069 164.795584 
L 155.726619 166.495821 
L 156.443282 167.283894 
L 156.921058 167.53244 
L 157.398833 167.540031 
L 157.876608 167.29652 
L 158.354384 166.79787 
L 159.071046 165.577945 
L 159.787709 163.823372 
L 160.74326 160.763725 
L 161.937698 156.098813 
L 165.043238 143.537455 
L 165.998788 140.701675 
L 166.715451 139.148232 
L 167.432114 138.145844 
L 167.909889 137.795484 
L 168.387665 137.698673 
L 168.86544 137.847802 
L 169.343215 138.229281 
L 170.059878 139.193618 
L 170.776541 140.55001 
L 171.970979 143.382365 
L 174.120968 148.581494 
L 174.837631 149.856764 
L 175.554294 150.718116 
L 176.032069 151.02153 
L 176.509845 151.087259 
L 176.98762 150.903742 
L 177.465395 150.46548 
L 177.943171 149.773176 
L 178.659834 148.275103 
L 179.376497 146.270613 
L 180.332047 142.944932 
L 182.004261 136.04869 
L 183.915362 128.295005 
L 184.870912 125.178331 
L 185.587575 123.371301 
L 186.304238 122.09376 
L 186.782014 121.55538 
L 187.259789 121.27221 
L 187.737564 121.241179 
L 188.21534 121.453077 
L 188.693115 121.892786 
L 189.409778 122.932896 
L 190.365328 124.883672 
L 192.037542 129.065712 
L 193.23198 131.875735 
L 194.187531 133.567245 
L 194.904194 134.346863 
L 195.381969 134.589113 
L 195.859744 134.590057 
L 196.33752 134.339708 
L 196.815295 133.834197 
L 197.531958 132.604304 
L 198.248621 130.84063 
L 199.204171 127.771047 
L 200.39861 123.098548 
L 203.265261 111.37128 
L 204.220812 108.351772 
L 204.937475 106.633803 
L 205.654138 105.453858 
L 206.131913 104.982662 
L 206.609688 104.766469 
L 207.087464 104.800577 
L 207.565239 105.074193 
L 208.043014 105.570694 
L 208.759677 106.68378 
L 209.715228 108.70309 
L 213.059655 116.548003 
L 213.776318 117.549776 
L 214.254093 117.959934 
L 214.731868 118.139916 
L 215.209644 118.07538 
L 215.687419 117.757932 
L 216.165194 117.185335 
L 216.881857 115.858397 
L 217.59852 114.006674 
L 218.554071 110.841889 
L 219.987397 105.088788 
L 222.376273 95.301793 
L 223.331824 92.194863 
L 224.048487 90.396836 
L 224.76515 89.12921 
L 225.242925 88.597681 
L 225.7207 88.321361 
L 226.198476 88.29701 
L 226.676251 88.51526 
L 227.154026 88.960834 
L 227.870689 90.008525 
L 228.82624 91.966515 
L 230.498453 96.151521 
L 231.692891 98.955791 
L 232.648442 100.63853 
L 233.365105 101.40967 
L 233.84288 101.645611 
L 234.320656 101.639899 
L 234.798431 101.382711 
L 235.276206 100.870342 
L 235.992869 99.63049 
L 236.709532 97.857736 
L 237.665083 94.778256 
L 238.859521 90.098236 
L 241.726173 78.379173 
L 242.681723 75.369797 
L 243.398386 73.661029 
L 244.115049 72.491104 
L 244.592824 72.026775 
L 245.0706 71.817403 
L 245.548375 71.858121 
L 246.02615 72.137974 
L 246.503926 72.640189 
L 247.220589 73.760562 
L 248.176139 75.786601 
L 251.520566 83.622897 
L 252.237229 84.616917 
L 252.715004 85.021121 
L 253.19278 85.194688 
L 253.670555 85.123432 
L 254.14833 84.799123 
L 254.626106 84.21969 
L 255.342769 82.882911 
L 256.059432 81.022314 
L 257.014982 77.84803 
L 257.970533 74.094309 
L 258.20942 70.457666 
L 259.881634 65.086677 
L 260.837184 62.701571 
L 261.553847 61.427285 
L 262.27051 60.673705 
L 262.748286 60.482174 
L 263.226061 60.545656 
L 263.703836 60.862607 
L 264.181612 61.425313 
L 264.898275 62.698654 
L 265.853825 65.082755 
L 267.048263 68.830035 
L 269.676027 77.343155 
L 270.631578 79.591457 
L 271.348241 80.73876 
L 271.826016 81.20966 
L 272.303792 81.431165 
L 272.781567 81.397885 
L 273.259342 81.11063 
L 273.737117 80.576391 
L 274.45378 79.341942 
L 275.170443 77.649787 
L 276.125994 74.84431 
L 279.709309 63.497759 
L 280.425972 61.991629 
L 281.142635 60.975384 
L 281.62041 60.598657 
L 282.098185 60.474109 
L 282.57596 60.604771 
L 283.053736 60.987463 
L 283.531511 61.612872 
L 284.248174 62.971261 
L 285.203725 65.444911 
L 286.63705 70.066436 
L 288.787039 77.031465 
L 289.74259 79.365516 
L 290.459253 80.592019 
L 290.937028 81.120459 
L 291.414803 81.401675 
L 291.892579 81.428823 
L 292.370354 81.201244 
L 292.848129 80.724474 
L 293.564792 79.569061 
L 294.281455 77.943536 
L 295.237006 75.201438 
L 299.059208 63.201075 
L 299.775871 61.775738 
L 300.492534 60.852077 
L 300.970309 60.541145 
L 301.448085 60.483791 
L 301.92586 60.681411 
L 302.403635 61.129196 
L 303.120298 62.244494 
L 303.836961 63.835867 
L 304.792512 66.544867 
L 306.703613 72.941307 
L 306.942501 73.738559 
L 307.181388 77.648964 
L 308.614714 85.962453 
L 309.570265 90.418127 
L 310.525815 93.873725 
L 311.242478 95.80287 
L 311.959141 97.199462 
L 312.675804 98.12698 
L 313.392467 98.674517 
L 314.10913 98.951921 
L 316.498006 99.570515 
L 317.214669 100.164973 
L 317.931332 101.153237 
L 318.647995 102.621083 
L 319.364658 104.628096 
L 320.320209 108.190438 
L 321.275759 112.746713 
L 322.470198 119.66271 
L 324.142411 130.863583 
L 326.770175 148.561937 
L 327.964614 155.242952 
L 328.920164 159.570639 
L 329.875715 162.892054 
L 330.592378 164.724317 
L 331.309041 166.03315 
L 332.025704 166.886822 
L 332.742367 167.378461 
L 333.697917 167.668044 
L 335.370131 168.029895 
L 336.086794 168.469134 
L 336.803457 169.251847 
L 337.520119 170.475035 
L 338.236782 172.211646 
L 338.953445 174.506585 
L 339.908996 178.455411 
L 340.864547 183.366866 
L 342.058985 190.631028 
L 343.731198 202.052291 
L 343.731198 202.052291 
" style="fill:none;stroke:#1f77b4;stroke-linecap:square;stroke-width:1.5;"/>
   </g>
   <g id="line2d_20">
    <path clip-path="url(#p09d174822f)" d="M 105.082438 202.052291 
L 258.062413 70.961365 
L 307.016004 70.961365 
L 343.731198 202.052291 
" style="fill:none;stroke:#000000;stroke-dasharray:1.48,0.64;stroke-dashoffset:0;stroke-width:0.4;"/>
   </g>
   <g id="line2d_21">
    <path clip-path="url(#p09d174822f)" d="M 258.062413 202.052291 
L 258.062413 70.961365 
" style="fill:none;stroke:#ff0000;stroke-dasharray:2.22,0.96;stroke-dashoffset:0;stroke-width:0.6;"/>
   </g>
   <g id="line2d_22">
    <path clip-path="url(#p09d174822f)" d="M 307.016004 202.052291 
L 307.016004 70.961365 
" style="fill:none;stroke:#ff0000;stroke-dasharray:2.22,0.96;stroke-dashoffset:0;stroke-width:0.6;"/>
   </g>
   <g id="patch_3">
    <path d="M 93.15 209.1312 
L 93.15 53.3952 
" style="fill:none;stroke:#000000;stroke-linecap:square;stroke-linejoin:miter;stroke-width:0.8;"/>
   </g>
   <g id="patch_4">
    <path d="M 355.663636 209.1312 
L 355.663636 53.3952 
" style="fill:none;stroke:#000000;stroke-linecap:square;stroke-linejoin:miter;stroke-width:0.8;"/>
   </g>
   <g id="patch_5">
    <path d="M 93.15 209.1312 
L 355.663636 209.1312 
" style="fill:none;stroke:#000000;stroke-linecap:square;stroke-linejoin:miter;stroke-width:0.8;"/>
   </g>
   <g id="patch_6">
    <path d="M 93.15 53.3952 
L 355.663636 53.3952 
" style="fill:none;stroke:#000000;stroke-linecap:square;stroke-linejoin:miter;stroke-width:0.8;"/>
   </g>
  </g>
  <g id="axes_2">
   <g id="patch_7">
    <path d="M 408.166364 209.1312 
L 670.68 209.1312 
L 670.68 53.3952 
L 408.166364 53.3952 
z
" style="fill:#ffffff;"/>
   </g>
   <g id="matplotlib.axis_3">
    <g id="xtick_6">
     <g id="line2d_23">
      <path clip-path="url(#p6e8b9ab609)" d="M 420.098802 209.1312 
L 420.098802 53.3952 
" style="fill:none;stroke:#b0b0b0;stroke-linecap:square;stroke-width:0.8;"/>
     </g>
     <g id="line2d_24">
      <g>
       <use style="stroke:#000000;stroke-width:0.8;" x="420.098802" xlink:href="#m23ff4b1c79" y="209.1312"/>
      </g>
     </g>
     <g id="text_11">
      <!-- 0 -->
      <g transform="translate(416.917552 223.729637)scale(0.1 -0.1)">
       <use xlink:href="#DejaVuSans-48"/>
      </g>
     </g>
    </g>
    <g id="xtick_7">
     <g id="line2d_25">
      <path clip-path="url(#p6e8b9ab609)" d="M 481.290791 209.1312 
L 481.290791 53.3952 
" style="fill:none;stroke:#b0b0b0;stroke-linecap:square;stroke-width:0.8;"/>
     </g>
     <g id="line2d_26">
      <g>
       <use style="stroke:#000000;stroke-width:0.8;" x="481.290791" xlink:href="#m23ff4b1c79" y="209.1312"/>
      </g>
     </g>
     <g id="text_12">
      <!-- 10 -->
      <g transform="translate(474.928291 223.729637)scale(0.1 -0.1)">
       <use xlink:href="#DejaVuSans-49"/>
       <use x="63.623047" xlink:href="#DejaVuSans-48"/>
      </g>
     </g>
    </g>
    <g id="xtick_8">
     <g id="line2d_27">
      <path clip-path="url(#p6e8b9ab609)" d="M 542.482781 209.1312 
L 542.482781 53.3952 
" style="fill:none;stroke:#b0b0b0;stroke-linecap:square;stroke-width:0.8;"/>
     </g>
     <g id="line2d_28">
      <g>
       <use style="stroke:#000000;stroke-width:0.8;" x="542.482781" xlink:href="#m23ff4b1c79" y="209.1312"/>
      </g>
     </g>
     <g id="text_13">
      <!-- 20 -->
      <g transform="translate(536.120281 223.729637)scale(0.1 -0.1)">
       <use xlink:href="#DejaVuSans-50"/>
       <use x="63.623047" xlink:href="#DejaVuSans-48"/>
      </g>
     </g>
    </g>
    <g id="xtick_9">
     <g id="line2d_29">
      <path clip-path="url(#p6e8b9ab609)" d="M 603.674771 209.1312 
L 603.674771 53.3952 
" style="fill:none;stroke:#b0b0b0;stroke-linecap:square;stroke-width:0.8;"/>
     </g>
     <g id="line2d_30">
      <g>
       <use style="stroke:#000000;stroke-width:0.8;" x="603.674771" xlink:href="#m23ff4b1c79" y="209.1312"/>
      </g>
     </g>
     <g id="text_14">
      <!-- 30 -->
      <g transform="translate(597.312271 223.729637)scale(0.1 -0.1)">
       <use xlink:href="#DejaVuSans-51"/>
       <use x="63.623047" xlink:href="#DejaVuSans-48"/>
      </g>
     </g>
    </g>
    <g id="xtick_10">
     <g id="line2d_31">
      <path clip-path="url(#p6e8b9ab609)" d="M 664.866761 209.1312 
L 664.866761 53.3952 
" style="fill:none;stroke:#b0b0b0;stroke-linecap:square;stroke-width:0.8;"/>
     </g>
     <g id="line2d_32">
      <g>
       <use style="stroke:#000000;stroke-width:0.8;" x="664.866761" xlink:href="#m23ff4b1c79" y="209.1312"/>
      </g>
     </g>
     <g id="text_15">
      <!-- 40 -->
      <g transform="translate(658.504261 223.729637)scale(0.1 -0.1)">
       <use xlink:href="#DejaVuSans-52"/>
       <use x="63.623047" xlink:href="#DejaVuSans-48"/>
      </g>
     </g>
    </g>
    <g id="text_16">
     <!-- $time (s)$ -->
     <defs>
      <path d="M 42.28125 54.6875 
L 40.921875 47.703125 
L 23 47.703125 
L 17.1875 18.015625 
Q 16.890625 16.359375 16.75 15.234375 
Q 16.609375 14.109375 16.609375 13.484375 
Q 16.609375 10.359375 18.484375 8.9375 
Q 20.359375 7.515625 24.515625 7.515625 
L 33.59375 7.515625 
L 32.078125 0 
L 23.484375 0 
Q 15.484375 0 11.546875 3.125 
Q 7.625 6.25 7.625 12.59375 
Q 7.625 13.71875 7.765625 15.0625 
Q 7.90625 16.40625 8.203125 18.015625 
L 14.015625 47.703125 
L 6.390625 47.703125 
L 7.8125 54.6875 
L 15.28125 54.6875 
L 18.3125 70.21875 
L 27.296875 70.21875 
L 24.3125 54.6875 
z
" id="DejaVuSans-Oblique-116"/>
      <path d="M 18.3125 75.984375 
L 27.296875 75.984375 
L 25.09375 64.59375 
L 16.109375 64.59375 
z
M 14.203125 54.6875 
L 23.1875 54.6875 
L 12.5 0 
L 3.515625 0 
z
" id="DejaVuSans-Oblique-105"/>
      <path d="M 89.796875 33.015625 
L 83.40625 0 
L 74.421875 0 
L 80.71875 32.71875 
Q 81.109375 34.8125 81.296875 36.328125 
Q 81.5 37.84375 81.5 38.921875 
Q 81.5 43.3125 79.046875 45.75 
Q 76.609375 48.1875 72.21875 48.1875 
Q 65.671875 48.1875 60.546875 43.28125 
Q 55.421875 38.375 53.90625 30.515625 
L 47.90625 0 
L 38.921875 0 
L 45.3125 32.71875 
Q 45.703125 34.515625 45.890625 36.046875 
Q 46.09375 37.59375 46.09375 38.8125 
Q 46.09375 43.265625 43.65625 45.71875 
Q 41.21875 48.1875 36.921875 48.1875 
Q 30.28125 48.1875 25.140625 43.28125 
Q 20.015625 38.375 18.5 30.515625 
L 12.5 0 
L 3.515625 0 
L 14.203125 54.6875 
L 23.1875 54.6875 
L 21.484375 46.1875 
Q 25.140625 50.984375 30.046875 53.484375 
Q 34.96875 56 40.578125 56 
Q 46.53125 56 50.359375 52.875 
Q 54.203125 49.75 54.984375 44.1875 
Q 59.078125 49.953125 64.46875 52.96875 
Q 69.875 56 75.875 56 
Q 82.90625 56 86.734375 51.953125 
Q 90.578125 47.90625 90.578125 40.484375 
Q 90.578125 38.875 90.375 36.9375 
Q 90.1875 35.015625 89.796875 33.015625 
z
" id="DejaVuSans-Oblique-109"/>
      <path d="M 50 53.078125 
L 48.296875 44.578125 
Q 44.734375 46.53125 40.765625 47.5 
Q 36.8125 48.484375 32.625 48.484375 
Q 25.53125 48.484375 21.453125 46.0625 
Q 17.390625 43.65625 17.390625 39.5 
Q 17.390625 34.671875 26.859375 32.078125 
Q 27.59375 31.890625 27.9375 31.78125 
L 30.8125 30.90625 
Q 39.796875 28.421875 42.796875 25.6875 
Q 45.796875 22.953125 45.796875 18.21875 
Q 45.796875 9.515625 38.890625 4.046875 
Q 31.984375 -1.421875 20.796875 -1.421875 
Q 16.453125 -1.421875 11.671875 -0.578125 
Q 6.890625 0.25 1.125 2 
L 2.875 11.28125 
Q 7.8125 8.734375 12.59375 7.421875 
Q 17.390625 6.109375 21.78125 6.109375 
Q 28.375 6.109375 32.5 8.9375 
Q 36.625 11.765625 36.625 16.109375 
Q 36.625 20.796875 25.78125 23.6875 
L 24.859375 23.921875 
L 21.78125 24.703125 
Q 14.9375 26.515625 11.765625 29.46875 
Q 8.59375 32.421875 8.59375 37.015625 
Q 8.59375 45.75 15.15625 50.875 
Q 21.734375 56 33.015625 56 
Q 37.453125 56 41.671875 55.265625 
Q 45.90625 54.546875 50 53.078125 
z
" id="DejaVuSans-Oblique-115"/>
     </defs>
     <g transform="translate(521.573182 237.407762)scale(0.1 -0.1)">
      <use transform="translate(0 0.015625)" xlink:href="#DejaVuSans-Oblique-116"/>
      <use transform="translate(39.208984 0.015625)" xlink:href="#DejaVuSans-Oblique-105"/>
      <use transform="translate(66.992188 0.015625)" xlink:href="#DejaVuSans-Oblique-109"/>
      <use transform="translate(164.404297 0.015625)" xlink:href="#DejaVuSans-Oblique-101"/>
      <use transform="translate(225.927734 0.015625)" xlink:href="#DejaVuSans-40"/>
      <use transform="translate(264.941406 0.015625)" xlink:href="#DejaVuSans-Oblique-115"/>
      <use transform="translate(317.041016 0.015625)" xlink:href="#DejaVuSans-41"/>
     </g>
    </g>
   </g>
   <g id="matplotlib.axis_4">
    <g id="ytick_5">
     <g id="line2d_33">
      <path clip-path="url(#p6e8b9ab609)" d="M 408.166364 202.052291 
L 670.68 202.052291 
" style="fill:none;stroke:#b0b0b0;stroke-linecap:square;stroke-width:0.8;"/>
     </g>
     <g id="line2d_34">
      <g>
       <use style="stroke:#000000;stroke-width:0.8;" x="408.166364" xlink:href="#m56976888fc" y="202.052291"/>
      </g>
     </g>
     <g id="text_17">
      <!-- 0 -->
      <g transform="translate(394.803864 205.85151)scale(0.1 -0.1)">
       <use xlink:href="#DejaVuSans-48"/>
      </g>
     </g>
    </g>
    <g id="ytick_6">
     <g id="line2d_35">
      <path clip-path="url(#p6e8b9ab609)" d="M 408.166364 177.566209 
L 670.68 177.566209 
" style="fill:none;stroke:#b0b0b0;stroke-linecap:square;stroke-width:0.8;"/>
     </g>
     <g id="line2d_36">
      <g>
       <use style="stroke:#000000;stroke-width:0.8;" x="408.166364" xlink:href="#m56976888fc" y="177.566209"/>
      </g>
     </g>
     <g id="text_18">
      <!-- 5 -->
      <g transform="translate(394.803864 181.365428)scale(0.1 -0.1)">
       <use xlink:href="#DejaVuSans-53"/>
      </g>
     </g>
    </g>
    <g id="ytick_7">
     <g id="line2d_37">
      <path clip-path="url(#p6e8b9ab609)" d="M 408.166364 153.080128 
L 670.68 153.080128 
" style="fill:none;stroke:#b0b0b0;stroke-linecap:square;stroke-width:0.8;"/>
     </g>
     <g id="line2d_38">
      <g>
       <use style="stroke:#000000;stroke-width:0.8;" x="408.166364" xlink:href="#m56976888fc" y="153.080128"/>
      </g>
     </g>
     <g id="text_19">
      <!-- 10 -->
      <g transform="translate(388.441364 156.879347)scale(0.1 -0.1)">
       <use xlink:href="#DejaVuSans-49"/>
       <use x="63.623047" xlink:href="#DejaVuSans-48"/>
      </g>
     </g>
    </g>
    <g id="ytick_8">
     <g id="line2d_39">
      <path clip-path="url(#p6e8b9ab609)" d="M 408.166364 128.594047 
L 670.68 128.594047 
" style="fill:none;stroke:#b0b0b0;stroke-linecap:square;stroke-width:0.8;"/>
     </g>
     <g id="line2d_40">
      <g>
       <use style="stroke:#000000;stroke-width:0.8;" x="408.166364" xlink:href="#m56976888fc" y="128.594047"/>
      </g>
     </g>
     <g id="text_20">
      <!-- 15 -->
      <g transform="translate(388.441364 132.393265)scale(0.1 -0.1)">
       <use xlink:href="#DejaVuSans-49"/>
       <use x="63.623047" xlink:href="#DejaVuSans-53"/>
      </g>
     </g>
    </g>
    <g id="ytick_9">
     <g id="line2d_41">
      <path clip-path="url(#p6e8b9ab609)" d="M 408.166364 104.107965 
L 670.68 104.107965 
" style="fill:none;stroke:#b0b0b0;stroke-linecap:square;stroke-width:0.8;"/>
     </g>
     <g id="line2d_42">
      <g>
       <use style="stroke:#000000;stroke-width:0.8;" x="408.166364" xlink:href="#m56976888fc" y="104.107965"/>
      </g>
     </g>
     <g id="text_21">
      <!-- 20 -->
      <g transform="translate(388.441364 107.907184)scale(0.1 -0.1)">
       <use xlink:href="#DejaVuSans-50"/>
       <use x="63.623047" xlink:href="#DejaVuSans-48"/>
      </g>
     </g>
    </g>
    <g id="ytick_10">
     <g id="line2d_43">
      <path clip-path="url(#p6e8b9ab609)" d="M 408.166364 79.621884 
L 670.68 79.621884 
" style="fill:none;stroke:#b0b0b0;stroke-linecap:square;stroke-width:0.8;"/>
     </g>
     <g id="line2d_44">
      <g>
       <use style="stroke:#000000;stroke-width:0.8;" x="408.166364" xlink:href="#m56976888fc" y="79.621884"/>
      </g>
     </g>
     <g id="text_22">
      <!-- 25 -->
      <g transform="translate(388.441364 83.421102)scale(0.1 -0.1)">
       <use xlink:href="#DejaVuSans-50"/>
       <use x="63.623047" xlink:href="#DejaVuSans-53"/>
      </g>
     </g>
    </g>
    <g id="ytick_11">
     <g id="line2d_45">
      <path clip-path="url(#p6e8b9ab609)" d="M 408.166364 55.135802 
L 670.68 55.135802 
" style="fill:none;stroke:#b0b0b0;stroke-linecap:square;stroke-width:0.8;"/>
     </g>
     <g id="line2d_46">
      <g>
       <use style="stroke:#000000;stroke-width:0.8;" x="408.166364" xlink:href="#m56976888fc" y="55.135802"/>
      </g>
     </g>
     <g id="text_23">
      <!-- 30 -->
      <g transform="translate(388.441364 58.935021)scale(0.1 -0.1)">
       <use xlink:href="#DejaVuSans-51"/>
       <use x="63.623047" xlink:href="#DejaVuSans-48"/>
      </g>
     </g>
    </g>
    <g id="text_24">
     <!-- coefficient de vitesse $C_V$ -->
     <defs>
      <path d="M 48.78125 52.59375 
L 48.78125 44.1875 
Q 44.96875 46.296875 41.140625 47.34375 
Q 37.3125 48.390625 33.40625 48.390625 
Q 24.65625 48.390625 19.8125 42.84375 
Q 14.984375 37.3125 14.984375 27.296875 
Q 14.984375 17.28125 19.8125 11.734375 
Q 24.65625 6.203125 33.40625 6.203125 
Q 37.3125 6.203125 41.140625 7.25 
Q 44.96875 8.296875 48.78125 10.40625 
L 48.78125 2.09375 
Q 45.015625 0.34375 40.984375 -0.53125 
Q 36.96875 -1.421875 32.421875 -1.421875 
Q 20.0625 -1.421875 12.78125 6.34375 
Q 5.515625 14.109375 5.515625 27.296875 
Q 5.515625 40.671875 12.859375 48.328125 
Q 20.21875 56 33.015625 56 
Q 37.15625 56 41.109375 55.140625 
Q 45.0625 54.296875 48.78125 52.59375 
z
" id="DejaVuSans-99"/>
      <path d="M 30.609375 48.390625 
Q 23.390625 48.390625 19.1875 42.75 
Q 14.984375 37.109375 14.984375 27.296875 
Q 14.984375 17.484375 19.15625 11.84375 
Q 23.34375 6.203125 30.609375 6.203125 
Q 37.796875 6.203125 41.984375 11.859375 
Q 46.1875 17.53125 46.1875 27.296875 
Q 46.1875 37.015625 41.984375 42.703125 
Q 37.796875 48.390625 30.609375 48.390625 
z
M 30.609375 56 
Q 42.328125 56 49.015625 48.375 
Q 55.71875 40.765625 55.71875 27.296875 
Q 55.71875 13.875 49.015625 6.21875 
Q 42.328125 -1.421875 30.609375 -1.421875 
Q 18.84375 -1.421875 12.171875 6.21875 
Q 5.515625 13.875 5.515625 27.296875 
Q 5.515625 40.765625 12.171875 48.375 
Q 18.84375 56 30.609375 56 
z
" id="DejaVuSans-111"/>
      <path d="M 56.203125 29.59375 
L 56.203125 25.203125 
L 14.890625 25.203125 
Q 15.484375 15.921875 20.484375 11.0625 
Q 25.484375 6.203125 34.421875 6.203125 
Q 39.59375 6.203125 44.453125 7.46875 
Q 49.3125 8.734375 54.109375 11.28125 
L 54.109375 2.78125 
Q 49.265625 0.734375 44.1875 -0.34375 
Q 39.109375 -1.421875 33.890625 -1.421875 
Q 20.796875 -1.421875 13.15625 6.1875 
Q 5.515625 13.8125 5.515625 26.8125 
Q 5.515625 40.234375 12.765625 48.109375 
Q 20.015625 56 32.328125 56 
Q 43.359375 56 49.78125 48.890625 
Q 56.203125 41.796875 56.203125 29.59375 
z
M 47.21875 32.234375 
Q 47.125 39.59375 43.09375 43.984375 
Q 39.0625 48.390625 32.421875 48.390625 
Q 24.90625 48.390625 20.390625 44.140625 
Q 15.875 39.890625 15.1875 32.171875 
z
" id="DejaVuSans-101"/>
      <path d="M 37.109375 75.984375 
L 37.109375 68.5 
L 28.515625 68.5 
Q 23.6875 68.5 21.796875 66.546875 
Q 19.921875 64.59375 19.921875 59.515625 
L 19.921875 54.6875 
L 34.71875 54.6875 
L 34.71875 47.703125 
L 19.921875 47.703125 
L 19.921875 0 
L 10.890625 0 
L 10.890625 47.703125 
L 2.296875 47.703125 
L 2.296875 54.6875 
L 10.890625 54.6875 
L 10.890625 58.5 
Q 10.890625 67.625 15.140625 71.796875 
Q 19.390625 75.984375 28.609375 75.984375 
z
" id="DejaVuSans-102"/>
      <path d="M 9.421875 54.6875 
L 18.40625 54.6875 
L 18.40625 0 
L 9.421875 0 
z
M 9.421875 75.984375 
L 18.40625 75.984375 
L 18.40625 64.59375 
L 9.421875 64.59375 
z
" id="DejaVuSans-105"/>
      <path d="M 54.890625 33.015625 
L 54.890625 0 
L 45.90625 0 
L 45.90625 32.71875 
Q 45.90625 40.484375 42.875 44.328125 
Q 39.84375 48.1875 33.796875 48.1875 
Q 26.515625 48.1875 22.3125 43.546875 
Q 18.109375 38.921875 18.109375 30.90625 
L 18.109375 0 
L 9.078125 0 
L 9.078125 54.6875 
L 18.109375 54.6875 
L 18.109375 46.1875 
Q 21.34375 51.125 25.703125 53.5625 
Q 30.078125 56 35.796875 56 
Q 45.21875 56 50.046875 50.171875 
Q 54.890625 44.34375 54.890625 33.015625 
z
" id="DejaVuSans-110"/>
      <path d="M 18.3125 70.21875 
L 18.3125 54.6875 
L 36.8125 54.6875 
L 36.8125 47.703125 
L 18.3125 47.703125 
L 18.3125 18.015625 
Q 18.3125 11.328125 20.140625 9.421875 
Q 21.96875 7.515625 27.59375 7.515625 
L 36.8125 7.515625 
L 36.8125 0 
L 27.59375 0 
Q 17.1875 0 13.234375 3.875 
Q 9.28125 7.765625 9.28125 18.015625 
L 9.28125 47.703125 
L 2.6875 47.703125 
L 2.6875 54.6875 
L 9.28125 54.6875 
L 9.28125 70.21875 
z
" id="DejaVuSans-116"/>
      <path id="DejaVuSans-32"/>
      <path d="M 45.40625 46.390625 
L 45.40625 75.984375 
L 54.390625 75.984375 
L 54.390625 0 
L 45.40625 0 
L 45.40625 8.203125 
Q 42.578125 3.328125 38.25 0.953125 
Q 33.9375 -1.421875 27.875 -1.421875 
Q 17.96875 -1.421875 11.734375 6.484375 
Q 5.515625 14.40625 5.515625 27.296875 
Q 5.515625 40.1875 11.734375 48.09375 
Q 17.96875 56 27.875 56 
Q 33.9375 56 38.25 53.625 
Q 42.578125 51.265625 45.40625 46.390625 
z
M 14.796875 27.296875 
Q 14.796875 17.390625 18.875 11.75 
Q 22.953125 6.109375 30.078125 6.109375 
Q 37.203125 6.109375 41.296875 11.75 
Q 45.40625 17.390625 45.40625 27.296875 
Q 45.40625 37.203125 41.296875 42.84375 
Q 37.203125 48.484375 30.078125 48.484375 
Q 22.953125 48.484375 18.875 42.84375 
Q 14.796875 37.203125 14.796875 27.296875 
z
" id="DejaVuSans-100"/>
      <path d="M 2.984375 54.6875 
L 12.5 54.6875 
L 29.59375 8.796875 
L 46.6875 54.6875 
L 56.203125 54.6875 
L 35.6875 0 
L 23.484375 0 
z
" id="DejaVuSans-118"/>
      <path d="M 44.28125 53.078125 
L 44.28125 44.578125 
Q 40.484375 46.53125 36.375 47.5 
Q 32.28125 48.484375 27.875 48.484375 
Q 21.1875 48.484375 17.84375 46.4375 
Q 14.5 44.390625 14.5 40.28125 
Q 14.5 37.15625 16.890625 35.375 
Q 19.28125 33.59375 26.515625 31.984375 
L 29.59375 31.296875 
Q 39.15625 29.25 43.1875 25.515625 
Q 47.21875 21.78125 47.21875 15.09375 
Q 47.21875 7.46875 41.1875 3.015625 
Q 35.15625 -1.421875 24.609375 -1.421875 
Q 20.21875 -1.421875 15.453125 -0.5625 
Q 10.6875 0.296875 5.421875 2 
L 5.421875 11.28125 
Q 10.40625 8.6875 15.234375 7.390625 
Q 20.0625 6.109375 24.8125 6.109375 
Q 31.15625 6.109375 34.5625 8.28125 
Q 37.984375 10.453125 37.984375 14.40625 
Q 37.984375 18.0625 35.515625 20.015625 
Q 33.0625 21.96875 24.703125 23.78125 
L 21.578125 24.515625 
Q 13.234375 26.265625 9.515625 29.90625 
Q 5.8125 33.546875 5.8125 39.890625 
Q 5.8125 47.609375 11.28125 51.796875 
Q 16.75 56 26.8125 56 
Q 31.78125 56 36.171875 55.265625 
Q 40.578125 54.546875 44.28125 53.078125 
z
" id="DejaVuSans-115"/>
      <path d="M 69.484375 67.28125 
L 67.484375 56.890625 
Q 62.796875 61.625 57.546875 63.921875 
Q 52.296875 66.21875 46.1875 66.21875 
Q 37.84375 66.21875 31.515625 62.203125 
Q 25.203125 58.203125 20.609375 50 
Q 17.671875 44.734375 16.125 38.84375 
Q 14.59375 32.953125 14.59375 27 
Q 14.59375 17.046875 19.75 11.8125 
Q 24.90625 6.59375 34.71875 6.59375 
Q 41.5 6.59375 47.75 8.765625 
Q 54 10.9375 59.90625 15.28125 
L 57.625 3.609375 
Q 51.8125 1.125 45.875 -0.140625 
Q 39.9375 -1.421875 33.984375 -1.421875 
Q 19.96875 -1.421875 12.078125 6.1875 
Q 4.203125 13.8125 4.203125 27.390625 
Q 4.203125 36.078125 7.203125 44.46875 
Q 10.203125 52.875 15.828125 59.8125 
Q 21.78125 67.1875 29.421875 70.703125 
Q 37.0625 74.21875 47.21875 74.21875 
Q 53.46875 74.21875 59.0625 72.484375 
Q 64.65625 70.75 69.484375 67.28125 
z
" id="DejaVuSans-Oblique-67"/>
      <path d="M 20.609375 0 
L 7.8125 72.90625 
L 17.484375 72.90625 
L 28.078125 10.203125 
L 63.484375 72.90625 
L 74.21875 72.90625 
L 32.078125 0 
z
" id="DejaVuSans-Oblique-86"/>
     </defs>
     <g transform="translate(382.361676 192.1132)rotate(-90)scale(0.1 -0.1)">
      <use transform="translate(0 0.015625)" xlink:href="#DejaVuSans-99"/>
      <use transform="translate(54.980469 0.015625)" xlink:href="#DejaVuSans-111"/>
      <use transform="translate(116.162109 0.015625)" xlink:href="#DejaVuSans-101"/>
      <use transform="translate(177.685547 0.015625)" xlink:href="#DejaVuSans-102"/>
      <use transform="translate(212.890625 0.015625)" xlink:href="#DejaVuSans-102"/>
      <use transform="translate(248.095703 0.015625)" xlink:href="#DejaVuSans-105"/>
      <use transform="translate(275.878906 0.015625)" xlink:href="#DejaVuSans-99"/>
      <use transform="translate(330.859375 0.015625)" xlink:href="#DejaVuSans-105"/>
      <use transform="translate(358.642578 0.015625)" xlink:href="#DejaVuSans-101"/>
      <use transform="translate(420.166016 0.015625)" xlink:href="#DejaVuSans-110"/>
      <use transform="translate(483.544922 0.015625)" xlink:href="#DejaVuSans-116"/>
      <use transform="translate(522.753906 0.015625)" xlink:href="#DejaVuSans-32"/>
      <use transform="translate(554.541016 0.015625)" xlink:href="#DejaVuSans-100"/>
      <use transform="translate(618.017578 0.015625)" xlink:href="#DejaVuSans-101"/>
      <use transform="translate(679.541016 0.015625)" xlink:href="#DejaVuSans-32"/>
      <use transform="translate(711.328125 0.015625)" xlink:href="#DejaVuSans-118"/>
      <use transform="translate(770.507812 0.015625)" xlink:href="#DejaVuSans-105"/>
      <use transform="translate(798.291016 0.015625)" xlink:href="#DejaVuSans-116"/>
      <use transform="translate(837.5 0.015625)" xlink:href="#DejaVuSans-101"/>
      <use transform="translate(899.023438 0.015625)" xlink:href="#DejaVuSans-115"/>
      <use transform="translate(951.123047 0.015625)" xlink:href="#DejaVuSans-115"/>
      <use transform="translate(1003.222656 0.015625)" xlink:href="#DejaVuSans-101"/>
      <use transform="translate(1064.746094 0.015625)" xlink:href="#DejaVuSans-32"/>
      <use transform="translate(1096.533203 0.015625)" xlink:href="#DejaVuSans-Oblique-67"/>
      <use transform="translate(1166.357422 -16.390625)scale(0.7)" xlink:href="#DejaVuSans-Oblique-86"/>
     </g>
    </g>
   </g>
   <g id="line2d_47">
    <path clip-path="url(#p6e8b9ab609)" d="M 420.098802 202.052291 
L 420.337689 190.01933 
L 420.815465 181.278312 
L 421.532128 172.995531 
L 422.24879 167.117807 
L 422.965453 162.75683 
L 423.682116 159.596321 
L 424.398779 157.485669 
L 424.876555 156.617222 
L 425.35433 156.157013 
L 425.832105 156.088559 
L 426.309881 156.396323 
L 426.787656 157.064721 
L 427.265431 158.077391 
L 427.982094 160.202626 
L 428.937645 164.058089 
L 430.132083 170.217472 
L 432.759847 185.039544 
L 433.237622 186.653214 
L 433.47651 187.111538 
L 433.715398 187.292565 
L 433.954285 187.179122 
L 434.193173 186.772658 
L 434.670948 185.169901 
L 435.387611 181.320498 
L 436.582049 173.059437 
L 439.209813 154.473672 
L 440.404252 147.486704 
L 441.359802 142.921261 
L 442.315353 139.387886 
L 443.032016 137.456229 
L 443.748679 136.154349 
L 444.226454 135.635473 
L 444.704229 135.390946 
L 445.182005 135.413107 
L 445.65978 135.691051 
L 446.137555 136.210474 
L 446.854218 137.402211 
L 447.809769 139.636997 
L 449.004207 143.118738 
L 450.915308 148.729546 
L 451.631971 150.285432 
L 452.348634 151.269625 
L 452.826409 151.539068 
L 453.304185 151.467486 
L 453.78196 151.044212 
L 454.259735 150.274354 
L 454.976398 148.516995 
L 455.931949 145.24326 
L 457.126387 140.186519 
L 459.754151 128.691547 
L 460.948589 124.557963 
L 461.90414 122.094452 
L 462.620803 120.804134 
L 463.337466 120.012733 
L 463.815241 119.762865 
L 464.293017 119.730423 
L 464.770792 119.907355 
L 465.248567 120.282065 
L 465.96523 121.180848 
L 466.920781 122.900341 
L 468.354107 126.159712 
L 470.02632 129.898108 
L 470.742983 131.10146 
L 471.459646 131.892142 
L 471.937421 132.143366 
L 472.415197 132.151054 
L 472.892972 131.904883 
L 473.370747 131.403463 
L 474.08741 130.191511 
L 474.804073 128.483406 
L 475.759624 125.596029 
L 477.431837 119.64189 
L 479.342938 113.073134 
L 480.298489 110.426854 
L 481.25404 108.417231 
L 481.970702 107.384161 
L 482.687365 106.778576 
L 483.165141 106.613016 
L 483.642916 106.633408 
L 484.120691 106.831968 
L 484.837354 107.438518 
L 485.554017 108.368388 
L 486.509568 109.992116 
L 489.615107 115.773194 
L 490.33177 116.605468 
L 491.048433 117.053218 
L 491.526208 117.107977 
L 492.003984 116.955178 
L 492.481759 116.591382 
L 493.198422 115.658968 
L 493.915085 114.298302 
L 494.870635 111.933864 
L 496.303961 107.644753 
L 498.45395 101.118661 
L 499.648388 98.209992 
L 500.603939 96.508407 
L 501.320602 95.655 
L 502.037265 95.182456 
L 502.51504 95.078956 
L 502.992816 95.139828 
L 503.709478 95.52137 
L 504.426141 96.214774 
L 505.381692 97.527687 
L 507.053906 100.399415 
L 508.487231 102.718396 
L 509.442782 103.808579 
L 510.159445 104.254982 
L 510.63722 104.344213 
L 511.114996 104.254538 
L 511.592771 103.981432 
L 512.309434 103.231456 
L 513.026097 102.09802 
L 513.981647 100.079756 
L 515.414973 96.325628 
L 518.042737 89.286282 
L 518.998288 87.294679 
L 519.953839 85.82331 
L 520.670501 85.106874 
L 521.387164 84.737597 
L 522.103827 84.712098 
L 522.82049 85.011262 
L 523.537153 85.600754 
L 524.492704 86.752458 
L 525.92603 88.946613 
L 527.598243 91.45769 
L 528.553794 92.489002 
L 529.270457 92.939308 
L 529.748232 93.056138 
L 530.226007 93.014232 
L 530.703783 92.808334 
L 531.420446 92.192163 
L 532.137109 91.224946 
L 533.092659 89.460916 
L 534.287097 86.701939 
L 537.631524 78.630597 
L 538.587075 76.967811 
L 539.303738 76.050385 
L 540.020401 75.444306 
L 540.737064 75.159351 
L 541.453727 75.190187 
L 542.17039 75.516593 
L 542.887053 76.104077 
L 543.842603 77.209413 
L 545.514817 79.605411 
L 546.948143 81.519166 
L 547.903693 82.410355 
L 548.620356 82.771359 
L 549.337019 82.820568 
L 550.053682 82.535046 
L 550.770345 81.912913 
L 551.487008 80.973374 
L 552.442559 79.295835 
L 553.636997 76.710893 
L 556.742536 69.729144 
L 557.698087 68.128891 
L 558.653637 66.991597 
L 559.3703 66.477855 
L 560.086963 66.264152 
L 560.803626 66.343243 
L 561.520289 66.693767 
L 562.236952 67.280967 
L 563.192503 68.349386 
L 566.775818 72.772118 
L 567.49248 73.235564 
L 568.209143 73.426917 
L 568.925806 73.316066 
L 569.642469 72.89144 
L 570.359132 72.160859 
L 571.314683 70.758983 
L 572.509121 68.476654 
L 572.986896 67.456383 
L 573.225784 65.557134 
L 574.897998 62.79949 
L 575.853548 61.592255 
L 576.570211 60.951502 
L 577.286874 60.573942 
L 578.003537 60.478049 
L 578.7202 60.668491 
L 579.436863 61.135987 
L 580.153526 61.8576 
L 581.109076 63.151401 
L 582.542402 65.554681 
L 584.692391 69.17606 
L 585.647942 70.379278 
L 586.364605 70.997535 
L 587.081268 71.329232 
L 587.797931 71.354046 
L 588.514593 71.070447 
L 589.231256 70.495836 
L 590.186807 69.339517 
L 591.381245 67.444976 
L 594.247897 62.620503 
L 595.203448 61.461895 
L 595.920111 60.865438 
L 596.636774 60.536397 
L 597.353436 60.490852 
L 598.070099 60.731019 
L 598.786762 61.245185 
L 599.742313 62.311428 
L 600.936751 64.116753 
L 604.520066 69.98159 
L 605.475616 70.918297 
L 606.192279 71.297001 
L 606.908942 71.370803 
L 607.625605 71.135163 
L 608.342268 70.604548 
L 609.058931 69.811255 
L 610.014482 68.428868 
L 611.925583 65.112261 
L 613.358909 62.78097 
L 614.314459 61.578615 
L 615.031122 60.942339 
L 615.747785 60.569708 
L 616.464448 60.47895 
L 617.181111 60.674483 
L 617.897774 61.146777 
L 618.614437 61.872657 
L 619.569988 63.17094 
L 621.003314 65.577501 
L 621.958864 67.26941 
L 622.197752 69.339078 
L 623.631078 73.850153 
L 624.825516 76.875952 
L 625.781067 78.699479 
L 626.736617 79.974943 
L 627.45328 80.599994 
L 628.169943 80.986987 
L 629.125494 81.235227 
L 631.753258 81.692659 
L 632.469921 82.113778 
L 633.186584 82.788401 
L 633.903247 83.767235 
L 634.61991 85.088205 
L 635.57546 87.421018 
L 636.531011 90.418868 
L 637.725449 95.047915 
L 639.158775 101.659224 
L 643.69764 123.601321 
L 644.653191 126.897335 
L 645.608741 129.355478 
L 646.325404 130.641336 
L 647.042067 131.492649 
L 647.75873 131.987623 
L 648.475393 132.233066 
L 650.625382 132.766384 
L 651.342045 133.322037 
L 652.058708 134.276062 
L 652.775371 135.741118 
L 653.492034 137.822589 
L 654.208697 140.623307 
L 654.92536 144.252608 
L 655.642023 148.843724 
L 656.358686 154.59058 
L 657.075348 161.840332 
L 657.792011 171.405218 
L 658.269787 180.316808 
L 658.508674 186.67151 
L 658.747562 202.052291 
L 658.747562 202.052291 
" style="fill:none;stroke:#1f77b4;stroke-linecap:square;stroke-width:1.5;"/>
   </g>
   <g id="line2d_48">
    <path clip-path="url(#p6e8b9ab609)" d="M 420.098802 202.052291 
L 573.078776 65.818613 
L 622.032368 65.818613 
L 658.747562 202.052291 
" style="fill:none;stroke:#000000;stroke-dasharray:1.48,0.64;stroke-dashoffset:0;stroke-width:0.4;"/>
   </g>
   <g id="line2d_49">
    <path clip-path="url(#p6e8b9ab609)" d="M 573.078776 202.052291 
L 573.078776 65.818613 
" style="fill:none;stroke:#ff0000;stroke-dasharray:2.22,0.96;stroke-dashoffset:0;stroke-width:0.6;"/>
   </g>
   <g id="line2d_50">
    <path clip-path="url(#p6e8b9ab609)" d="M 622.032368 202.052291 
L 622.032368 65.818613 
" style="fill:none;stroke:#ff0000;stroke-dasharray:2.22,0.96;stroke-dashoffset:0;stroke-width:0.6;"/>
   </g>
   <g id="patch_8">
    <path d="M 408.166364 209.1312 
L 408.166364 53.3952 
" style="fill:none;stroke:#000000;stroke-linecap:square;stroke-linejoin:miter;stroke-width:0.8;"/>
   </g>
   <g id="patch_9">
    <path d="M 670.68 209.1312 
L 670.68 53.3952 
" style="fill:none;stroke:#000000;stroke-linecap:square;stroke-linejoin:miter;stroke-width:0.8;"/>
   </g>
   <g id="patch_10">
    <path d="M 408.166364 209.1312 
L 670.68 209.1312 
" style="fill:none;stroke:#000000;stroke-linecap:square;stroke-linejoin:miter;stroke-width:0.8;"/>
   </g>
   <g id="patch_11">
    <path d="M 408.166364 53.3952 
L 670.68 53.3952 
" style="fill:none;stroke:#000000;stroke-linecap:square;stroke-linejoin:miter;stroke-width:0.8;"/>
   </g>
  </g>
  <g id="axes_3">
   <g id="patch_12">
    <path d="M 93.15 396.0144 
L 355.663636 396.0144 
L 355.663636 240.2784 
L 93.15 240.2784 
z
" style="fill:#ffffff;"/>
   </g>
   <g id="matplotlib.axis_5">
    <g id="xtick_11">
     <g id="line2d_51">
      <path clip-path="url(#p41e6e35a33)" d="M 105.082438 396.0144 
L 105.082438 240.2784 
" style="fill:none;stroke:#b0b0b0;stroke-linecap:square;stroke-width:0.8;"/>
     </g>
     <g id="line2d_52">
      <g>
       <use style="stroke:#000000;stroke-width:0.8;" x="105.082438" xlink:href="#m23ff4b1c79" y="396.0144"/>
      </g>
     </g>
     <g id="text_25">
      <!-- 0 -->
      <g transform="translate(101.901188 410.612838)scale(0.1 -0.1)">
       <use xlink:href="#DejaVuSans-48"/>
      </g>
     </g>
    </g>
    <g id="xtick_12">
     <g id="line2d_53">
      <path clip-path="url(#p41e6e35a33)" d="M 166.274428 396.0144 
L 166.274428 240.2784 
" style="fill:none;stroke:#b0b0b0;stroke-linecap:square;stroke-width:0.8;"/>
     </g>
     <g id="line2d_54">
      <g>
       <use style="stroke:#000000;stroke-width:0.8;" x="166.274428" xlink:href="#m23ff4b1c79" y="396.0144"/>
      </g>
     </g>
     <g id="text_26">
      <!-- 10 -->
      <g transform="translate(159.911928 410.612838)scale(0.1 -0.1)">
       <use xlink:href="#DejaVuSans-49"/>
       <use x="63.623047" xlink:href="#DejaVuSans-48"/>
      </g>
     </g>
    </g>
    <g id="xtick_13">
     <g id="line2d_55">
      <path clip-path="url(#p41e6e35a33)" d="M 227.466418 396.0144 
L 227.466418 240.2784 
" style="fill:none;stroke:#b0b0b0;stroke-linecap:square;stroke-width:0.8;"/>
     </g>
     <g id="line2d_56">
      <g>
       <use style="stroke:#000000;stroke-width:0.8;" x="227.466418" xlink:href="#m23ff4b1c79" y="396.0144"/>
      </g>
     </g>
     <g id="text_27">
      <!-- 20 -->
      <g transform="translate(221.103918 410.612838)scale(0.1 -0.1)">
       <use xlink:href="#DejaVuSans-50"/>
       <use x="63.623047" xlink:href="#DejaVuSans-48"/>
      </g>
     </g>
    </g>
    <g id="xtick_14">
     <g id="line2d_57">
      <path clip-path="url(#p41e6e35a33)" d="M 288.658408 396.0144 
L 288.658408 240.2784 
" style="fill:none;stroke:#b0b0b0;stroke-linecap:square;stroke-width:0.8;"/>
     </g>
     <g id="line2d_58">
      <g>
       <use style="stroke:#000000;stroke-width:0.8;" x="288.658408" xlink:href="#m23ff4b1c79" y="396.0144"/>
      </g>
     </g>
     <g id="text_28">
      <!-- 30 -->
      <g transform="translate(282.295908 410.612838)scale(0.1 -0.1)">
       <use xlink:href="#DejaVuSans-51"/>
       <use x="63.623047" xlink:href="#DejaVuSans-48"/>
      </g>
     </g>
    </g>
    <g id="xtick_15">
     <g id="line2d_59">
      <path clip-path="url(#p41e6e35a33)" d="M 349.850397 396.0144 
L 349.850397 240.2784 
" style="fill:none;stroke:#b0b0b0;stroke-linecap:square;stroke-width:0.8;"/>
     </g>
     <g id="line2d_60">
      <g>
       <use style="stroke:#000000;stroke-width:0.8;" x="349.850397" xlink:href="#m23ff4b1c79" y="396.0144"/>
      </g>
     </g>
     <g id="text_29">
      <!-- 40 -->
      <g transform="translate(343.487897 410.612838)scale(0.1 -0.1)">
       <use xlink:href="#DejaVuSans-52"/>
       <use x="63.623047" xlink:href="#DejaVuSans-48"/>
      </g>
     </g>
    </g>
    <g id="text_30">
     <!-- $time (s)$ -->
     <g transform="translate(206.556818 424.290962)scale(0.1 -0.1)">
      <use transform="translate(0 0.015625)" xlink:href="#DejaVuSans-Oblique-116"/>
      <use transform="translate(39.208984 0.015625)" xlink:href="#DejaVuSans-Oblique-105"/>
      <use transform="translate(66.992188 0.015625)" xlink:href="#DejaVuSans-Oblique-109"/>
      <use transform="translate(164.404297 0.015625)" xlink:href="#DejaVuSans-Oblique-101"/>
      <use transform="translate(225.927734 0.015625)" xlink:href="#DejaVuSans-40"/>
      <use transform="translate(264.941406 0.015625)" xlink:href="#DejaVuSans-Oblique-115"/>
      <use transform="translate(317.041016 0.015625)" xlink:href="#DejaVuSans-41"/>
     </g>
    </g>
   </g>
   <g id="matplotlib.axis_6">
    <g id="ytick_12">
     <g id="line2d_61">
      <path clip-path="url(#p41e6e35a33)" d="M 93.15 388.935491 
L 355.663636 388.935491 
" style="fill:none;stroke:#b0b0b0;stroke-linecap:square;stroke-width:0.8;"/>
     </g>
     <g id="line2d_62">
      <g>
       <use style="stroke:#000000;stroke-width:0.8;" x="93.15" xlink:href="#m56976888fc" y="388.935491"/>
      </g>
     </g>
     <g id="text_31">
      <!-- 0 -->
      <g transform="translate(79.7875 392.73471)scale(0.1 -0.1)">
       <use xlink:href="#DejaVuSans-48"/>
      </g>
     </g>
    </g>
    <g id="ytick_13">
     <g id="line2d_63">
      <path clip-path="url(#p41e6e35a33)" d="M 93.15 353.540945 
L 355.663636 353.540945 
" style="fill:none;stroke:#b0b0b0;stroke-linecap:square;stroke-width:0.8;"/>
     </g>
     <g id="line2d_64">
      <g>
       <use style="stroke:#000000;stroke-width:0.8;" x="93.15" xlink:href="#m56976888fc" y="353.540945"/>
      </g>
     </g>
     <g id="text_32">
      <!-- 200 -->
      <g transform="translate(67.0625 357.340164)scale(0.1 -0.1)">
       <use xlink:href="#DejaVuSans-50"/>
       <use x="63.623047" xlink:href="#DejaVuSans-48"/>
       <use x="127.246094" xlink:href="#DejaVuSans-48"/>
      </g>
     </g>
    </g>
    <g id="ytick_14">
     <g id="line2d_65">
      <path clip-path="url(#p41e6e35a33)" d="M 93.15 318.1464 
L 355.663636 318.1464 
" style="fill:none;stroke:#b0b0b0;stroke-linecap:square;stroke-width:0.8;"/>
     </g>
     <g id="line2d_66">
      <g>
       <use style="stroke:#000000;stroke-width:0.8;" x="93.15" xlink:href="#m56976888fc" y="318.1464"/>
      </g>
     </g>
     <g id="text_33">
      <!-- 400 -->
      <g transform="translate(67.0625 321.945619)scale(0.1 -0.1)">
       <use xlink:href="#DejaVuSans-52"/>
       <use x="63.623047" xlink:href="#DejaVuSans-48"/>
       <use x="127.246094" xlink:href="#DejaVuSans-48"/>
      </g>
     </g>
    </g>
    <g id="ytick_15">
     <g id="line2d_67">
      <path clip-path="url(#p41e6e35a33)" d="M 93.15 282.751855 
L 355.663636 282.751855 
" style="fill:none;stroke:#b0b0b0;stroke-linecap:square;stroke-width:0.8;"/>
     </g>
     <g id="line2d_68">
      <g>
       <use style="stroke:#000000;stroke-width:0.8;" x="93.15" xlink:href="#m56976888fc" y="282.751855"/>
      </g>
     </g>
     <g id="text_34">
      <!-- 600 -->
      <defs>
       <path d="M 33.015625 40.375 
Q 26.375 40.375 22.484375 35.828125 
Q 18.609375 31.296875 18.609375 23.390625 
Q 18.609375 15.53125 22.484375 10.953125 
Q 26.375 6.390625 33.015625 6.390625 
Q 39.65625 6.390625 43.53125 10.953125 
Q 47.40625 15.53125 47.40625 23.390625 
Q 47.40625 31.296875 43.53125 35.828125 
Q 39.65625 40.375 33.015625 40.375 
z
M 52.59375 71.296875 
L 52.59375 62.3125 
Q 48.875 64.0625 45.09375 64.984375 
Q 41.3125 65.921875 37.59375 65.921875 
Q 27.828125 65.921875 22.671875 59.328125 
Q 17.53125 52.734375 16.796875 39.40625 
Q 19.671875 43.65625 24.015625 45.921875 
Q 28.375 48.1875 33.59375 48.1875 
Q 44.578125 48.1875 50.953125 41.515625 
Q 57.328125 34.859375 57.328125 23.390625 
Q 57.328125 12.15625 50.6875 5.359375 
Q 44.046875 -1.421875 33.015625 -1.421875 
Q 20.359375 -1.421875 13.671875 8.265625 
Q 6.984375 17.96875 6.984375 36.375 
Q 6.984375 53.65625 15.1875 63.9375 
Q 23.390625 74.21875 37.203125 74.21875 
Q 40.921875 74.21875 44.703125 73.484375 
Q 48.484375 72.75 52.59375 71.296875 
z
" id="DejaVuSans-54"/>
      </defs>
      <g transform="translate(67.0625 286.551073)scale(0.1 -0.1)">
       <use xlink:href="#DejaVuSans-54"/>
       <use x="63.623047" xlink:href="#DejaVuSans-48"/>
       <use x="127.246094" xlink:href="#DejaVuSans-48"/>
      </g>
     </g>
    </g>
    <g id="ytick_16">
     <g id="line2d_69">
      <path clip-path="url(#p41e6e35a33)" d="M 93.15 247.357309 
L 355.663636 247.357309 
" style="fill:none;stroke:#b0b0b0;stroke-linecap:square;stroke-width:0.8;"/>
     </g>
     <g id="line2d_70">
      <g>
       <use style="stroke:#000000;stroke-width:0.8;" x="93.15" xlink:href="#m56976888fc" y="247.357309"/>
      </g>
     </g>
     <g id="text_35">
      <!-- 800 -->
      <defs>
       <path d="M 31.78125 34.625 
Q 24.75 34.625 20.71875 30.859375 
Q 16.703125 27.09375 16.703125 20.515625 
Q 16.703125 13.921875 20.71875 10.15625 
Q 24.75 6.390625 31.78125 6.390625 
Q 38.8125 6.390625 42.859375 10.171875 
Q 46.921875 13.96875 46.921875 20.515625 
Q 46.921875 27.09375 42.890625 30.859375 
Q 38.875 34.625 31.78125 34.625 
z
M 21.921875 38.8125 
Q 15.578125 40.375 12.03125 44.71875 
Q 8.5 49.078125 8.5 55.328125 
Q 8.5 64.0625 14.71875 69.140625 
Q 20.953125 74.21875 31.78125 74.21875 
Q 42.671875 74.21875 48.875 69.140625 
Q 55.078125 64.0625 55.078125 55.328125 
Q 55.078125 49.078125 51.53125 44.71875 
Q 48 40.375 41.703125 38.8125 
Q 48.828125 37.15625 52.796875 32.3125 
Q 56.78125 27.484375 56.78125 20.515625 
Q 56.78125 9.90625 50.3125 4.234375 
Q 43.84375 -1.421875 31.78125 -1.421875 
Q 19.734375 -1.421875 13.25 4.234375 
Q 6.78125 9.90625 6.78125 20.515625 
Q 6.78125 27.484375 10.78125 32.3125 
Q 14.796875 37.15625 21.921875 38.8125 
z
M 18.3125 54.390625 
Q 18.3125 48.734375 21.84375 45.5625 
Q 25.390625 42.390625 31.78125 42.390625 
Q 38.140625 42.390625 41.71875 45.5625 
Q 45.3125 48.734375 45.3125 54.390625 
Q 45.3125 60.0625 41.71875 63.234375 
Q 38.140625 66.40625 31.78125 66.40625 
Q 25.390625 66.40625 21.84375 63.234375 
Q 18.3125 60.0625 18.3125 54.390625 
z
" id="DejaVuSans-56"/>
      </defs>
      <g transform="translate(67.0625 251.156528)scale(0.1 -0.1)">
       <use xlink:href="#DejaVuSans-56"/>
       <use x="63.623047" xlink:href="#DejaVuSans-48"/>
       <use x="127.246094" xlink:href="#DejaVuSans-48"/>
      </g>
     </g>
    </g>
    <g id="text_36">
     <!-- $X (m)$ -->
     <defs>
      <path d="M 13.71875 72.90625 
L 23.6875 72.90625 
L 36.1875 46.578125 
L 58.796875 72.90625 
L 70.3125 72.90625 
L 40.28125 38.09375 
L 58.40625 0 
L 48.484375 0 
L 33.796875 30.71875 
L 7.171875 0 
L -4.296875 0 
L 29.78125 39.203125 
z
" id="DejaVuSans-Oblique-88"/>
     </defs>
     <g transform="translate(60.982812 330.3464)rotate(-90)scale(0.1 -0.1)">
      <use transform="translate(0 0.125)" xlink:href="#DejaVuSans-Oblique-88"/>
      <use transform="translate(68.505859 0.125)" xlink:href="#DejaVuSans-40"/>
      <use transform="translate(107.519531 0.125)" xlink:href="#DejaVuSans-Oblique-109"/>
      <use transform="translate(204.931641 0.125)" xlink:href="#DejaVuSans-41"/>
     </g>
    </g>
   </g>
   <g id="line2d_71">
    <path clip-path="url(#p41e6e35a33)" d="M 105.082438 388.935491 
L 106.515764 388.770137 
L 108.90464 388.242675 
L 115.832382 386.56942 
L 118.460146 386.253445 
L 121.804573 385.849404 
L 124.19345 385.29399 
L 126.821214 384.442123 
L 132.076742 382.417583 
L 135.898945 381.088915 
L 143.304462 378.66922 
L 146.410001 377.32007 
L 157.398833 372.302607 
L 161.937698 370.320626 
L 165.521013 368.482787 
L 177.465395 362.079586 
L 182.004261 359.661169 
L 186.065351 357.211992 
L 194.426418 352.086262 
L 201.35416 347.954366 
L 205.893025 344.908747 
L 213.53743 339.744927 
L 220.942947 334.834813 
L 225.959588 331.150973 
L 232.88733 326.087684 
L 240.292847 320.735263 
L 245.787263 316.395255 
L 252.715004 310.984647 
L 259.403859 305.772848 
L 273.020455 294.750808 
L 279.231533 289.817088 
L 290.937028 280.299836 
L 298.342545 274.449816 
L 309.331377 265.526864 
L 315.303568 261.216395 
L 321.992422 256.575143 
L 325.097962 254.684568 
L 327.964614 253.189568 
L 331.547928 251.596322 
L 339.192333 248.511435 
L 341.820097 247.682497 
L 343.492311 247.371777 
L 343.731198 247.357309 
L 343.731198 247.357309 
" style="fill:none;stroke:#1f77b4;stroke-linecap:square;stroke-width:1.5;"/>
   </g>
   <g id="line2d_72">
    <path clip-path="url(#p41e6e35a33)" d="M 258.062413 388.935491 
L 258.062413 306.861353 
" style="fill:none;stroke:#ff0000;stroke-dasharray:2.22,0.96;stroke-dashoffset:0;stroke-width:0.6;"/>
   </g>
   <g id="line2d_73">
    <path clip-path="url(#p41e6e35a33)" d="M 307.016004 388.935491 
L 307.016004 267.298936 
" style="fill:none;stroke:#ff0000;stroke-dasharray:2.22,0.96;stroke-dashoffset:0;stroke-width:0.6;"/>
   </g>
   <g id="line2d_74">
    <path clip-path="url(#p41e6e35a33)" d="M 343.731198 388.935491 
L 343.731198 247.357309 
" style="fill:none;stroke:#ff0000;stroke-dasharray:2.22,0.96;stroke-dashoffset:0;stroke-width:0.6;"/>
   </g>
   <g id="patch_13">
    <path d="M 93.15 396.0144 
L 93.15 240.2784 
" style="fill:none;stroke:#000000;stroke-linecap:square;stroke-linejoin:miter;stroke-width:0.8;"/>
   </g>
   <g id="patch_14">
    <path d="M 355.663636 396.0144 
L 355.663636 240.2784 
" style="fill:none;stroke:#000000;stroke-linecap:square;stroke-linejoin:miter;stroke-width:0.8;"/>
   </g>
   <g id="patch_15">
    <path d="M 93.15 396.0144 
L 355.663636 396.0144 
" style="fill:none;stroke:#000000;stroke-linecap:square;stroke-linejoin:miter;stroke-width:0.8;"/>
   </g>
   <g id="patch_16">
    <path d="M 93.15 240.2784 
L 355.663636 240.2784 
" style="fill:none;stroke:#000000;stroke-linecap:square;stroke-linejoin:miter;stroke-width:0.8;"/>
   </g>
  </g>
  <g id="axes_4">
   <g id="matplotlib.axis_7"/>
   <g id="matplotlib.axis_8"/>
   <g id="text_37">
    <g clip-path="url(#pc306d4dd2a)">
     <!-- Oprateur : Turquoise  -->
     <defs>
      <path d="M 39.40625 66.21875 
Q 28.65625 66.21875 22.328125 58.203125 
Q 16.015625 50.203125 16.015625 36.375 
Q 16.015625 22.609375 22.328125 14.59375 
Q 28.65625 6.59375 39.40625 6.59375 
Q 50.140625 6.59375 56.421875 14.59375 
Q 62.703125 22.609375 62.703125 36.375 
Q 62.703125 50.203125 56.421875 58.203125 
Q 50.140625 66.21875 39.40625 66.21875 
z
M 39.40625 74.21875 
Q 54.734375 74.21875 63.90625 63.9375 
Q 73.09375 53.65625 73.09375 36.375 
Q 73.09375 19.140625 63.90625 8.859375 
Q 54.734375 -1.421875 39.40625 -1.421875 
Q 24.03125 -1.421875 14.8125 8.828125 
Q 5.609375 19.09375 5.609375 36.375 
Q 5.609375 53.65625 14.8125 63.9375 
Q 24.03125 74.21875 39.40625 74.21875 
z
" id="DejaVuSans-79"/>
      <path d="M 18.109375 8.203125 
L 18.109375 -20.796875 
L 9.078125 -20.796875 
L 9.078125 54.6875 
L 18.109375 54.6875 
L 18.109375 46.390625 
Q 20.953125 51.265625 25.265625 53.625 
Q 29.59375 56 35.59375 56 
Q 45.5625 56 51.78125 48.09375 
Q 58.015625 40.1875 58.015625 27.296875 
Q 58.015625 14.40625 51.78125 6.484375 
Q 45.5625 -1.421875 35.59375 -1.421875 
Q 29.59375 -1.421875 25.265625 0.953125 
Q 20.953125 3.328125 18.109375 8.203125 
z
M 48.6875 27.296875 
Q 48.6875 37.203125 44.609375 42.84375 
Q 40.53125 48.484375 33.40625 48.484375 
Q 26.265625 48.484375 22.1875 42.84375 
Q 18.109375 37.203125 18.109375 27.296875 
Q 18.109375 17.390625 22.1875 11.75 
Q 26.265625 6.109375 33.40625 6.109375 
Q 40.53125 6.109375 44.609375 11.75 
Q 48.6875 17.390625 48.6875 27.296875 
z
" id="DejaVuSans-112"/>
      <path d="M 56.203125 29.59375 
L 56.203125 25.203125 
L 14.890625 25.203125 
Q 15.484375 15.921875 20.484375 11.0625 
Q 25.484375 6.203125 34.421875 6.203125 
Q 39.59375 6.203125 44.453125 7.46875 
Q 49.3125 8.734375 54.109375 11.28125 
L 54.109375 2.78125 
Q 49.265625 0.734375 44.1875 -0.34375 
Q 39.109375 -1.421875 33.890625 -1.421875 
Q 20.796875 -1.421875 13.15625 6.1875 
Q 5.515625 13.8125 5.515625 26.8125 
Q 5.515625 40.234375 12.765625 48.109375 
Q 20.015625 56 32.328125 56 
Q 43.359375 56 49.78125 48.890625 
Q 56.203125 41.796875 56.203125 29.59375 
z
M 47.21875 32.234375 
Q 47.125 39.59375 43.09375 43.984375 
Q 39.0625 48.390625 32.421875 48.390625 
Q 24.90625 48.390625 20.390625 44.140625 
Q 15.875 39.890625 15.1875 32.171875 
z
M 38.578125 79.984375 
L 48.296875 79.984375 
L 32.375 61.625 
L 24.90625 61.625 
z
" id="DejaVuSans-233"/>
      <path d="M 41.109375 46.296875 
Q 39.59375 47.171875 37.8125 47.578125 
Q 36.03125 48 33.890625 48 
Q 26.265625 48 22.1875 43.046875 
Q 18.109375 38.09375 18.109375 28.8125 
L 18.109375 0 
L 9.078125 0 
L 9.078125 54.6875 
L 18.109375 54.6875 
L 18.109375 46.1875 
Q 20.953125 51.171875 25.484375 53.578125 
Q 30.03125 56 36.53125 56 
Q 37.453125 56 38.578125 55.875 
Q 39.703125 55.765625 41.0625 55.515625 
z
" id="DejaVuSans-114"/>
      <path d="M 34.28125 27.484375 
Q 23.390625 27.484375 19.1875 25 
Q 14.984375 22.515625 14.984375 16.5 
Q 14.984375 11.71875 18.140625 8.90625 
Q 21.296875 6.109375 26.703125 6.109375 
Q 34.1875 6.109375 38.703125 11.40625 
Q 43.21875 16.703125 43.21875 25.484375 
L 43.21875 27.484375 
z
M 52.203125 31.203125 
L 52.203125 0 
L 43.21875 0 
L 43.21875 8.296875 
Q 40.140625 3.328125 35.546875 0.953125 
Q 30.953125 -1.421875 24.3125 -1.421875 
Q 15.921875 -1.421875 10.953125 3.296875 
Q 6 8.015625 6 15.921875 
Q 6 25.140625 12.171875 29.828125 
Q 18.359375 34.515625 30.609375 34.515625 
L 43.21875 34.515625 
L 43.21875 35.40625 
Q 43.21875 41.609375 39.140625 45 
Q 35.0625 48.390625 27.6875 48.390625 
Q 23 48.390625 18.546875 47.265625 
Q 14.109375 46.140625 10.015625 43.890625 
L 10.015625 52.203125 
Q 14.9375 54.109375 19.578125 55.046875 
Q 24.21875 56 28.609375 56 
Q 40.484375 56 46.34375 49.84375 
Q 52.203125 43.703125 52.203125 31.203125 
z
" id="DejaVuSans-97"/>
      <path d="M 8.5 21.578125 
L 8.5 54.6875 
L 17.484375 54.6875 
L 17.484375 21.921875 
Q 17.484375 14.15625 20.5 10.265625 
Q 23.53125 6.390625 29.59375 6.390625 
Q 36.859375 6.390625 41.078125 11.03125 
Q 45.3125 15.671875 45.3125 23.6875 
L 45.3125 54.6875 
L 54.296875 54.6875 
L 54.296875 0 
L 45.3125 0 
L 45.3125 8.40625 
Q 42.046875 3.421875 37.71875 1 
Q 33.40625 -1.421875 27.6875 -1.421875 
Q 18.265625 -1.421875 13.375 4.4375 
Q 8.5 10.296875 8.5 21.578125 
z
M 31.109375 56 
z
" id="DejaVuSans-117"/>
      <path d="M 11.71875 12.40625 
L 22.015625 12.40625 
L 22.015625 0 
L 11.71875 0 
z
M 11.71875 51.703125 
L 22.015625 51.703125 
L 22.015625 39.3125 
L 11.71875 39.3125 
z
" id="DejaVuSans-58"/>
      <path d="M -0.296875 72.90625 
L 61.375 72.90625 
L 61.375 64.59375 
L 35.5 64.59375 
L 35.5 0 
L 25.59375 0 
L 25.59375 64.59375 
L -0.296875 64.59375 
z
" id="DejaVuSans-84"/>
      <path d="M 14.796875 27.296875 
Q 14.796875 17.390625 18.875 11.75 
Q 22.953125 6.109375 30.078125 6.109375 
Q 37.203125 6.109375 41.296875 11.75 
Q 45.40625 17.390625 45.40625 27.296875 
Q 45.40625 37.203125 41.296875 42.84375 
Q 37.203125 48.484375 30.078125 48.484375 
Q 22.953125 48.484375 18.875 42.84375 
Q 14.796875 37.203125 14.796875 27.296875 
z
M 45.40625 8.203125 
Q 42.578125 3.328125 38.25 0.953125 
Q 33.9375 -1.421875 27.875 -1.421875 
Q 17.96875 -1.421875 11.734375 6.484375 
Q 5.515625 14.40625 5.515625 27.296875 
Q 5.515625 40.1875 11.734375 48.09375 
Q 17.96875 56 27.875 56 
Q 33.9375 56 38.25 53.625 
Q 42.578125 51.265625 45.40625 46.390625 
L 45.40625 54.6875 
L 54.390625 54.6875 
L 54.390625 -20.796875 
L 45.40625 -20.796875 
z
" id="DejaVuSans-113"/>
     </defs>
     <g transform="translate(416.041773 293.56335)scale(0.12 -0.12)">
      <use xlink:href="#DejaVuSans-79"/>
      <use x="78.710938" xlink:href="#DejaVuSans-112"/>
      <use x="142.1875" xlink:href="#DejaVuSans-233"/>
      <use x="203.710938" xlink:href="#DejaVuSans-114"/>
      <use x="244.824219" xlink:href="#DejaVuSans-97"/>
      <use x="306.103516" xlink:href="#DejaVuSans-116"/>
      <use x="345.3125" xlink:href="#DejaVuSans-101"/>
      <use x="406.835938" xlink:href="#DejaVuSans-117"/>
      <use x="470.214844" xlink:href="#DejaVuSans-114"/>
      <use x="511.328125" xlink:href="#DejaVuSans-32"/>
      <use x="543.115234" xlink:href="#DejaVuSans-58"/>
      <use x="576.806641" xlink:href="#DejaVuSans-32"/>
      <use x="608.59375" xlink:href="#DejaVuSans-84"/>
      <use x="669.443359" xlink:href="#DejaVuSans-117"/>
      <use x="732.822266" xlink:href="#DejaVuSans-114"/>
      <use x="773.919922" xlink:href="#DejaVuSans-113"/>
      <use x="837.396484" xlink:href="#DejaVuSans-117"/>
      <use x="900.775391" xlink:href="#DejaVuSans-111"/>
      <use x="961.957031" xlink:href="#DejaVuSans-105"/>
      <use x="989.740234" xlink:href="#DejaVuSans-115"/>
      <use x="1041.839844" xlink:href="#DejaVuSans-101"/>
      <use x="1103.363281" xlink:href="#DejaVuSans-32"/>
     </g>
    </g>
    <g clip-path="url(#pc306d4dd2a)">
     <!-- Modle : Supair Sora 2  -->
     <defs>
      <path d="M 9.8125 72.90625 
L 24.515625 72.90625 
L 43.109375 23.296875 
L 61.8125 72.90625 
L 76.515625 72.90625 
L 76.515625 0 
L 66.890625 0 
L 66.890625 64.015625 
L 48.09375 14.015625 
L 38.1875 14.015625 
L 19.390625 64.015625 
L 19.390625 0 
L 9.8125 0 
z
" id="DejaVuSans-77"/>
      <path d="M 56.203125 29.59375 
L 56.203125 25.203125 
L 14.890625 25.203125 
Q 15.484375 15.921875 20.484375 11.0625 
Q 25.484375 6.203125 34.421875 6.203125 
Q 39.59375 6.203125 44.453125 7.46875 
Q 49.3125 8.734375 54.109375 11.28125 
L 54.109375 2.78125 
Q 49.265625 0.734375 44.1875 -0.34375 
Q 39.109375 -1.421875 33.890625 -1.421875 
Q 20.796875 -1.421875 13.15625 6.1875 
Q 5.515625 13.8125 5.515625 26.8125 
Q 5.515625 40.234375 12.765625 48.109375 
Q 20.015625 56 32.328125 56 
Q 43.359375 56 49.78125 48.890625 
Q 56.203125 41.796875 56.203125 29.59375 
z
M 47.21875 32.234375 
Q 47.125 39.59375 43.09375 43.984375 
Q 39.0625 48.390625 32.421875 48.390625 
Q 24.90625 48.390625 20.390625 44.140625 
Q 15.875 39.890625 15.1875 32.171875 
z
M 24.703125 79.984375 
L 38.484375 61.71875 
L 31 61.71875 
L 15.09375 79.984375 
z
" id="DejaVuSans-232"/>
      <path d="M 9.421875 75.984375 
L 18.40625 75.984375 
L 18.40625 0 
L 9.421875 0 
z
" id="DejaVuSans-108"/>
      <path d="M 53.515625 70.515625 
L 53.515625 60.890625 
Q 47.90625 63.578125 42.921875 64.890625 
Q 37.9375 66.21875 33.296875 66.21875 
Q 25.25 66.21875 20.875 63.09375 
Q 16.5 59.96875 16.5 54.203125 
Q 16.5 49.359375 19.40625 46.890625 
Q 22.3125 44.4375 30.421875 42.921875 
L 36.375 41.703125 
Q 47.40625 39.59375 52.65625 34.296875 
Q 57.90625 29 57.90625 20.125 
Q 57.90625 9.515625 50.796875 4.046875 
Q 43.703125 -1.421875 29.984375 -1.421875 
Q 24.8125 -1.421875 18.96875 -0.25 
Q 13.140625 0.921875 6.890625 3.21875 
L 6.890625 13.375 
Q 12.890625 10.015625 18.65625 8.296875 
Q 24.421875 6.59375 29.984375 6.59375 
Q 38.421875 6.59375 43.015625 9.90625 
Q 47.609375 13.234375 47.609375 19.390625 
Q 47.609375 24.75 44.3125 27.78125 
Q 41.015625 30.8125 33.5 32.328125 
L 27.484375 33.5 
Q 16.453125 35.6875 11.515625 40.375 
Q 6.59375 45.0625 6.59375 53.421875 
Q 6.59375 63.09375 13.40625 68.65625 
Q 20.21875 74.21875 32.171875 74.21875 
Q 37.3125 74.21875 42.625 73.28125 
Q 47.953125 72.359375 53.515625 70.515625 
z
" id="DejaVuSans-83"/>
     </defs>
     <g transform="translate(416.041773 307.576725)scale(0.12 -0.12)">
      <use xlink:href="#DejaVuSans-77"/>
      <use x="86.279297" xlink:href="#DejaVuSans-111"/>
      <use x="147.460938" xlink:href="#DejaVuSans-100"/>
      <use x="210.9375" xlink:href="#DejaVuSans-232"/>
      <use x="272.460938" xlink:href="#DejaVuSans-108"/>
      <use x="300.244141" xlink:href="#DejaVuSans-101"/>
      <use x="361.767578" xlink:href="#DejaVuSans-32"/>
      <use x="393.554688" xlink:href="#DejaVuSans-58"/>
      <use x="427.246094" xlink:href="#DejaVuSans-32"/>
      <use x="459.033203" xlink:href="#DejaVuSans-83"/>
      <use x="522.509766" xlink:href="#DejaVuSans-117"/>
      <use x="585.888672" xlink:href="#DejaVuSans-112"/>
      <use x="649.365234" xlink:href="#DejaVuSans-97"/>
      <use x="710.644531" xlink:href="#DejaVuSans-105"/>
      <use x="738.427734" xlink:href="#DejaVuSans-114"/>
      <use x="779.541016" xlink:href="#DejaVuSans-32"/>
      <use x="811.328125" xlink:href="#DejaVuSans-83"/>
      <use x="874.804688" xlink:href="#DejaVuSans-111"/>
      <use x="935.986328" xlink:href="#DejaVuSans-114"/>
      <use x="977.099609" xlink:href="#DejaVuSans-97"/>
      <use x="1038.378906" xlink:href="#DejaVuSans-32"/>
      <use x="1070.166016" xlink:href="#DejaVuSans-50"/>
      <use x="1133.789062" xlink:href="#DejaVuSans-32"/>
     </g>
    </g>
    <g clip-path="url(#pc306d4dd2a)">
     <!-- $F_{max}$ : 17360.6 $N$ -->
     <defs>
      <path d="M 16.890625 72.90625 
L 58.6875 72.90625 
L 57.078125 64.59375 
L 25.09375 64.59375 
L 20.90625 43.109375 
L 49.8125 43.109375 
L 48.1875 34.8125 
L 19.28125 34.8125 
L 12.5 0 
L 2.6875 0 
z
" id="DejaVuSans-Oblique-70"/>
      <path d="M 53.71875 31.203125 
L 47.609375 0 
L 38.625 0 
L 40.28125 8.296875 
Q 36.328125 3.421875 31.265625 1 
Q 26.21875 -1.421875 20.015625 -1.421875 
Q 13.03125 -1.421875 8.5625 2.84375 
Q 4.109375 7.125 4.109375 13.8125 
Q 4.109375 23.390625 11.75 28.953125 
Q 19.390625 34.515625 32.8125 34.515625 
L 45.3125 34.515625 
L 45.796875 36.921875 
Q 45.90625 37.3125 45.953125 37.765625 
Q 46 38.234375 46 39.203125 
Q 46 43.5625 42.453125 45.96875 
Q 38.921875 48.390625 32.515625 48.390625 
Q 28.125 48.390625 23.5 47.265625 
Q 18.890625 46.140625 14.015625 43.890625 
L 15.578125 52.203125 
Q 20.65625 54.109375 25.515625 55.046875 
Q 30.375 56 34.90625 56 
Q 44.578125 56 49.625 51.796875 
Q 54.6875 47.609375 54.6875 39.59375 
Q 54.6875 37.984375 54.4375 35.8125 
Q 54.203125 33.640625 53.71875 31.203125 
z
M 44 27.484375 
L 35.015625 27.484375 
Q 23.96875 27.484375 18.671875 24.53125 
Q 13.375 21.578125 13.375 15.375 
Q 13.375 11.078125 16.078125 8.640625 
Q 18.796875 6.203125 23.578125 6.203125 
Q 30.90625 6.203125 36.375 11.453125 
Q 41.84375 16.703125 43.609375 25.484375 
z
" id="DejaVuSans-Oblique-97"/>
      <path d="M 60.015625 54.6875 
L 34.90625 27.875 
L 50.296875 0 
L 39.984375 0 
L 28.421875 21.6875 
L 8.296875 0 
L -2.59375 0 
L 24.3125 28.8125 
L 10.015625 54.6875 
L 20.3125 54.6875 
L 30.8125 34.90625 
L 49.125 54.6875 
z
" id="DejaVuSans-Oblique-120"/>
      <path d="M 8.203125 72.90625 
L 55.078125 72.90625 
L 55.078125 68.703125 
L 28.609375 0 
L 18.3125 0 
L 43.21875 64.59375 
L 8.203125 64.59375 
z
" id="DejaVuSans-55"/>
      <path d="M 10.6875 12.40625 
L 21 12.40625 
L 21 0 
L 10.6875 0 
z
" id="DejaVuSans-46"/>
     </defs>
     <g transform="translate(416.041773 321.0141)scale(0.12 -0.12)">
      <use transform="translate(0 0.78125)" xlink:href="#DejaVuSans-Oblique-70"/>
      <use transform="translate(57.519531 -15.625)scale(0.7)" xlink:href="#DejaVuSans-Oblique-109"/>
      <use transform="translate(125.708008 -15.625)scale(0.7)" xlink:href="#DejaVuSans-Oblique-97"/>
      <use transform="translate(168.603516 -15.625)scale(0.7)" xlink:href="#DejaVuSans-Oblique-120"/>
      <use transform="translate(212.763672 0.78125)" xlink:href="#DejaVuSans-32"/>
      <use transform="translate(244.550781 0.78125)" xlink:href="#DejaVuSans-58"/>
      <use transform="translate(278.242188 0.78125)" xlink:href="#DejaVuSans-32"/>
      <use transform="translate(310.029297 0.78125)" xlink:href="#DejaVuSans-49"/>
      <use transform="translate(373.652344 0.78125)" xlink:href="#DejaVuSans-55"/>
      <use transform="translate(437.275391 0.78125)" xlink:href="#DejaVuSans-51"/>
      <use transform="translate(500.898438 0.78125)" xlink:href="#DejaVuSans-54"/>
      <use transform="translate(564.521484 0.78125)" xlink:href="#DejaVuSans-48"/>
      <use transform="translate(628.144531 0.78125)" xlink:href="#DejaVuSans-46"/>
      <use transform="translate(659.931641 0.78125)" xlink:href="#DejaVuSans-54"/>
      <use transform="translate(723.554688 0.78125)" xlink:href="#DejaVuSans-32"/>
      <use transform="translate(755.341797 0.78125)" xlink:href="#DejaVuSans-Oblique-78"/>
     </g>
    </g>
    <g clip-path="url(#pc306d4dd2a)">
     <!-- $V_{max}$ : 100.15 $km/h$ -->
     <defs>
      <path d="M 18.3125 75.984375 
L 27.296875 75.984375 
L 18.703125 31.6875 
L 49.515625 54.6875 
L 61.1875 54.6875 
L 26.8125 28.515625 
L 51.90625 0 
L 41.015625 0 
L 17.671875 26.703125 
L 12.5 0 
L 3.515625 0 
z
" id="DejaVuSans-Oblique-107"/>
      <path d="M 25.390625 72.90625 
L 33.6875 72.90625 
L 8.296875 -9.28125 
L 0 -9.28125 
z
" id="DejaVuSans-47"/>
      <path d="M 55.71875 33.015625 
L 49.3125 0 
L 40.28125 0 
L 46.6875 32.671875 
Q 47.125 34.96875 47.359375 36.71875 
Q 47.609375 38.484375 47.609375 39.5 
Q 47.609375 43.609375 45.015625 45.890625 
Q 42.4375 48.1875 37.796875 48.1875 
Q 30.5625 48.1875 25.265625 43.296875 
Q 19.96875 38.421875 18.40625 30.328125 
L 12.5 0 
L 3.515625 0 
L 18.3125 75.984375 
L 27.296875 75.984375 
L 21.484375 46.09375 
Q 24.90625 50.6875 30.21875 53.34375 
Q 35.546875 56 41.40625 56 
Q 48.640625 56 52.609375 52.09375 
Q 56.59375 48.1875 56.59375 41.109375 
Q 56.59375 39.359375 56.375 37.359375 
Q 56.15625 35.359375 55.71875 33.015625 
z
" id="DejaVuSans-Oblique-104"/>
     </defs>
     <g transform="translate(416.041773 334.451475)scale(0.12 -0.12)">
      <use transform="translate(0 0.015625)" xlink:href="#DejaVuSans-Oblique-86"/>
      <use transform="translate(68.408203 -16.390625)scale(0.7)" xlink:href="#DejaVuSans-Oblique-109"/>
      <use transform="translate(136.59668 -16.390625)scale(0.7)" xlink:href="#DejaVuSans-Oblique-97"/>
      <use transform="translate(179.492188 -16.390625)scale(0.7)" xlink:href="#DejaVuSans-Oblique-120"/>
      <use transform="translate(223.652344 0.015625)" xlink:href="#DejaVuSans-32"/>
      <use transform="translate(255.439453 0.015625)" xlink:href="#DejaVuSans-58"/>
      <use transform="translate(289.130859 0.015625)" xlink:href="#DejaVuSans-32"/>
      <use transform="translate(320.917969 0.015625)" xlink:href="#DejaVuSans-49"/>
      <use transform="translate(384.541016 0.015625)" xlink:href="#DejaVuSans-48"/>
      <use transform="translate(448.164062 0.015625)" xlink:href="#DejaVuSans-48"/>
      <use transform="translate(511.787109 0.015625)" xlink:href="#DejaVuSans-46"/>
      <use transform="translate(543.574219 0.015625)" xlink:href="#DejaVuSans-49"/>
      <use transform="translate(607.197266 0.015625)" xlink:href="#DejaVuSans-53"/>
      <use transform="translate(670.820312 0.015625)" xlink:href="#DejaVuSans-32"/>
      <use transform="translate(702.607422 0.015625)" xlink:href="#DejaVuSans-Oblique-107"/>
      <use transform="translate(760.517578 0.015625)" xlink:href="#DejaVuSans-Oblique-109"/>
      <use transform="translate(857.929688 0.015625)" xlink:href="#DejaVuSans-47"/>
      <use transform="translate(891.621094 0.015625)" xlink:href="#DejaVuSans-Oblique-104"/>
     </g>
    </g>
    <g clip-path="url(#pc306d4dd2a)">
     <!-- $(t_0, t_1, t_2, t_3)$ : (18, 43, 51, 57) $s$ -->
     <defs>
      <path d="M 11.71875 12.40625 
L 22.015625 12.40625 
L 22.015625 4 
L 14.015625 -11.625 
L 7.71875 -11.625 
L 11.71875 4 
z
" id="DejaVuSans-44"/>
     </defs>
     <g transform="translate(416.041773 347.88885)scale(0.12 -0.12)">
      <use transform="translate(0 0.125)" xlink:href="#DejaVuSans-40"/>
      <use transform="translate(39.013672 0.125)" xlink:href="#DejaVuSans-Oblique-116"/>
      <use transform="translate(78.222656 -16.28125)scale(0.7)" xlink:href="#DejaVuSans-48"/>
      <use transform="translate(125.493164 0.125)" xlink:href="#DejaVuSans-44"/>
      <use transform="translate(176.762695 0.125)" xlink:href="#DejaVuSans-Oblique-116"/>
      <use transform="translate(215.97168 -16.28125)scale(0.7)" xlink:href="#DejaVuSans-49"/>
      <use transform="translate(263.242188 0.125)" xlink:href="#DejaVuSans-44"/>
      <use transform="translate(314.511719 0.125)" xlink:href="#DejaVuSans-Oblique-116"/>
      <use transform="translate(353.720703 -16.28125)scale(0.7)" xlink:href="#DejaVuSans-50"/>
      <use transform="translate(400.991211 0.125)" xlink:href="#DejaVuSans-44"/>
      <use transform="translate(452.260742 0.125)" xlink:href="#DejaVuSans-Oblique-116"/>
      <use transform="translate(491.469727 -16.28125)scale(0.7)" xlink:href="#DejaVuSans-51"/>
      <use transform="translate(538.740234 0.125)" xlink:href="#DejaVuSans-41"/>
      <use transform="translate(577.753906 0.125)" xlink:href="#DejaVuSans-32"/>
      <use transform="translate(609.541016 0.125)" xlink:href="#DejaVuSans-58"/>
      <use transform="translate(643.232422 0.125)" xlink:href="#DejaVuSans-32"/>
      <use transform="translate(675.019531 0.125)" xlink:href="#DejaVuSans-40"/>
      <use transform="translate(714.033203 0.125)" xlink:href="#DejaVuSans-49"/>
      <use transform="translate(777.65625 0.125)" xlink:href="#DejaVuSans-56"/>
      <use transform="translate(841.279297 0.125)" xlink:href="#DejaVuSans-44"/>
      <use transform="translate(873.066406 0.125)" xlink:href="#DejaVuSans-32"/>
      <use transform="translate(904.853516 0.125)" xlink:href="#DejaVuSans-52"/>
      <use transform="translate(968.476562 0.125)" xlink:href="#DejaVuSans-51"/>
      <use transform="translate(1032.099609 0.125)" xlink:href="#DejaVuSans-44"/>
      <use transform="translate(1063.886719 0.125)" xlink:href="#DejaVuSans-32"/>
      <use transform="translate(1095.673828 0.125)" xlink:href="#DejaVuSans-53"/>
      <use transform="translate(1159.296875 0.125)" xlink:href="#DejaVuSans-49"/>
      <use transform="translate(1222.919922 0.125)" xlink:href="#DejaVuSans-44"/>
      <use transform="translate(1254.707031 0.125)" xlink:href="#DejaVuSans-32"/>
      <use transform="translate(1286.494141 0.125)" xlink:href="#DejaVuSans-53"/>
      <use transform="translate(1350.007812 0.125)" xlink:href="#DejaVuSans-55"/>
      <use transform="translate(1413.630859 0.125)" xlink:href="#DejaVuSans-41"/>
      <use transform="translate(1452.644531 0.125)" xlink:href="#DejaVuSans-32"/>
      <use transform="translate(1484.431641 0.125)" xlink:href="#DejaVuSans-Oblique-115"/>
     </g>
    </g>
    <g clip-path="url(#pc306d4dd2a)">
     <!-- Coeff d'Amplitude $\sin$ : 0.08  -->
     <defs>
      <path d="M 64.40625 67.28125 
L 64.40625 56.890625 
Q 59.421875 61.53125 53.78125 63.8125 
Q 48.140625 66.109375 41.796875 66.109375 
Q 29.296875 66.109375 22.65625 58.46875 
Q 16.015625 50.828125 16.015625 36.375 
Q 16.015625 21.96875 22.65625 14.328125 
Q 29.296875 6.6875 41.796875 6.6875 
Q 48.140625 6.6875 53.78125 8.984375 
Q 59.421875 11.28125 64.40625 15.921875 
L 64.40625 5.609375 
Q 59.234375 2.09375 53.4375 0.328125 
Q 47.65625 -1.421875 41.21875 -1.421875 
Q 24.65625 -1.421875 15.125 8.703125 
Q 5.609375 18.84375 5.609375 36.375 
Q 5.609375 53.953125 15.125 64.078125 
Q 24.65625 74.21875 41.21875 74.21875 
Q 47.75 74.21875 53.53125 72.484375 
Q 59.328125 70.75 64.40625 67.28125 
z
" id="DejaVuSans-67"/>
      <path d="M 17.921875 72.90625 
L 17.921875 45.796875 
L 9.625 45.796875 
L 9.625 72.90625 
z
" id="DejaVuSans-39"/>
      <path d="M 34.1875 63.1875 
L 20.796875 26.90625 
L 47.609375 26.90625 
z
M 28.609375 72.90625 
L 39.796875 72.90625 
L 67.578125 0 
L 57.328125 0 
L 50.6875 18.703125 
L 17.828125 18.703125 
L 11.1875 0 
L 0.78125 0 
z
" id="DejaVuSans-65"/>
      <path d="M 52 44.1875 
Q 55.375 50.25 60.0625 53.125 
Q 64.75 56 71.09375 56 
Q 79.640625 56 84.28125 50.015625 
Q 88.921875 44.046875 88.921875 33.015625 
L 88.921875 0 
L 79.890625 0 
L 79.890625 32.71875 
Q 79.890625 40.578125 77.09375 44.375 
Q 74.3125 48.1875 68.609375 48.1875 
Q 61.625 48.1875 57.5625 43.546875 
Q 53.515625 38.921875 53.515625 30.90625 
L 53.515625 0 
L 44.484375 0 
L 44.484375 32.71875 
Q 44.484375 40.625 41.703125 44.40625 
Q 38.921875 48.1875 33.109375 48.1875 
Q 26.21875 48.1875 22.15625 43.53125 
Q 18.109375 38.875 18.109375 30.90625 
L 18.109375 0 
L 9.078125 0 
L 9.078125 54.6875 
L 18.109375 54.6875 
L 18.109375 46.1875 
Q 21.1875 51.21875 25.484375 53.609375 
Q 29.78125 56 35.6875 56 
Q 41.65625 56 45.828125 52.96875 
Q 50 49.953125 52 44.1875 
z
" id="DejaVuSans-109"/>
     </defs>
     <g transform="translate(416.041773 361.328475)scale(0.12 -0.12)">
      <use transform="translate(0 0.015625)" xlink:href="#DejaVuSans-67"/>
      <use transform="translate(69.824219 0.015625)" xlink:href="#DejaVuSans-111"/>
      <use transform="translate(131.005859 0.015625)" xlink:href="#DejaVuSans-101"/>
      <use transform="translate(192.529297 0.015625)" xlink:href="#DejaVuSans-102"/>
      <use transform="translate(227.734375 0.015625)" xlink:href="#DejaVuSans-102"/>
      <use transform="translate(262.939453 0.015625)" xlink:href="#DejaVuSans-32"/>
      <use transform="translate(294.726562 0.015625)" xlink:href="#DejaVuSans-100"/>
      <use transform="translate(358.203125 0.015625)" xlink:href="#DejaVuSans-39"/>
      <use transform="translate(385.693359 0.015625)" xlink:href="#DejaVuSans-65"/>
      <use transform="translate(454.101562 0.015625)" xlink:href="#DejaVuSans-109"/>
      <use transform="translate(551.513672 0.015625)" xlink:href="#DejaVuSans-112"/>
      <use transform="translate(614.990234 0.015625)" xlink:href="#DejaVuSans-108"/>
      <use transform="translate(642.773438 0.015625)" xlink:href="#DejaVuSans-105"/>
      <use transform="translate(670.556641 0.015625)" xlink:href="#DejaVuSans-116"/>
      <use transform="translate(709.765625 0.015625)" xlink:href="#DejaVuSans-117"/>
      <use transform="translate(773.144531 0.015625)" xlink:href="#DejaVuSans-100"/>
      <use transform="translate(836.621094 0.015625)" xlink:href="#DejaVuSans-101"/>
      <use transform="translate(898.144531 0.015625)" xlink:href="#DejaVuSans-32"/>
      <use transform="translate(929.931641 0.015625)" xlink:href="#DejaVuSans-115"/>
      <use transform="translate(982.03125 0.015625)" xlink:href="#DejaVuSans-105"/>
      <use transform="translate(1009.814453 0.015625)" xlink:href="#DejaVuSans-110"/>
      <use transform="translate(1073.193359 0.015625)" xlink:href="#DejaVuSans-32"/>
      <use transform="translate(1104.980469 0.015625)" xlink:href="#DejaVuSans-58"/>
      <use transform="translate(1138.671875 0.015625)" xlink:href="#DejaVuSans-32"/>
      <use transform="translate(1170.458984 0.015625)" xlink:href="#DejaVuSans-48"/>
      <use transform="translate(1234.082031 0.015625)" xlink:href="#DejaVuSans-46"/>
      <use transform="translate(1265.869141 0.015625)" xlink:href="#DejaVuSans-48"/>
      <use transform="translate(1329.492188 0.015625)" xlink:href="#DejaVuSans-56"/>
      <use transform="translate(1393.115234 0.015625)" xlink:href="#DejaVuSans-32"/>
     </g>
    </g>
    <g clip-path="url(#pc306d4dd2a)">
     <!-- $L_u$ : 800 $m$ -->
     <defs>
      <path d="M 16.796875 72.90625 
L 26.703125 72.90625 
L 14.203125 8.203125 
L 49.703125 8.203125 
L 48.09375 0 
L 2.6875 0 
z
" id="DejaVuSans-Oblique-76"/>
      <path d="M 6.6875 21.6875 
L 13.09375 54.6875 
L 22.125 54.6875 
L 15.71875 22.015625 
Q 15.234375 19.625 15.015625 17.921875 
Q 14.796875 16.21875 14.796875 15.09375 
Q 14.796875 10.9375 17.328125 8.65625 
Q 19.875 6.390625 24.515625 6.390625 
Q 31.734375 6.390625 37 11.265625 
Q 42.28125 16.15625 43.890625 24.421875 
L 49.90625 54.6875 
L 58.890625 54.6875 
L 48.296875 0 
L 39.3125 0 
L 41.109375 8.59375 
Q 37.3125 3.8125 32.0625 1.1875 
Q 26.8125 -1.421875 20.90625 -1.421875 
Q 13.71875 -1.421875 9.71875 2.515625 
Q 5.71875 6.453125 5.71875 13.484375 
Q 5.71875 14.9375 5.953125 17.140625 
Q 6.203125 19.34375 6.6875 21.6875 
z
" id="DejaVuSans-Oblique-117"/>
     </defs>
     <g transform="translate(416.041773 374.790225)scale(0.12 -0.12)">
      <use transform="translate(0 0.78125)" xlink:href="#DejaVuSans-Oblique-76"/>
      <use transform="translate(55.712891 -15.625)scale(0.7)" xlink:href="#DejaVuSans-Oblique-117"/>
      <use transform="translate(102.8125 0.78125)" xlink:href="#DejaVuSans-32"/>
      <use transform="translate(134.599609 0.78125)" xlink:href="#DejaVuSans-58"/>
      <use transform="translate(168.291016 0.78125)" xlink:href="#DejaVuSans-32"/>
      <use transform="translate(200.078125 0.78125)" xlink:href="#DejaVuSans-56"/>
      <use transform="translate(263.701172 0.78125)" xlink:href="#DejaVuSans-48"/>
      <use transform="translate(327.324219 0.78125)" xlink:href="#DejaVuSans-48"/>
      <use transform="translate(390.947266 0.78125)" xlink:href="#DejaVuSans-32"/>
      <use transform="translate(422.734375 0.78125)" xlink:href="#DejaVuSans-Oblique-109"/>
     </g>
    </g>
    <g clip-path="url(#pc306d4dd2a)">
     <!-- $\omega$ : 2 $s^{-1}$ -->
     <defs>
      <path d="M 21.390625 -1.421875 
Q 1.125 -1.421875 6.78125 27.59375 
Q 8.984375 39.0625 19.625 54.6875 
L 29.296875 54.6875 
Q 19.234375 39.0625 17 27.34375 
Q 12.796875 6.203125 23.734375 6.203125 
Q 33.84375 6.203125 38.71875 32.46875 
L 47.015625 32.46875 
Q 41.703125 6.0625 51.8125 6.203125 
Q 62.703125 6.296875 66.796875 27.34375 
Q 69.046875 39.0625 65.140625 54.6875 
L 74.8125 54.6875 
Q 79.296875 39.0625 77.09375 27.59375 
Q 71.53125 -1.46875 51.21875 -1.421875 
Q 37.9375 -1.375 39.109375 13.1875 
Q 34.28125 -1.421875 21.390625 -1.421875 
z
" id="DejaVuSans-Oblique-969"/>
      <path d="M 10.59375 35.5 
L 73.1875 35.5 
L 73.1875 27.203125 
L 10.59375 27.203125 
z
" id="DejaVuSans-8722"/>
     </defs>
     <g transform="translate(416.041773 388.2276)scale(0.12 -0.12)">
      <use transform="translate(0 0.684375)" xlink:href="#DejaVuSans-Oblique-969"/>
      <use transform="translate(83.740234 0.684375)" xlink:href="#DejaVuSans-32"/>
      <use transform="translate(115.527344 0.684375)" xlink:href="#DejaVuSans-58"/>
      <use transform="translate(149.21875 0.684375)" xlink:href="#DejaVuSans-32"/>
      <use transform="translate(181.005859 0.684375)" xlink:href="#DejaVuSans-50"/>
      <use transform="translate(244.628906 0.684375)" xlink:href="#DejaVuSans-32"/>
      <use transform="translate(276.416016 0.684375)" xlink:href="#DejaVuSans-Oblique-115"/>
      <use transform="translate(333.165521 38.965625)scale(0.7)" xlink:href="#DejaVuSans-8722"/>
      <use transform="translate(391.817865 38.965625)scale(0.7)" xlink:href="#DejaVuSans-49"/>
     </g>
    </g>
   </g>
  </g>
  <g id="text_38">
   <!-- Supair Sora 2 : modlisation force, vitesse, trajectoire -->
   <defs>
    <path d="M 9.421875 54.6875 
L 18.40625 54.6875 
L 18.40625 -0.984375 
Q 18.40625 -11.421875 14.421875 -16.109375 
Q 10.453125 -20.796875 1.609375 -20.796875 
L -1.8125 -20.796875 
L -1.8125 -13.1875 
L 0.59375 -13.1875 
Q 5.71875 -13.1875 7.5625 -10.8125 
Q 9.421875 -8.453125 9.421875 -0.984375 
z
M 9.421875 75.984375 
L 18.40625 75.984375 
L 18.40625 64.59375 
L 9.421875 64.59375 
z
" id="DejaVuSans-106"/>
   </defs>
   <g transform="translate(156.6725 21.6967)scale(0.16 -0.16)">
    <use xlink:href="#DejaVuSans-83"/>
    <use x="63.476562" xlink:href="#DejaVuSans-117"/>
    <use x="126.855469" xlink:href="#DejaVuSans-112"/>
    <use x="190.332031" xlink:href="#DejaVuSans-97"/>
    <use x="251.611328" xlink:href="#DejaVuSans-105"/>
    <use x="279.394531" xlink:href="#DejaVuSans-114"/>
    <use x="320.507812" xlink:href="#DejaVuSans-32"/>
    <use x="352.294922" xlink:href="#DejaVuSans-83"/>
    <use x="415.771484" xlink:href="#DejaVuSans-111"/>
    <use x="476.953125" xlink:href="#DejaVuSans-114"/>
    <use x="518.066406" xlink:href="#DejaVuSans-97"/>
    <use x="579.345703" xlink:href="#DejaVuSans-32"/>
    <use x="611.132812" xlink:href="#DejaVuSans-50"/>
    <use x="674.755859" xlink:href="#DejaVuSans-32"/>
    <use x="706.542969" xlink:href="#DejaVuSans-58"/>
    <use x="740.234375" xlink:href="#DejaVuSans-32"/>
    <use x="772.021484" xlink:href="#DejaVuSans-109"/>
    <use x="869.433594" xlink:href="#DejaVuSans-111"/>
    <use x="930.615234" xlink:href="#DejaVuSans-100"/>
    <use x="994.091797" xlink:href="#DejaVuSans-233"/>
    <use x="1055.615234" xlink:href="#DejaVuSans-108"/>
    <use x="1083.398438" xlink:href="#DejaVuSans-105"/>
    <use x="1111.181641" xlink:href="#DejaVuSans-115"/>
    <use x="1163.28125" xlink:href="#DejaVuSans-97"/>
    <use x="1224.560547" xlink:href="#DejaVuSans-116"/>
    <use x="1263.769531" xlink:href="#DejaVuSans-105"/>
    <use x="1291.552734" xlink:href="#DejaVuSans-111"/>
    <use x="1352.734375" xlink:href="#DejaVuSans-110"/>
    <use x="1416.113281" xlink:href="#DejaVuSans-32"/>
    <use x="1447.900391" xlink:href="#DejaVuSans-102"/>
    <use x="1483.105469" xlink:href="#DejaVuSans-111"/>
    <use x="1544.287109" xlink:href="#DejaVuSans-114"/>
    <use x="1585.369141" xlink:href="#DejaVuSans-99"/>
    <use x="1640.349609" xlink:href="#DejaVuSans-101"/>
    <use x="1701.873047" xlink:href="#DejaVuSans-44"/>
    <use x="1733.660156" xlink:href="#DejaVuSans-32"/>
    <use x="1765.447266" xlink:href="#DejaVuSans-118"/>
    <use x="1824.626953" xlink:href="#DejaVuSans-105"/>
    <use x="1852.410156" xlink:href="#DejaVuSans-116"/>
    <use x="1891.619141" xlink:href="#DejaVuSans-101"/>
    <use x="1953.142578" xlink:href="#DejaVuSans-115"/>
    <use x="2005.242188" xlink:href="#DejaVuSans-115"/>
    <use x="2057.341797" xlink:href="#DejaVuSans-101"/>
    <use x="2118.865234" xlink:href="#DejaVuSans-44"/>
    <use x="2150.652344" xlink:href="#DejaVuSans-32"/>
    <use x="2182.439453" xlink:href="#DejaVuSans-116"/>
    <use x="2221.648438" xlink:href="#DejaVuSans-114"/>
    <use x="2262.761719" xlink:href="#DejaVuSans-97"/>
    <use x="2324.041016" xlink:href="#DejaVuSans-106"/>
    <use x="2351.824219" xlink:href="#DejaVuSans-101"/>
    <use x="2413.347656" xlink:href="#DejaVuSans-99"/>
    <use x="2468.328125" xlink:href="#DejaVuSans-116"/>
    <use x="2507.537109" xlink:href="#DejaVuSans-111"/>
    <use x="2568.71875" xlink:href="#DejaVuSans-105"/>
    <use x="2596.501953" xlink:href="#DejaVuSans-114"/>
    <use x="2637.583984" xlink:href="#DejaVuSans-101"/>
   </g>
  </g>
 </g>
 <defs>
  <clipPath id="p09d174822f">
   <rect height="155.736" width="262.513636" x="93.15" y="53.3952"/>
  </clipPath>
  <clipPath id="p6e8b9ab609">
   <rect height="155.736" width="262.513636" x="408.166364" y="53.3952"/>
  </clipPath>
  <clipPath id="p41e6e35a33">
   <rect height="155.736" width="262.513636" x="93.15" y="240.2784"/>
  </clipPath>
  <clipPath id="pc306d4dd2a">
   <rect height="155.736" width="262.513636" x="408.166364" y="240.2784"/>
  </clipPath>
 </defs>
</svg>
