<?xml version="1.0" encoding="utf-8" standalone="no"?>
<!DOCTYPE svg PUBLIC "-//W3C//DTD SVG 1.1//EN"
  "http://www.w3.org/Graphics/SVG/1.1/DTD/svg11.dtd">
<!-- Created with matplotlib (https://matplotlib.org/) -->
<svg height="531.36pt" version="1.1" viewBox="0 0 821.52 531.36" width="821.52pt" xmlns="http://www.w3.org/2000/svg" xmlns:xlink="http://www.w3.org/1999/xlink">
 <defs>
  <style type="text/css">
*{stroke-linecap:butt;stroke-linejoin:round;white-space:pre;}
  </style>
 </defs>
 <g id="figure_1">
  <g id="patch_1">
   <path d="M 0 531.36 
L 821.52 531.36 
L 821.52 0 
L 0 0 
z
" style="fill:#ffffff;"/>
  </g>
  <g id="axes_1">
   <g id="patch_2">
    <path d="M 102.69 472.9104 
L 739.368 472.9104 
L 739.368 286.9344 
L 102.69 286.9344 
z
" style="fill:#ffffff;"/>
   </g>
   <g id="matplotlib.axis_1">
    <g id="xtick_1">
     <g id="line2d_1">
      <path clip-path="url(#p5530d661fa)" d="M 131.629909 472.9104 
L 131.629909 286.9344 
" style="fill:none;stroke:#b0b0b0;stroke-linecap:square;stroke-width:0.8;"/>
     </g>
     <g id="line2d_2">
      <defs>
       <path d="M 0 0 
L 0 3.5 
" id="mce71701946" style="stroke:#000000;stroke-width:0.8;"/>
      </defs>
      <g>
       <use style="stroke:#000000;stroke-width:0.8;" x="131.629909" xlink:href="#mce71701946" y="472.9104"/>
      </g>
     </g>
     <g id="text_1">
      <!-- 0 -->
      <defs>
       <path d="M 31.78125 66.40625 
Q 24.171875 66.40625 20.328125 58.90625 
Q 16.5 51.421875 16.5 36.375 
Q 16.5 21.390625 20.328125 13.890625 
Q 24.171875 6.390625 31.78125 6.390625 
Q 39.453125 6.390625 43.28125 13.890625 
Q 47.125 21.390625 47.125 36.375 
Q 47.125 51.421875 43.28125 58.90625 
Q 39.453125 66.40625 31.78125 66.40625 
z
M 31.78125 74.21875 
Q 44.046875 74.21875 50.515625 64.515625 
Q 56.984375 54.828125 56.984375 36.375 
Q 56.984375 17.96875 50.515625 8.265625 
Q 44.046875 -1.421875 31.78125 -1.421875 
Q 19.53125 -1.421875 13.0625 8.265625 
Q 6.59375 17.96875 6.59375 36.375 
Q 6.59375 54.828125 13.0625 64.515625 
Q 19.53125 74.21875 31.78125 74.21875 
z
" id="DejaVuSans-48"/>
      </defs>
      <g transform="translate(128.448659 487.508838)scale(0.1 -0.1)">
       <use xlink:href="#DejaVuSans-48"/>
      </g>
     </g>
    </g>
    <g id="xtick_2">
     <g id="line2d_3">
      <path clip-path="url(#p5530d661fa)" d="M 205.834804 472.9104 
L 205.834804 286.9344 
" style="fill:none;stroke:#b0b0b0;stroke-linecap:square;stroke-width:0.8;"/>
     </g>
     <g id="line2d_4">
      <g>
       <use style="stroke:#000000;stroke-width:0.8;" x="205.834804" xlink:href="#mce71701946" y="472.9104"/>
      </g>
     </g>
     <g id="text_2">
      <!-- 5 -->
      <defs>
       <path d="M 10.796875 72.90625 
L 49.515625 72.90625 
L 49.515625 64.59375 
L 19.828125 64.59375 
L 19.828125 46.734375 
Q 21.96875 47.46875 24.109375 47.828125 
Q 26.265625 48.1875 28.421875 48.1875 
Q 40.625 48.1875 47.75 41.5 
Q 54.890625 34.8125 54.890625 23.390625 
Q 54.890625 11.625 47.5625 5.09375 
Q 40.234375 -1.421875 26.90625 -1.421875 
Q 22.3125 -1.421875 17.546875 -0.640625 
Q 12.796875 0.140625 7.71875 1.703125 
L 7.71875 11.625 
Q 12.109375 9.234375 16.796875 8.0625 
Q 21.484375 6.890625 26.703125 6.890625 
Q 35.15625 6.890625 40.078125 11.328125 
Q 45.015625 15.765625 45.015625 23.390625 
Q 45.015625 31 40.078125 35.4375 
Q 35.15625 39.890625 26.703125 39.890625 
Q 22.75 39.890625 18.8125 39.015625 
Q 14.890625 38.140625 10.796875 36.28125 
z
" id="DejaVuSans-53"/>
      </defs>
      <g transform="translate(202.653554 487.508838)scale(0.1 -0.1)">
       <use xlink:href="#DejaVuSans-53"/>
      </g>
     </g>
    </g>
    <g id="xtick_3">
     <g id="line2d_5">
      <path clip-path="url(#p5530d661fa)" d="M 280.039699 472.9104 
L 280.039699 286.9344 
" style="fill:none;stroke:#b0b0b0;stroke-linecap:square;stroke-width:0.8;"/>
     </g>
     <g id="line2d_6">
      <g>
       <use style="stroke:#000000;stroke-width:0.8;" x="280.039699" xlink:href="#mce71701946" y="472.9104"/>
      </g>
     </g>
     <g id="text_3">
      <!-- 10 -->
      <defs>
       <path d="M 12.40625 8.296875 
L 28.515625 8.296875 
L 28.515625 63.921875 
L 10.984375 60.40625 
L 10.984375 69.390625 
L 28.421875 72.90625 
L 38.28125 72.90625 
L 38.28125 8.296875 
L 54.390625 8.296875 
L 54.390625 0 
L 12.40625 0 
z
" id="DejaVuSans-49"/>
      </defs>
      <g transform="translate(273.677199 487.508838)scale(0.1 -0.1)">
       <use xlink:href="#DejaVuSans-49"/>
       <use x="63.623047" xlink:href="#DejaVuSans-48"/>
      </g>
     </g>
    </g>
    <g id="xtick_4">
     <g id="line2d_7">
      <path clip-path="url(#p5530d661fa)" d="M 354.244594 472.9104 
L 354.244594 286.9344 
" style="fill:none;stroke:#b0b0b0;stroke-linecap:square;stroke-width:0.8;"/>
     </g>
     <g id="line2d_8">
      <g>
       <use style="stroke:#000000;stroke-width:0.8;" x="354.244594" xlink:href="#mce71701946" y="472.9104"/>
      </g>
     </g>
     <g id="text_4">
      <!-- 15 -->
      <g transform="translate(347.882094 487.508838)scale(0.1 -0.1)">
       <use xlink:href="#DejaVuSans-49"/>
       <use x="63.623047" xlink:href="#DejaVuSans-53"/>
      </g>
     </g>
    </g>
    <g id="xtick_5">
     <g id="line2d_9">
      <path clip-path="url(#p5530d661fa)" d="M 428.44949 472.9104 
L 428.44949 286.9344 
" style="fill:none;stroke:#b0b0b0;stroke-linecap:square;stroke-width:0.8;"/>
     </g>
     <g id="line2d_10">
      <g>
       <use style="stroke:#000000;stroke-width:0.8;" x="428.44949" xlink:href="#mce71701946" y="472.9104"/>
      </g>
     </g>
     <g id="text_5">
      <!-- 20 -->
      <defs>
       <path d="M 19.1875 8.296875 
L 53.609375 8.296875 
L 53.609375 0 
L 7.328125 0 
L 7.328125 8.296875 
Q 12.9375 14.109375 22.625 23.890625 
Q 32.328125 33.6875 34.8125 36.53125 
Q 39.546875 41.84375 41.421875 45.53125 
Q 43.3125 49.21875 43.3125 52.78125 
Q 43.3125 58.59375 39.234375 62.25 
Q 35.15625 65.921875 28.609375 65.921875 
Q 23.96875 65.921875 18.8125 64.3125 
Q 13.671875 62.703125 7.8125 59.421875 
L 7.8125 69.390625 
Q 13.765625 71.78125 18.9375 73 
Q 24.125 74.21875 28.421875 74.21875 
Q 39.75 74.21875 46.484375 68.546875 
Q 53.21875 62.890625 53.21875 53.421875 
Q 53.21875 48.921875 51.53125 44.890625 
Q 49.859375 40.875 45.40625 35.40625 
Q 44.1875 33.984375 37.640625 27.21875 
Q 31.109375 20.453125 19.1875 8.296875 
z
" id="DejaVuSans-50"/>
      </defs>
      <g transform="translate(422.08699 487.508838)scale(0.1 -0.1)">
       <use xlink:href="#DejaVuSans-50"/>
       <use x="63.623047" xlink:href="#DejaVuSans-48"/>
      </g>
     </g>
    </g>
    <g id="xtick_6">
     <g id="line2d_11">
      <path clip-path="url(#p5530d661fa)" d="M 502.654385 472.9104 
L 502.654385 286.9344 
" style="fill:none;stroke:#b0b0b0;stroke-linecap:square;stroke-width:0.8;"/>
     </g>
     <g id="line2d_12">
      <g>
       <use style="stroke:#000000;stroke-width:0.8;" x="502.654385" xlink:href="#mce71701946" y="472.9104"/>
      </g>
     </g>
     <g id="text_6">
      <!-- 25 -->
      <g transform="translate(496.291885 487.508838)scale(0.1 -0.1)">
       <use xlink:href="#DejaVuSans-50"/>
       <use x="63.623047" xlink:href="#DejaVuSans-53"/>
      </g>
     </g>
    </g>
    <g id="xtick_7">
     <g id="line2d_13">
      <path clip-path="url(#p5530d661fa)" d="M 576.85928 472.9104 
L 576.85928 286.9344 
" style="fill:none;stroke:#b0b0b0;stroke-linecap:square;stroke-width:0.8;"/>
     </g>
     <g id="line2d_14">
      <g>
       <use style="stroke:#000000;stroke-width:0.8;" x="576.85928" xlink:href="#mce71701946" y="472.9104"/>
      </g>
     </g>
     <g id="text_7">
      <!-- 30 -->
      <defs>
       <path d="M 40.578125 39.3125 
Q 47.65625 37.796875 51.625 33 
Q 55.609375 28.21875 55.609375 21.1875 
Q 55.609375 10.40625 48.1875 4.484375 
Q 40.765625 -1.421875 27.09375 -1.421875 
Q 22.515625 -1.421875 17.65625 -0.515625 
Q 12.796875 0.390625 7.625 2.203125 
L 7.625 11.71875 
Q 11.71875 9.328125 16.59375 8.109375 
Q 21.484375 6.890625 26.8125 6.890625 
Q 36.078125 6.890625 40.9375 10.546875 
Q 45.796875 14.203125 45.796875 21.1875 
Q 45.796875 27.640625 41.28125 31.265625 
Q 36.765625 34.90625 28.71875 34.90625 
L 20.21875 34.90625 
L 20.21875 43.015625 
L 29.109375 43.015625 
Q 36.375 43.015625 40.234375 45.921875 
Q 44.09375 48.828125 44.09375 54.296875 
Q 44.09375 59.90625 40.109375 62.90625 
Q 36.140625 65.921875 28.71875 65.921875 
Q 24.65625 65.921875 20.015625 65.03125 
Q 15.375 64.15625 9.8125 62.3125 
L 9.8125 71.09375 
Q 15.4375 72.65625 20.34375 73.4375 
Q 25.25 74.21875 29.59375 74.21875 
Q 40.828125 74.21875 47.359375 69.109375 
Q 53.90625 64.015625 53.90625 55.328125 
Q 53.90625 49.265625 50.4375 45.09375 
Q 46.96875 40.921875 40.578125 39.3125 
z
" id="DejaVuSans-51"/>
      </defs>
      <g transform="translate(570.49678 487.508838)scale(0.1 -0.1)">
       <use xlink:href="#DejaVuSans-51"/>
       <use x="63.623047" xlink:href="#DejaVuSans-48"/>
      </g>
     </g>
    </g>
    <g id="xtick_8">
     <g id="line2d_15">
      <path clip-path="url(#p5530d661fa)" d="M 651.064175 472.9104 
L 651.064175 286.9344 
" style="fill:none;stroke:#b0b0b0;stroke-linecap:square;stroke-width:0.8;"/>
     </g>
     <g id="line2d_16">
      <g>
       <use style="stroke:#000000;stroke-width:0.8;" x="651.064175" xlink:href="#mce71701946" y="472.9104"/>
      </g>
     </g>
     <g id="text_8">
      <!-- 35 -->
      <g transform="translate(644.701675 487.508838)scale(0.1 -0.1)">
       <use xlink:href="#DejaVuSans-51"/>
       <use x="63.623047" xlink:href="#DejaVuSans-53"/>
      </g>
     </g>
    </g>
    <g id="xtick_9">
     <g id="line2d_17">
      <path clip-path="url(#p5530d661fa)" d="M 725.26907 472.9104 
L 725.26907 286.9344 
" style="fill:none;stroke:#b0b0b0;stroke-linecap:square;stroke-width:0.8;"/>
     </g>
     <g id="line2d_18">
      <g>
       <use style="stroke:#000000;stroke-width:0.8;" x="725.26907" xlink:href="#mce71701946" y="472.9104"/>
      </g>
     </g>
     <g id="text_9">
      <!-- 40 -->
      <defs>
       <path d="M 37.796875 64.3125 
L 12.890625 25.390625 
L 37.796875 25.390625 
z
M 35.203125 72.90625 
L 47.609375 72.90625 
L 47.609375 25.390625 
L 58.015625 25.390625 
L 58.015625 17.1875 
L 47.609375 17.1875 
L 47.609375 0 
L 37.796875 0 
L 37.796875 17.1875 
L 4.890625 17.1875 
L 4.890625 26.703125 
z
" id="DejaVuSans-52"/>
      </defs>
      <g transform="translate(718.90657 487.508838)scale(0.1 -0.1)">
       <use xlink:href="#DejaVuSans-52"/>
       <use x="63.623047" xlink:href="#DejaVuSans-48"/>
      </g>
     </g>
    </g>
    <g id="text_10">
     <!-- $time (s)$ -->
     <defs>
      <path d="M 42.28125 54.6875 
L 40.921875 47.703125 
L 23 47.703125 
L 17.1875 18.015625 
Q 16.890625 16.359375 16.75 15.234375 
Q 16.609375 14.109375 16.609375 13.484375 
Q 16.609375 10.359375 18.484375 8.9375 
Q 20.359375 7.515625 24.515625 7.515625 
L 33.59375 7.515625 
L 32.078125 0 
L 23.484375 0 
Q 15.484375 0 11.546875 3.125 
Q 7.625 6.25 7.625 12.59375 
Q 7.625 13.71875 7.765625 15.0625 
Q 7.90625 16.40625 8.203125 18.015625 
L 14.015625 47.703125 
L 6.390625 47.703125 
L 7.8125 54.6875 
L 15.28125 54.6875 
L 18.3125 70.21875 
L 27.296875 70.21875 
L 24.3125 54.6875 
z
" id="DejaVuSans-Oblique-116"/>
      <path d="M 18.3125 75.984375 
L 27.296875 75.984375 
L 25.09375 64.59375 
L 16.109375 64.59375 
z
M 14.203125 54.6875 
L 23.1875 54.6875 
L 12.5 0 
L 3.515625 0 
z
" id="DejaVuSans-Oblique-105"/>
      <path d="M 89.796875 33.015625 
L 83.40625 0 
L 74.421875 0 
L 80.71875 32.71875 
Q 81.109375 34.8125 81.296875 36.328125 
Q 81.5 37.84375 81.5 38.921875 
Q 81.5 43.3125 79.046875 45.75 
Q 76.609375 48.1875 72.21875 48.1875 
Q 65.671875 48.1875 60.546875 43.28125 
Q 55.421875 38.375 53.90625 30.515625 
L 47.90625 0 
L 38.921875 0 
L 45.3125 32.71875 
Q 45.703125 34.515625 45.890625 36.046875 
Q 46.09375 37.59375 46.09375 38.8125 
Q 46.09375 43.265625 43.65625 45.71875 
Q 41.21875 48.1875 36.921875 48.1875 
Q 30.28125 48.1875 25.140625 43.28125 
Q 20.015625 38.375 18.5 30.515625 
L 12.5 0 
L 3.515625 0 
L 14.203125 54.6875 
L 23.1875 54.6875 
L 21.484375 46.1875 
Q 25.140625 50.984375 30.046875 53.484375 
Q 34.96875 56 40.578125 56 
Q 46.53125 56 50.359375 52.875 
Q 54.203125 49.75 54.984375 44.1875 
Q 59.078125 49.953125 64.46875 52.96875 
Q 69.875 56 75.875 56 
Q 82.90625 56 86.734375 51.953125 
Q 90.578125 47.90625 90.578125 40.484375 
Q 90.578125 38.875 90.375 36.9375 
Q 90.1875 35.015625 89.796875 33.015625 
z
" id="DejaVuSans-Oblique-109"/>
      <path d="M 48.09375 32.234375 
Q 48.25 33.015625 48.3125 33.84375 
Q 48.390625 34.671875 48.390625 35.5 
Q 48.390625 41.453125 44.890625 44.921875 
Q 41.40625 48.390625 35.40625 48.390625 
Q 28.71875 48.390625 23.578125 44.15625 
Q 18.453125 39.9375 15.828125 32.171875 
z
M 55.90625 25.203125 
L 14.109375 25.203125 
Q 13.8125 23.34375 13.71875 22.265625 
Q 13.625 21.1875 13.625 20.40625 
Q 13.625 13.625 17.796875 9.90625 
Q 21.96875 6.203125 29.59375 6.203125 
Q 35.453125 6.203125 40.671875 7.515625 
Q 45.90625 8.84375 50.390625 11.375 
L 48.6875 2.484375 
Q 43.84375 0.53125 38.6875 -0.4375 
Q 33.546875 -1.421875 28.21875 -1.421875 
Q 16.84375 -1.421875 10.71875 4.015625 
Q 4.59375 9.46875 4.59375 19.484375 
Q 4.59375 28.03125 7.640625 35.375 
Q 10.6875 42.71875 16.609375 48.484375 
Q 20.40625 52.09375 25.65625 54.046875 
Q 30.90625 56 36.8125 56 
Q 46.09375 56 51.578125 50.4375 
Q 57.078125 44.875 57.078125 35.5 
Q 57.078125 33.25 56.78125 30.6875 
Q 56.5 28.125 55.90625 25.203125 
z
" id="DejaVuSans-Oblique-101"/>
      <path d="M 31 75.875 
Q 24.46875 64.65625 21.28125 53.65625 
Q 18.109375 42.671875 18.109375 31.390625 
Q 18.109375 20.125 21.3125 9.0625 
Q 24.515625 -2 31 -13.1875 
L 23.1875 -13.1875 
Q 15.875 -1.703125 12.234375 9.375 
Q 8.59375 20.453125 8.59375 31.390625 
Q 8.59375 42.28125 12.203125 53.3125 
Q 15.828125 64.359375 23.1875 75.875 
z
" id="DejaVuSans-40"/>
      <path d="M 50 53.078125 
L 48.296875 44.578125 
Q 44.734375 46.53125 40.765625 47.5 
Q 36.8125 48.484375 32.625 48.484375 
Q 25.53125 48.484375 21.453125 46.0625 
Q 17.390625 43.65625 17.390625 39.5 
Q 17.390625 34.671875 26.859375 32.078125 
Q 27.59375 31.890625 27.9375 31.78125 
L 30.8125 30.90625 
Q 39.796875 28.421875 42.796875 25.6875 
Q 45.796875 22.953125 45.796875 18.21875 
Q 45.796875 9.515625 38.890625 4.046875 
Q 31.984375 -1.421875 20.796875 -1.421875 
Q 16.453125 -1.421875 11.671875 -0.578125 
Q 6.890625 0.25 1.125 2 
L 2.875 11.28125 
Q 7.8125 8.734375 12.59375 7.421875 
Q 17.390625 6.109375 21.78125 6.109375 
Q 28.375 6.109375 32.5 8.9375 
Q 36.625 11.765625 36.625 16.109375 
Q 36.625 20.796875 25.78125 23.6875 
L 24.859375 23.921875 
L 21.78125 24.703125 
Q 14.9375 26.515625 11.765625 29.46875 
Q 8.59375 32.421875 8.59375 37.015625 
Q 8.59375 45.75 15.15625 50.875 
Q 21.734375 56 33.015625 56 
Q 37.453125 56 41.671875 55.265625 
Q 45.90625 54.546875 50 53.078125 
z
" id="DejaVuSans-Oblique-115"/>
      <path d="M 8.015625 75.875 
L 15.828125 75.875 
Q 23.140625 64.359375 26.78125 53.3125 
Q 30.421875 42.28125 30.421875 31.390625 
Q 30.421875 20.453125 26.78125 9.375 
Q 23.140625 -1.703125 15.828125 -13.1875 
L 8.015625 -13.1875 
Q 14.5 -2 17.703125 9.0625 
Q 20.90625 20.125 20.90625 31.390625 
Q 20.90625 42.671875 17.703125 53.65625 
Q 14.5 64.65625 8.015625 75.875 
z
" id="DejaVuSans-41"/>
     </defs>
     <g transform="translate(403.179 501.186963)scale(0.1 -0.1)">
      <use transform="translate(0 0.015625)" xlink:href="#DejaVuSans-Oblique-116"/>
      <use transform="translate(39.208984 0.015625)" xlink:href="#DejaVuSans-Oblique-105"/>
      <use transform="translate(66.992188 0.015625)" xlink:href="#DejaVuSans-Oblique-109"/>
      <use transform="translate(164.404297 0.015625)" xlink:href="#DejaVuSans-Oblique-101"/>
      <use transform="translate(225.927734 0.015625)" xlink:href="#DejaVuSans-40"/>
      <use transform="translate(264.941406 0.015625)" xlink:href="#DejaVuSans-Oblique-115"/>
      <use transform="translate(317.041016 0.015625)" xlink:href="#DejaVuSans-41"/>
     </g>
    </g>
   </g>
   <g id="matplotlib.axis_2">
    <g id="ytick_1">
     <g id="line2d_19">
      <path clip-path="url(#p5530d661fa)" d="M 102.69 464.456945 
L 739.368 464.456945 
" style="fill:none;stroke:#b0b0b0;stroke-linecap:square;stroke-width:0.8;"/>
     </g>
     <g id="line2d_20">
      <defs>
       <path d="M 0 0 
L -3.5 0 
" id="m2cbef9550f" style="stroke:#000000;stroke-width:0.8;"/>
      </defs>
      <g>
       <use style="stroke:#000000;stroke-width:0.8;" x="102.69" xlink:href="#m2cbef9550f" y="464.456945"/>
      </g>
     </g>
     <g id="text_11">
      <!-- 0.0 -->
      <defs>
       <path d="M 10.6875 12.40625 
L 21 12.40625 
L 21 0 
L 10.6875 0 
z
" id="DejaVuSans-46"/>
      </defs>
      <g transform="translate(79.786875 468.256164)scale(0.1 -0.1)">
       <use xlink:href="#DejaVuSans-48"/>
       <use x="63.623047" xlink:href="#DejaVuSans-46"/>
       <use x="95.410156" xlink:href="#DejaVuSans-48"/>
      </g>
     </g>
    </g>
    <g id="ytick_2">
     <g id="line2d_21">
      <path clip-path="url(#p5530d661fa)" d="M 102.69 432.216735 
L 739.368 432.216735 
" style="fill:none;stroke:#b0b0b0;stroke-linecap:square;stroke-width:0.8;"/>
     </g>
     <g id="line2d_22">
      <g>
       <use style="stroke:#000000;stroke-width:0.8;" x="102.69" xlink:href="#m2cbef9550f" y="432.216735"/>
      </g>
     </g>
     <g id="text_12">
      <!-- 0.2 -->
      <g transform="translate(79.786875 436.015954)scale(0.1 -0.1)">
       <use xlink:href="#DejaVuSans-48"/>
       <use x="63.623047" xlink:href="#DejaVuSans-46"/>
       <use x="95.410156" xlink:href="#DejaVuSans-50"/>
      </g>
     </g>
    </g>
    <g id="ytick_3">
     <g id="line2d_23">
      <path clip-path="url(#p5530d661fa)" d="M 102.69 399.976524 
L 739.368 399.976524 
" style="fill:none;stroke:#b0b0b0;stroke-linecap:square;stroke-width:0.8;"/>
     </g>
     <g id="line2d_24">
      <g>
       <use style="stroke:#000000;stroke-width:0.8;" x="102.69" xlink:href="#m2cbef9550f" y="399.976524"/>
      </g>
     </g>
     <g id="text_13">
      <!-- 0.4 -->
      <g transform="translate(79.786875 403.775743)scale(0.1 -0.1)">
       <use xlink:href="#DejaVuSans-48"/>
       <use x="63.623047" xlink:href="#DejaVuSans-46"/>
       <use x="95.410156" xlink:href="#DejaVuSans-52"/>
      </g>
     </g>
    </g>
    <g id="ytick_4">
     <g id="line2d_25">
      <path clip-path="url(#p5530d661fa)" d="M 102.69 367.736314 
L 739.368 367.736314 
" style="fill:none;stroke:#b0b0b0;stroke-linecap:square;stroke-width:0.8;"/>
     </g>
     <g id="line2d_26">
      <g>
       <use style="stroke:#000000;stroke-width:0.8;" x="102.69" xlink:href="#m2cbef9550f" y="367.736314"/>
      </g>
     </g>
     <g id="text_14">
      <!-- 0.6 -->
      <defs>
       <path d="M 33.015625 40.375 
Q 26.375 40.375 22.484375 35.828125 
Q 18.609375 31.296875 18.609375 23.390625 
Q 18.609375 15.53125 22.484375 10.953125 
Q 26.375 6.390625 33.015625 6.390625 
Q 39.65625 6.390625 43.53125 10.953125 
Q 47.40625 15.53125 47.40625 23.390625 
Q 47.40625 31.296875 43.53125 35.828125 
Q 39.65625 40.375 33.015625 40.375 
z
M 52.59375 71.296875 
L 52.59375 62.3125 
Q 48.875 64.0625 45.09375 64.984375 
Q 41.3125 65.921875 37.59375 65.921875 
Q 27.828125 65.921875 22.671875 59.328125 
Q 17.53125 52.734375 16.796875 39.40625 
Q 19.671875 43.65625 24.015625 45.921875 
Q 28.375 48.1875 33.59375 48.1875 
Q 44.578125 48.1875 50.953125 41.515625 
Q 57.328125 34.859375 57.328125 23.390625 
Q 57.328125 12.15625 50.6875 5.359375 
Q 44.046875 -1.421875 33.015625 -1.421875 
Q 20.359375 -1.421875 13.671875 8.265625 
Q 6.984375 17.96875 6.984375 36.375 
Q 6.984375 53.65625 15.1875 63.9375 
Q 23.390625 74.21875 37.203125 74.21875 
Q 40.921875 74.21875 44.703125 73.484375 
Q 48.484375 72.75 52.59375 71.296875 
z
" id="DejaVuSans-54"/>
      </defs>
      <g transform="translate(79.786875 371.535532)scale(0.1 -0.1)">
       <use xlink:href="#DejaVuSans-48"/>
       <use x="63.623047" xlink:href="#DejaVuSans-46"/>
       <use x="95.410156" xlink:href="#DejaVuSans-54"/>
      </g>
     </g>
    </g>
    <g id="ytick_5">
     <g id="line2d_27">
      <path clip-path="url(#p5530d661fa)" d="M 102.69 335.496103 
L 739.368 335.496103 
" style="fill:none;stroke:#b0b0b0;stroke-linecap:square;stroke-width:0.8;"/>
     </g>
     <g id="line2d_28">
      <g>
       <use style="stroke:#000000;stroke-width:0.8;" x="102.69" xlink:href="#m2cbef9550f" y="335.496103"/>
      </g>
     </g>
     <g id="text_15">
      <!-- 0.8 -->
      <defs>
       <path d="M 31.78125 34.625 
Q 24.75 34.625 20.71875 30.859375 
Q 16.703125 27.09375 16.703125 20.515625 
Q 16.703125 13.921875 20.71875 10.15625 
Q 24.75 6.390625 31.78125 6.390625 
Q 38.8125 6.390625 42.859375 10.171875 
Q 46.921875 13.96875 46.921875 20.515625 
Q 46.921875 27.09375 42.890625 30.859375 
Q 38.875 34.625 31.78125 34.625 
z
M 21.921875 38.8125 
Q 15.578125 40.375 12.03125 44.71875 
Q 8.5 49.078125 8.5 55.328125 
Q 8.5 64.0625 14.71875 69.140625 
Q 20.953125 74.21875 31.78125 74.21875 
Q 42.671875 74.21875 48.875 69.140625 
Q 55.078125 64.0625 55.078125 55.328125 
Q 55.078125 49.078125 51.53125 44.71875 
Q 48 40.375 41.703125 38.8125 
Q 48.828125 37.15625 52.796875 32.3125 
Q 56.78125 27.484375 56.78125 20.515625 
Q 56.78125 9.90625 50.3125 4.234375 
Q 43.84375 -1.421875 31.78125 -1.421875 
Q 19.734375 -1.421875 13.25 4.234375 
Q 6.78125 9.90625 6.78125 20.515625 
Q 6.78125 27.484375 10.78125 32.3125 
Q 14.796875 37.15625 21.921875 38.8125 
z
M 18.3125 54.390625 
Q 18.3125 48.734375 21.84375 45.5625 
Q 25.390625 42.390625 31.78125 42.390625 
Q 38.140625 42.390625 41.71875 45.5625 
Q 45.3125 48.734375 45.3125 54.390625 
Q 45.3125 60.0625 41.71875 63.234375 
Q 38.140625 66.40625 31.78125 66.40625 
Q 25.390625 66.40625 21.84375 63.234375 
Q 18.3125 60.0625 18.3125 54.390625 
z
" id="DejaVuSans-56"/>
      </defs>
      <g transform="translate(79.786875 339.295322)scale(0.1 -0.1)">
       <use xlink:href="#DejaVuSans-48"/>
       <use x="63.623047" xlink:href="#DejaVuSans-46"/>
       <use x="95.410156" xlink:href="#DejaVuSans-56"/>
      </g>
     </g>
    </g>
    <g id="ytick_6">
     <g id="line2d_29">
      <path clip-path="url(#p5530d661fa)" d="M 102.69 303.255892 
L 739.368 303.255892 
" style="fill:none;stroke:#b0b0b0;stroke-linecap:square;stroke-width:0.8;"/>
     </g>
     <g id="line2d_30">
      <g>
       <use style="stroke:#000000;stroke-width:0.8;" x="102.69" xlink:href="#m2cbef9550f" y="303.255892"/>
      </g>
     </g>
     <g id="text_16">
      <!-- 1.0 -->
      <g transform="translate(79.786875 307.055111)scale(0.1 -0.1)">
       <use xlink:href="#DejaVuSans-49"/>
       <use x="63.623047" xlink:href="#DejaVuSans-46"/>
       <use x="95.410156" xlink:href="#DejaVuSans-48"/>
      </g>
     </g>
    </g>
    <g id="text_17">
     <!-- coefficient de vitesse $C_V$ -->
     <defs>
      <path d="M 48.78125 52.59375 
L 48.78125 44.1875 
Q 44.96875 46.296875 41.140625 47.34375 
Q 37.3125 48.390625 33.40625 48.390625 
Q 24.65625 48.390625 19.8125 42.84375 
Q 14.984375 37.3125 14.984375 27.296875 
Q 14.984375 17.28125 19.8125 11.734375 
Q 24.65625 6.203125 33.40625 6.203125 
Q 37.3125 6.203125 41.140625 7.25 
Q 44.96875 8.296875 48.78125 10.40625 
L 48.78125 2.09375 
Q 45.015625 0.34375 40.984375 -0.53125 
Q 36.96875 -1.421875 32.421875 -1.421875 
Q 20.0625 -1.421875 12.78125 6.34375 
Q 5.515625 14.109375 5.515625 27.296875 
Q 5.515625 40.671875 12.859375 48.328125 
Q 20.21875 56 33.015625 56 
Q 37.15625 56 41.109375 55.140625 
Q 45.0625 54.296875 48.78125 52.59375 
z
" id="DejaVuSans-99"/>
      <path d="M 30.609375 48.390625 
Q 23.390625 48.390625 19.1875 42.75 
Q 14.984375 37.109375 14.984375 27.296875 
Q 14.984375 17.484375 19.15625 11.84375 
Q 23.34375 6.203125 30.609375 6.203125 
Q 37.796875 6.203125 41.984375 11.859375 
Q 46.1875 17.53125 46.1875 27.296875 
Q 46.1875 37.015625 41.984375 42.703125 
Q 37.796875 48.390625 30.609375 48.390625 
z
M 30.609375 56 
Q 42.328125 56 49.015625 48.375 
Q 55.71875 40.765625 55.71875 27.296875 
Q 55.71875 13.875 49.015625 6.21875 
Q 42.328125 -1.421875 30.609375 -1.421875 
Q 18.84375 -1.421875 12.171875 6.21875 
Q 5.515625 13.875 5.515625 27.296875 
Q 5.515625 40.765625 12.171875 48.375 
Q 18.84375 56 30.609375 56 
z
" id="DejaVuSans-111"/>
      <path d="M 56.203125 29.59375 
L 56.203125 25.203125 
L 14.890625 25.203125 
Q 15.484375 15.921875 20.484375 11.0625 
Q 25.484375 6.203125 34.421875 6.203125 
Q 39.59375 6.203125 44.453125 7.46875 
Q 49.3125 8.734375 54.109375 11.28125 
L 54.109375 2.78125 
Q 49.265625 0.734375 44.1875 -0.34375 
Q 39.109375 -1.421875 33.890625 -1.421875 
Q 20.796875 -1.421875 13.15625 6.1875 
Q 5.515625 13.8125 5.515625 26.8125 
Q 5.515625 40.234375 12.765625 48.109375 
Q 20.015625 56 32.328125 56 
Q 43.359375 56 49.78125 48.890625 
Q 56.203125 41.796875 56.203125 29.59375 
z
M 47.21875 32.234375 
Q 47.125 39.59375 43.09375 43.984375 
Q 39.0625 48.390625 32.421875 48.390625 
Q 24.90625 48.390625 20.390625 44.140625 
Q 15.875 39.890625 15.1875 32.171875 
z
" id="DejaVuSans-101"/>
      <path d="M 37.109375 75.984375 
L 37.109375 68.5 
L 28.515625 68.5 
Q 23.6875 68.5 21.796875 66.546875 
Q 19.921875 64.59375 19.921875 59.515625 
L 19.921875 54.6875 
L 34.71875 54.6875 
L 34.71875 47.703125 
L 19.921875 47.703125 
L 19.921875 0 
L 10.890625 0 
L 10.890625 47.703125 
L 2.296875 47.703125 
L 2.296875 54.6875 
L 10.890625 54.6875 
L 10.890625 58.5 
Q 10.890625 67.625 15.140625 71.796875 
Q 19.390625 75.984375 28.609375 75.984375 
z
" id="DejaVuSans-102"/>
      <path d="M 9.421875 54.6875 
L 18.40625 54.6875 
L 18.40625 0 
L 9.421875 0 
z
M 9.421875 75.984375 
L 18.40625 75.984375 
L 18.40625 64.59375 
L 9.421875 64.59375 
z
" id="DejaVuSans-105"/>
      <path d="M 54.890625 33.015625 
L 54.890625 0 
L 45.90625 0 
L 45.90625 32.71875 
Q 45.90625 40.484375 42.875 44.328125 
Q 39.84375 48.1875 33.796875 48.1875 
Q 26.515625 48.1875 22.3125 43.546875 
Q 18.109375 38.921875 18.109375 30.90625 
L 18.109375 0 
L 9.078125 0 
L 9.078125 54.6875 
L 18.109375 54.6875 
L 18.109375 46.1875 
Q 21.34375 51.125 25.703125 53.5625 
Q 30.078125 56 35.796875 56 
Q 45.21875 56 50.046875 50.171875 
Q 54.890625 44.34375 54.890625 33.015625 
z
" id="DejaVuSans-110"/>
      <path d="M 18.3125 70.21875 
L 18.3125 54.6875 
L 36.8125 54.6875 
L 36.8125 47.703125 
L 18.3125 47.703125 
L 18.3125 18.015625 
Q 18.3125 11.328125 20.140625 9.421875 
Q 21.96875 7.515625 27.59375 7.515625 
L 36.8125 7.515625 
L 36.8125 0 
L 27.59375 0 
Q 17.1875 0 13.234375 3.875 
Q 9.28125 7.765625 9.28125 18.015625 
L 9.28125 47.703125 
L 2.6875 47.703125 
L 2.6875 54.6875 
L 9.28125 54.6875 
L 9.28125 70.21875 
z
" id="DejaVuSans-116"/>
      <path id="DejaVuSans-32"/>
      <path d="M 45.40625 46.390625 
L 45.40625 75.984375 
L 54.390625 75.984375 
L 54.390625 0 
L 45.40625 0 
L 45.40625 8.203125 
Q 42.578125 3.328125 38.25 0.953125 
Q 33.9375 -1.421875 27.875 -1.421875 
Q 17.96875 -1.421875 11.734375 6.484375 
Q 5.515625 14.40625 5.515625 27.296875 
Q 5.515625 40.1875 11.734375 48.09375 
Q 17.96875 56 27.875 56 
Q 33.9375 56 38.25 53.625 
Q 42.578125 51.265625 45.40625 46.390625 
z
M 14.796875 27.296875 
Q 14.796875 17.390625 18.875 11.75 
Q 22.953125 6.109375 30.078125 6.109375 
Q 37.203125 6.109375 41.296875 11.75 
Q 45.40625 17.390625 45.40625 27.296875 
Q 45.40625 37.203125 41.296875 42.84375 
Q 37.203125 48.484375 30.078125 48.484375 
Q 22.953125 48.484375 18.875 42.84375 
Q 14.796875 37.203125 14.796875 27.296875 
z
" id="DejaVuSans-100"/>
      <path d="M 2.984375 54.6875 
L 12.5 54.6875 
L 29.59375 8.796875 
L 46.6875 54.6875 
L 56.203125 54.6875 
L 35.6875 0 
L 23.484375 0 
z
" id="DejaVuSans-118"/>
      <path d="M 44.28125 53.078125 
L 44.28125 44.578125 
Q 40.484375 46.53125 36.375 47.5 
Q 32.28125 48.484375 27.875 48.484375 
Q 21.1875 48.484375 17.84375 46.4375 
Q 14.5 44.390625 14.5 40.28125 
Q 14.5 37.15625 16.890625 35.375 
Q 19.28125 33.59375 26.515625 31.984375 
L 29.59375 31.296875 
Q 39.15625 29.25 43.1875 25.515625 
Q 47.21875 21.78125 47.21875 15.09375 
Q 47.21875 7.46875 41.1875 3.015625 
Q 35.15625 -1.421875 24.609375 -1.421875 
Q 20.21875 -1.421875 15.453125 -0.5625 
Q 10.6875 0.296875 5.421875 2 
L 5.421875 11.28125 
Q 10.40625 8.6875 15.234375 7.390625 
Q 20.0625 6.109375 24.8125 6.109375 
Q 31.15625 6.109375 34.5625 8.28125 
Q 37.984375 10.453125 37.984375 14.40625 
Q 37.984375 18.0625 35.515625 20.015625 
Q 33.0625 21.96875 24.703125 23.78125 
L 21.578125 24.515625 
Q 13.234375 26.265625 9.515625 29.90625 
Q 5.8125 33.546875 5.8125 39.890625 
Q 5.8125 47.609375 11.28125 51.796875 
Q 16.75 56 26.8125 56 
Q 31.78125 56 36.171875 55.265625 
Q 40.578125 54.546875 44.28125 53.078125 
z
" id="DejaVuSans-115"/>
      <path d="M 69.484375 67.28125 
L 67.484375 56.890625 
Q 62.796875 61.625 57.546875 63.921875 
Q 52.296875 66.21875 46.1875 66.21875 
Q 37.84375 66.21875 31.515625 62.203125 
Q 25.203125 58.203125 20.609375 50 
Q 17.671875 44.734375 16.125 38.84375 
Q 14.59375 32.953125 14.59375 27 
Q 14.59375 17.046875 19.75 11.8125 
Q 24.90625 6.59375 34.71875 6.59375 
Q 41.5 6.59375 47.75 8.765625 
Q 54 10.9375 59.90625 15.28125 
L 57.625 3.609375 
Q 51.8125 1.125 45.875 -0.140625 
Q 39.9375 -1.421875 33.984375 -1.421875 
Q 19.96875 -1.421875 12.078125 6.1875 
Q 4.203125 13.8125 4.203125 27.390625 
Q 4.203125 36.078125 7.203125 44.46875 
Q 10.203125 52.875 15.828125 59.8125 
Q 21.78125 67.1875 29.421875 70.703125 
Q 37.0625 74.21875 47.21875 74.21875 
Q 53.46875 74.21875 59.0625 72.484375 
Q 64.65625 70.75 69.484375 67.28125 
z
" id="DejaVuSans-Oblique-67"/>
      <path d="M 20.609375 0 
L 7.8125 72.90625 
L 17.484375 72.90625 
L 28.078125 10.203125 
L 63.484375 72.90625 
L 74.21875 72.90625 
L 32.078125 0 
z
" id="DejaVuSans-Oblique-86"/>
     </defs>
     <g transform="translate(73.707187 440.7724)rotate(-90)scale(0.1 -0.1)">
      <use transform="translate(0 0.015625)" xlink:href="#DejaVuSans-99"/>
      <use transform="translate(54.980469 0.015625)" xlink:href="#DejaVuSans-111"/>
      <use transform="translate(116.162109 0.015625)" xlink:href="#DejaVuSans-101"/>
      <use transform="translate(177.685547 0.015625)" xlink:href="#DejaVuSans-102"/>
      <use transform="translate(212.890625 0.015625)" xlink:href="#DejaVuSans-102"/>
      <use transform="translate(248.095703 0.015625)" xlink:href="#DejaVuSans-105"/>
      <use transform="translate(275.878906 0.015625)" xlink:href="#DejaVuSans-99"/>
      <use transform="translate(330.859375 0.015625)" xlink:href="#DejaVuSans-105"/>
      <use transform="translate(358.642578 0.015625)" xlink:href="#DejaVuSans-101"/>
      <use transform="translate(420.166016 0.015625)" xlink:href="#DejaVuSans-110"/>
      <use transform="translate(483.544922 0.015625)" xlink:href="#DejaVuSans-116"/>
      <use transform="translate(522.753906 0.015625)" xlink:href="#DejaVuSans-32"/>
      <use transform="translate(554.541016 0.015625)" xlink:href="#DejaVuSans-100"/>
      <use transform="translate(618.017578 0.015625)" xlink:href="#DejaVuSans-101"/>
      <use transform="translate(679.541016 0.015625)" xlink:href="#DejaVuSans-32"/>
      <use transform="translate(711.328125 0.015625)" xlink:href="#DejaVuSans-118"/>
      <use transform="translate(770.507812 0.015625)" xlink:href="#DejaVuSans-105"/>
      <use transform="translate(798.291016 0.015625)" xlink:href="#DejaVuSans-116"/>
      <use transform="translate(837.5 0.015625)" xlink:href="#DejaVuSans-101"/>
      <use transform="translate(899.023438 0.015625)" xlink:href="#DejaVuSans-115"/>
      <use transform="translate(951.123047 0.015625)" xlink:href="#DejaVuSans-115"/>
      <use transform="translate(1003.222656 0.015625)" xlink:href="#DejaVuSans-101"/>
      <use transform="translate(1064.746094 0.015625)" xlink:href="#DejaVuSans-32"/>
      <use transform="translate(1096.533203 0.015625)" xlink:href="#DejaVuSans-Oblique-67"/>
      <use transform="translate(1166.357422 -16.390625)scale(0.7)" xlink:href="#DejaVuSans-Oblique-86"/>
     </g>
    </g>
   </g>
   <g id="line2d_31">
    <path clip-path="url(#p5530d661fa)" d="M 131.629909 464.456945 
L 132.209287 447.277566 
L 132.788664 440.212077 
L 133.947419 430.454298 
L 135.106174 423.391164 
L 136.26493 417.96789 
L 137.423685 413.80548 
L 138.58244 410.726047 
L 139.741195 408.63289 
L 140.320572 407.936907 
L 140.89995 407.4672 
L 141.479328 407.219267 
L 142.058705 407.189199 
L 142.638083 407.373523 
L 143.21746 407.769099 
L 143.796838 408.373058 
L 144.376215 409.182772 
L 145.534971 411.410249 
L 146.693726 414.436535 
L 147.852481 418.255321 
L 149.011236 422.877903 
L 150.169991 428.354152 
L 151.328746 434.828944 
L 152.487501 442.743175 
L 153.066879 447.680708 
L 153.646256 454.301591 
L 154.225634 464.456945 
L 162.33692 464.456945 
L 162.916297 459.357056 
L 163.495675 449.700653 
L 164.65443 438.811162 
L 165.813185 430.380577 
L 167.551318 419.740179 
L 169.28945 410.769074 
L 171.027583 403.267652 
L 172.186338 399.07155 
L 173.345093 395.527277 
L 174.503848 392.643855 
L 175.662604 390.428231 
L 176.821359 388.883119 
L 177.400736 388.361323 
L 177.980114 388.005519 
L 178.559491 387.814255 
L 179.138869 387.78559 
L 179.718247 387.917069 
L 180.297624 388.205689 
L 180.877002 388.647874 
L 182.035757 389.975549 
L 183.194512 391.858625 
L 184.353267 394.243883 
L 185.512022 397.064493 
L 187.250155 401.925073 
L 191.885175 415.528598 
L 193.04393 418.091693 
L 193.623308 419.092631 
L 194.202686 419.869112 
L 194.782063 420.397209 
L 195.361441 420.658337 
L 195.940818 420.640749 
L 196.520196 420.340521 
L 197.099573 419.761825 
L 197.678951 418.916416 
L 198.837706 416.503059 
L 199.996461 413.294269 
L 201.734594 407.472949 
L 207.528369 386.669627 
L 209.266502 381.607196 
L 210.425257 378.775326 
L 211.584012 376.430595 
L 212.742767 374.604525 
L 213.901523 373.317245 
L 215.060278 372.577823 
L 215.639655 372.413394 
L 216.219033 372.384353 
L 216.79841 372.488729 
L 217.377788 372.723844 
L 218.536543 373.571952 
L 219.695298 374.892542 
L 220.854053 376.637101 
L 222.012808 378.744035 
L 223.750941 382.414863 
L 228.385962 392.707862 
L 229.544717 394.703469 
L 230.703472 396.195451 
L 231.282849 396.715382 
L 231.862227 397.068503 
L 232.441604 397.245868 
L 233.020982 397.241473 
L 233.60036 397.052499 
L 234.179737 396.679417 
L 234.759115 396.125936 
L 235.91787 394.507542 
L 237.076625 392.281735 
L 238.23538 389.562849 
L 239.973513 384.845362 
L 245.187911 370.011264 
L 246.926043 365.968682 
L 248.084799 363.733032 
L 249.243554 361.917543 
L 250.402309 360.553358 
L 251.561064 359.659563 
L 252.719819 359.243391 
L 253.299197 359.213458 
L 253.878574 359.300312 
L 255.037329 359.814016 
L 256.196084 360.756321 
L 257.354839 362.087036 
L 258.513595 363.753817 
L 260.251727 366.739607 
L 265.466125 376.40809 
L 266.62488 378.034291 
L 267.783636 379.243245 
L 268.942391 379.951448 
L 269.521768 380.09833 
L 270.101146 380.100456 
L 270.680523 379.955484 
L 271.259901 379.663256 
L 271.839278 379.225788 
L 272.998034 377.933555 
L 274.156789 376.134052 
L 275.315544 373.906972 
L 277.053676 369.97714 
L 282.847452 355.91889 
L 284.585585 352.558135 
L 285.74434 350.739826 
L 286.903095 349.305874 
L 288.06185 348.282852 
L 289.220605 347.685515 
L 290.37936 347.516856 
L 291.538115 347.768151 
L 292.696871 348.418995 
L 293.855626 349.437351 
L 295.014381 350.77966 
L 296.752514 353.277589 
L 299.070024 357.141739 
L 301.387534 360.995444 
L 303.125667 363.431796 
L 304.284422 364.670059 
L 305.443177 365.508925 
L 306.601932 365.889917 
L 307.18131 365.89655 
L 307.760687 365.777305 
L 308.340065 365.531807 
L 309.49882 364.668988 
L 310.657575 363.337977 
L 311.81633 361.591684 
L 313.554463 358.352423 
L 315.871973 353.329651 
L 319.348238 345.731258 
L 321.086371 342.478994 
L 322.245126 340.656041 
L 323.403881 339.161905 
L 324.562636 338.029101 
L 325.721391 337.278756 
L 326.880147 336.920541 
L 328.038902 336.952671 
L 329.197657 337.361947 
L 330.356412 338.123875 
L 331.515167 339.202863 
L 332.673922 340.552569 
L 334.412055 342.958464 
L 339.626453 350.606121 
L 340.785208 351.870911 
L 341.943963 352.81037 
L 343.102718 353.365816 
L 344.261473 353.49604 
L 345.420229 353.180563 
L 346.578984 352.421258 
L 347.737739 351.242038 
L 348.896494 349.686684 
L 350.634627 346.783048 
L 352.952137 342.241085 
L 356.428402 335.291665 
L 358.166535 332.290657 
L 359.32529 330.601425 
L 360.484045 329.212508 
L 361.6428 328.155921 
L 362.801555 327.452796 
L 363.96031 327.113215 
L 365.119066 327.136161 
L 366.277821 327.509557 
L 367.436576 328.210426 
L 368.595331 329.205171 
L 369.754086 330.450026 
L 371.492219 332.667452 
L 376.706617 339.690167 
L 377.865372 340.848582 
L 379.024127 341.71006 
L 380.182882 342.222246 
L 381.341637 342.348263 
L 382.500392 342.069363 
L 383.659147 341.386276 
L 384.817903 340.319048 
L 385.976658 338.905391 
L 387.71479 336.25342 
L 390.032301 332.078074 
L 393.508566 325.634984 
L 395.246699 322.833459 
L 396.405454 321.25112 
L 397.564209 319.946613 
L 398.722964 318.951264 
L 399.881719 318.285999 
L 401.040474 317.961112 
L 402.199229 317.976161 
L 403.357984 318.320014 
L 404.51674 318.971022 
L 405.675495 319.897353 
L 407.413627 321.709862 
L 409.731138 324.631461 
L 412.628025 328.362897 
L 414.366158 330.224275 
L 415.524913 331.170104 
L 416.683668 331.815881 
L 417.842423 332.120535 
L 419.001179 332.058241 
L 420.159934 331.620173 
L 421.318689 330.815058 
L 422.477444 329.668463 
L 423.636199 328.220928 
L 425.374332 325.603312 
L 428.271219 320.589992 
L 431.168107 315.68339 
L 432.90624 313.192134 
L 434.064995 311.823042 
L 435.22375 310.729961 
L 436.382505 309.938545 
L 437.54126 309.46433 
L 438.700016 309.312523 
L 439.858771 309.477957 
L 441.017526 309.945199 
L 442.176281 310.688819 
L 443.335036 311.673858 
L 445.073169 313.506075 
L 448.549434 317.750993 
L 450.287567 319.732238 
L 451.446322 320.851338 
L 452.605077 321.740108 
L 453.763832 322.348888 
L 454.922587 322.639622 
L 456.081342 322.588205 
L 457.240097 322.186029 
L 458.398853 321.440497 
L 459.557608 320.374456 
L 460.716363 319.02463 
L 462.454495 316.575737 
L 464.772006 312.831234 
L 468.248271 307.225287 
L 469.986404 304.860879 
L 471.145159 303.558175 
L 472.303914 302.515736 
L 473.462669 301.758682 
L 474.621424 301.302404 
L 475.780179 301.152314 
L 476.938934 301.303786 
L 478.09769 301.742256 
L 479.256445 302.443514 
L 480.4152 303.374187 
L 482.153333 305.106812 
L 485.629598 309.121408 
L 487.367731 310.994918 
L 489.105863 312.504875 
L 490.264618 313.22034 
L 491.423373 313.653164 
L 492.582129 313.773922 
L 493.740884 313.566909 
L 494.899639 313.031099 
L 496.058394 312.180146 
L 497.217149 311.04147 
L 498.955282 308.882958 
L 501.272792 305.439455 
L 502.431547 303.608776 
L 503.010925 301.751119 
L 504.16968 297.563757 
L 504.749057 296.196404 
L 505.328435 295.480801 
L 505.907812 295.475262 
L 506.48719 296.180237 
L 507.066568 297.538286 
L 508.225323 301.71414 
L 509.963455 308.701424 
L 510.542833 310.33376 
L 511.12221 311.302424 
L 511.701588 311.504014 
L 512.280966 310.916763 
L 512.860343 309.603841 
L 513.439721 307.703889 
L 515.757231 298.443723 
L 516.336609 296.793924 
L 516.915986 295.746649 
L 517.495364 295.387855 
L 518.074741 295.746649 
L 518.654119 296.793924 
L 519.233496 298.443723 
L 520.392251 302.95209 
L 521.551007 307.703889 
L 522.130384 309.603841 
L 522.709762 310.916763 
L 523.289139 311.504014 
L 523.868517 311.302424 
L 524.447894 310.33376 
L 525.027272 308.701424 
L 526.186027 304.169014 
L 527.344782 299.436842 
L 527.92416 297.538286 
L 528.503537 296.180237 
L 529.082915 295.475262 
L 529.662292 295.480801 
L 530.24167 296.196404 
L 530.821048 297.563757 
L 531.979803 301.751119 
L 533.717935 308.730781 
L 534.297313 310.354049 
L 534.87669 311.3115 
L 535.456068 311.500899 
L 536.035446 310.901793 
L 536.614823 309.578618 
L 537.194201 307.671041 
L 539.511711 298.41441 
L 540.091088 296.772959 
L 540.670466 295.735766 
L 541.249844 295.38794 
L 541.829221 295.757696 
L 542.408599 296.815034 
L 542.987976 298.473146 
L 544.146731 302.990019 
L 545.305486 307.736643 
L 545.884864 309.628925 
L 546.464242 310.93156 
L 547.043619 311.506941 
L 547.622997 311.293165 
L 548.202374 310.313312 
L 548.781752 308.67195 
L 549.940507 304.131016 
L 551.099262 299.404294 
L 551.67864 297.512944 
L 552.258017 296.164225 
L 552.837395 295.469893 
L 553.416772 295.486509 
L 553.99615 296.212727 
L 554.575527 297.589356 
L 555.734283 301.788139 
L 557.472415 308.760019 
L 558.051793 310.374179 
L 558.63117 311.320392 
L 559.210548 311.497595 
L 559.789925 310.88665 
L 560.369303 309.553255 
L 560.948681 307.638101 
L 563.266191 298.385208 
L 563.845568 296.752137 
L 564.424946 295.725048 
L 565.004324 295.388197 
L 565.583701 295.768906 
L 566.163079 296.836286 
L 566.742456 298.50268 
L 567.901211 303.027963 
L 569.059966 307.769303 
L 569.639344 309.653867 
L 570.218722 310.946183 
L 570.798099 311.50968 
L 571.377477 311.283723 
L 571.956854 310.292707 
L 572.536232 308.642359 
L 573.694987 304.093008 
L 574.853742 299.371837 
L 575.43312 297.487732 
L 576.012497 296.14837 
L 576.591875 295.464693 
L 577.171252 295.492386 
L 577.75063 296.229205 
L 578.330007 297.615084 
L 579.488762 301.825201 
L 581.226895 308.789138 
L 581.806273 310.39415 
L 582.38565 311.329101 
L 582.965028 311.494102 
L 583.544405 310.871335 
L 584.123783 309.527753 
L 585.282538 305.299806 
L 587.020671 298.356118 
L 587.600048 296.73146 
L 588.179426 295.714494 
L 588.758803 295.388624 
L 589.338181 295.780281 
L 589.917559 296.857681 
L 590.496936 298.532323 
L 591.655691 303.065921 
L 592.814446 307.801868 
L 593.393824 309.678669 
L 593.973201 310.960632 
L 594.552579 311.51223 
L 595.131957 311.274098 
L 595.711334 310.271944 
L 596.290712 308.612651 
L 597.449467 304.05499 
L 598.608222 299.339472 
L 599.1876 297.462649 
L 599.766977 296.13267 
L 600.346355 295.459663 
L 600.925732 295.498432 
L 601.50511 296.245837 
L 602.084487 297.640938 
L 603.243242 301.862303 
L 604.981375 308.818137 
L 605.560753 310.413961 
L 606.14013 311.337626 
L 606.719508 311.490422 
L 607.298885 310.855848 
L 607.878263 309.502113 
L 609.037018 305.262522 
L 610.775151 298.327141 
L 611.354528 296.710928 
L 611.933906 295.704104 
L 612.513283 295.389223 
L 613.092661 295.791819 
L 613.672038 296.879219 
L 614.251416 298.562076 
L 615.410171 303.103892 
L 616.568926 307.834337 
L 617.148304 309.703328 
L 617.727681 310.974906 
L 618.307059 311.514592 
L 618.886437 311.264291 
L 619.465814 310.251024 
L 620.045192 308.582828 
L 621.203947 304.016964 
L 621.783324 304.762802 
L 623.521457 310.895172 
L 624.680212 314.000018 
L 625.25959 315.095098 
L 625.838967 315.841283 
L 626.418345 316.225819 
L 626.997722 316.253609 
L 627.5771 315.946996 
L 628.156477 315.344348 
L 629.315233 313.469066 
L 631.632743 308.94965 
L 632.21212 308.066966 
L 632.791498 307.405488 
L 633.370876 307.012193 
L 633.950253 306.923758 
L 634.529631 307.165733 
L 635.109008 307.751988 
L 635.688386 308.684407 
L 636.267763 309.952777 
L 637.426518 313.396896 
L 638.585274 317.770328 
L 641.482161 329.396824 
L 642.640916 332.759101 
L 643.220294 333.907147 
L 643.799672 334.652592 
L 644.379049 334.98446 
L 644.958427 334.912915 
L 645.537804 334.468668 
L 646.117182 333.700784 
L 647.275937 331.460747 
L 649.593447 326.388348 
L 650.172825 325.452803 
L 650.752202 324.782351 
L 651.33158 324.42609 
L 651.910957 324.421567 
L 652.490335 324.794139 
L 653.069713 325.556562 
L 653.64909 326.708764 
L 654.228468 328.237759 
L 655.387223 332.310054 
L 656.545978 337.417158 
L 659.442866 350.849625 
L 660.601621 354.646551 
L 661.180998 355.898756 
L 661.760376 356.664836 
L 662.339753 356.935046 
L 662.919131 356.727084 
L 663.498509 356.084774 
L 664.077886 355.074344 
L 665.236641 352.292975 
L 666.974774 347.673983 
L 668.133529 345.370796 
L 668.712907 344.678646 
L 669.292284 344.366647 
L 669.871662 344.47415 
L 670.451039 345.02726 
L 671.030417 346.038662 
L 671.609794 347.507524 
L 672.189172 349.419399 
L 673.347927 354.445757 
L 674.506682 360.72621 
L 677.40357 377.407275 
L 678.562325 382.119737 
L 679.141703 383.624389 
L 679.72108 384.478893 
L 680.300458 384.670621 
L 680.879835 384.230742 
L 681.459213 383.230862 
L 682.03859 381.77445 
L 683.197346 377.997366 
L 684.935478 372.128177 
L 685.514856 370.583577 
L 686.094233 369.401087 
L 686.673611 368.652562 
L 687.252989 368.395444 
L 687.832366 368.673237 
L 688.411744 369.51602 
L 688.991121 370.940924 
L 689.570499 372.952515 
L 690.149876 375.543055 
L 691.308631 382.368819 
L 692.467387 391.106886 
L 694.205519 406.540294 
L 695.943652 421.663766 
L 696.523029 425.627718 
L 697.102407 428.535611 
L 697.681785 430.088837 
L 698.261162 430.139477 
L 698.84054 428.777645 
L 699.419917 426.297681 
L 700.578672 419.46761 
L 702.316805 408.914988 
L 703.47556 403.79065 
L 704.054938 402.133643 
L 704.634315 401.182148 
L 705.213693 400.999072 
L 705.79307 401.641397 
L 706.372448 403.164928 
L 706.951826 405.631019 
L 707.531203 409.117794 
L 708.110581 413.74164 
L 708.689958 419.705081 
L 709.269336 427.427931 
L 709.848713 438.06461 
L 710.428091 464.456945 
L 710.428091 464.456945 
" style="fill:none;stroke:#1f77b4;stroke-linecap:square;stroke-width:1.5;"/>
   </g>
   <g id="line2d_32">
    <path clip-path="url(#p5530d661fa)" d="M 131.629909 464.456945 
L 502.654385 303.255892 
L 621.382217 303.255892 
L 710.428091 464.456945 
" style="fill:none;stroke:#000000;stroke-dasharray:1.48,0.64;stroke-dashoffset:0;stroke-width:0.4;"/>
   </g>
   <g id="line2d_33">
    <path clip-path="url(#p5530d661fa)" d="M 502.654385 464.456945 
L 502.654385 303.255892 
" style="fill:none;stroke:#ff0000;stroke-dasharray:2.22,0.96;stroke-dashoffset:0;stroke-width:0.6;"/>
   </g>
   <g id="line2d_34">
    <path clip-path="url(#p5530d661fa)" d="M 621.382217 464.456945 
L 621.382217 303.255892 
" style="fill:none;stroke:#ff0000;stroke-dasharray:2.22,0.96;stroke-dashoffset:0;stroke-width:0.6;"/>
   </g>
   <g id="patch_3">
    <path d="M 102.69 472.9104 
L 102.69 286.9344 
" style="fill:none;stroke:#000000;stroke-linecap:square;stroke-linejoin:miter;stroke-width:0.8;"/>
   </g>
   <g id="patch_4">
    <path d="M 739.368 472.9104 
L 739.368 286.9344 
" style="fill:none;stroke:#000000;stroke-linecap:square;stroke-linejoin:miter;stroke-width:0.8;"/>
   </g>
   <g id="patch_5">
    <path d="M 102.69 472.9104 
L 739.368 472.9104 
" style="fill:none;stroke:#000000;stroke-linecap:square;stroke-linejoin:miter;stroke-width:0.8;"/>
   </g>
   <g id="patch_6">
    <path d="M 102.69 286.9344 
L 739.368 286.9344 
" style="fill:none;stroke:#000000;stroke-linecap:square;stroke-linejoin:miter;stroke-width:0.8;"/>
   </g>
  </g>
  <g id="axes_2">
   <g id="patch_7">
    <path d="M 102.69 249.7392 
L 739.368 249.7392 
L 739.368 63.7632 
L 102.69 63.7632 
z
" style="fill:#ffffff;"/>
   </g>
   <g id="matplotlib.axis_3">
    <g id="xtick_10">
     <g id="line2d_35">
      <path clip-path="url(#pa0dd3774ff)" d="M 131.629909 249.7392 
L 131.629909 63.7632 
" style="fill:none;stroke:#b0b0b0;stroke-linecap:square;stroke-width:0.8;"/>
     </g>
     <g id="line2d_36">
      <g>
       <use style="stroke:#000000;stroke-width:0.8;" x="131.629909" xlink:href="#mce71701946" y="249.7392"/>
      </g>
     </g>
     <g id="text_18">
      <!-- 0 -->
      <g transform="translate(128.448659 264.337637)scale(0.1 -0.1)">
       <use xlink:href="#DejaVuSans-48"/>
      </g>
     </g>
    </g>
    <g id="xtick_11">
     <g id="line2d_37">
      <path clip-path="url(#pa0dd3774ff)" d="M 205.834804 249.7392 
L 205.834804 63.7632 
" style="fill:none;stroke:#b0b0b0;stroke-linecap:square;stroke-width:0.8;"/>
     </g>
     <g id="line2d_38">
      <g>
       <use style="stroke:#000000;stroke-width:0.8;" x="205.834804" xlink:href="#mce71701946" y="249.7392"/>
      </g>
     </g>
     <g id="text_19">
      <!-- 5 -->
      <g transform="translate(202.653554 264.337637)scale(0.1 -0.1)">
       <use xlink:href="#DejaVuSans-53"/>
      </g>
     </g>
    </g>
    <g id="xtick_12">
     <g id="line2d_39">
      <path clip-path="url(#pa0dd3774ff)" d="M 280.039699 249.7392 
L 280.039699 63.7632 
" style="fill:none;stroke:#b0b0b0;stroke-linecap:square;stroke-width:0.8;"/>
     </g>
     <g id="line2d_40">
      <g>
       <use style="stroke:#000000;stroke-width:0.8;" x="280.039699" xlink:href="#mce71701946" y="249.7392"/>
      </g>
     </g>
     <g id="text_20">
      <!-- 10 -->
      <g transform="translate(273.677199 264.337637)scale(0.1 -0.1)">
       <use xlink:href="#DejaVuSans-49"/>
       <use x="63.623047" xlink:href="#DejaVuSans-48"/>
      </g>
     </g>
    </g>
    <g id="xtick_13">
     <g id="line2d_41">
      <path clip-path="url(#pa0dd3774ff)" d="M 354.244594 249.7392 
L 354.244594 63.7632 
" style="fill:none;stroke:#b0b0b0;stroke-linecap:square;stroke-width:0.8;"/>
     </g>
     <g id="line2d_42">
      <g>
       <use style="stroke:#000000;stroke-width:0.8;" x="354.244594" xlink:href="#mce71701946" y="249.7392"/>
      </g>
     </g>
     <g id="text_21">
      <!-- 15 -->
      <g transform="translate(347.882094 264.337637)scale(0.1 -0.1)">
       <use xlink:href="#DejaVuSans-49"/>
       <use x="63.623047" xlink:href="#DejaVuSans-53"/>
      </g>
     </g>
    </g>
    <g id="xtick_14">
     <g id="line2d_43">
      <path clip-path="url(#pa0dd3774ff)" d="M 428.44949 249.7392 
L 428.44949 63.7632 
" style="fill:none;stroke:#b0b0b0;stroke-linecap:square;stroke-width:0.8;"/>
     </g>
     <g id="line2d_44">
      <g>
       <use style="stroke:#000000;stroke-width:0.8;" x="428.44949" xlink:href="#mce71701946" y="249.7392"/>
      </g>
     </g>
     <g id="text_22">
      <!-- 20 -->
      <g transform="translate(422.08699 264.337637)scale(0.1 -0.1)">
       <use xlink:href="#DejaVuSans-50"/>
       <use x="63.623047" xlink:href="#DejaVuSans-48"/>
      </g>
     </g>
    </g>
    <g id="xtick_15">
     <g id="line2d_45">
      <path clip-path="url(#pa0dd3774ff)" d="M 502.654385 249.7392 
L 502.654385 63.7632 
" style="fill:none;stroke:#b0b0b0;stroke-linecap:square;stroke-width:0.8;"/>
     </g>
     <g id="line2d_46">
      <g>
       <use style="stroke:#000000;stroke-width:0.8;" x="502.654385" xlink:href="#mce71701946" y="249.7392"/>
      </g>
     </g>
     <g id="text_23">
      <!-- 25 -->
      <g transform="translate(496.291885 264.337637)scale(0.1 -0.1)">
       <use xlink:href="#DejaVuSans-50"/>
       <use x="63.623047" xlink:href="#DejaVuSans-53"/>
      </g>
     </g>
    </g>
    <g id="xtick_16">
     <g id="line2d_47">
      <path clip-path="url(#pa0dd3774ff)" d="M 576.85928 249.7392 
L 576.85928 63.7632 
" style="fill:none;stroke:#b0b0b0;stroke-linecap:square;stroke-width:0.8;"/>
     </g>
     <g id="line2d_48">
      <g>
       <use style="stroke:#000000;stroke-width:0.8;" x="576.85928" xlink:href="#mce71701946" y="249.7392"/>
      </g>
     </g>
     <g id="text_24">
      <!-- 30 -->
      <g transform="translate(570.49678 264.337637)scale(0.1 -0.1)">
       <use xlink:href="#DejaVuSans-51"/>
       <use x="63.623047" xlink:href="#DejaVuSans-48"/>
      </g>
     </g>
    </g>
    <g id="xtick_17">
     <g id="line2d_49">
      <path clip-path="url(#pa0dd3774ff)" d="M 651.064175 249.7392 
L 651.064175 63.7632 
" style="fill:none;stroke:#b0b0b0;stroke-linecap:square;stroke-width:0.8;"/>
     </g>
     <g id="line2d_50">
      <g>
       <use style="stroke:#000000;stroke-width:0.8;" x="651.064175" xlink:href="#mce71701946" y="249.7392"/>
      </g>
     </g>
     <g id="text_25">
      <!-- 35 -->
      <g transform="translate(644.701675 264.337637)scale(0.1 -0.1)">
       <use xlink:href="#DejaVuSans-51"/>
       <use x="63.623047" xlink:href="#DejaVuSans-53"/>
      </g>
     </g>
    </g>
    <g id="xtick_18">
     <g id="line2d_51">
      <path clip-path="url(#pa0dd3774ff)" d="M 725.26907 249.7392 
L 725.26907 63.7632 
" style="fill:none;stroke:#b0b0b0;stroke-linecap:square;stroke-width:0.8;"/>
     </g>
     <g id="line2d_52">
      <g>
       <use style="stroke:#000000;stroke-width:0.8;" x="725.26907" xlink:href="#mce71701946" y="249.7392"/>
      </g>
     </g>
     <g id="text_26">
      <!-- 40 -->
      <g transform="translate(718.90657 264.337637)scale(0.1 -0.1)">
       <use xlink:href="#DejaVuSans-52"/>
       <use x="63.623047" xlink:href="#DejaVuSans-48"/>
      </g>
     </g>
    </g>
   </g>
   <g id="matplotlib.axis_4">
    <g id="ytick_7">
     <g id="line2d_53">
      <path clip-path="url(#pa0dd3774ff)" d="M 102.69 237.353474 
L 739.368 237.353474 
" style="fill:none;stroke:#b0b0b0;stroke-linecap:square;stroke-width:0.8;"/>
     </g>
     <g id="line2d_54">
      <g>
       <use style="stroke:#000000;stroke-width:0.8;" x="102.69" xlink:href="#m2cbef9550f" y="237.353474"/>
      </g>
     </g>
     <g id="text_27">
      <!-- 0 -->
      <g transform="translate(89.3275 241.152693)scale(0.1 -0.1)">
       <use xlink:href="#DejaVuSans-48"/>
      </g>
     </g>
    </g>
    <g id="ytick_8">
     <g id="line2d_55">
      <path clip-path="url(#pa0dd3774ff)" d="M 102.69 215.734877 
L 739.368 215.734877 
" style="fill:none;stroke:#b0b0b0;stroke-linecap:square;stroke-width:0.8;"/>
     </g>
     <g id="line2d_56">
      <g>
       <use style="stroke:#000000;stroke-width:0.8;" x="102.69" xlink:href="#m2cbef9550f" y="215.734877"/>
      </g>
     </g>
     <g id="text_28">
      <!-- 2500 -->
      <g transform="translate(70.24 219.534096)scale(0.1 -0.1)">
       <use xlink:href="#DejaVuSans-50"/>
       <use x="63.623047" xlink:href="#DejaVuSans-53"/>
       <use x="127.246094" xlink:href="#DejaVuSans-48"/>
       <use x="190.869141" xlink:href="#DejaVuSans-48"/>
      </g>
     </g>
    </g>
    <g id="ytick_9">
     <g id="line2d_57">
      <path clip-path="url(#pa0dd3774ff)" d="M 102.69 194.11628 
L 739.368 194.11628 
" style="fill:none;stroke:#b0b0b0;stroke-linecap:square;stroke-width:0.8;"/>
     </g>
     <g id="line2d_58">
      <g>
       <use style="stroke:#000000;stroke-width:0.8;" x="102.69" xlink:href="#m2cbef9550f" y="194.11628"/>
      </g>
     </g>
     <g id="text_29">
      <!-- 5000 -->
      <g transform="translate(70.24 197.915499)scale(0.1 -0.1)">
       <use xlink:href="#DejaVuSans-53"/>
       <use x="63.623047" xlink:href="#DejaVuSans-48"/>
       <use x="127.246094" xlink:href="#DejaVuSans-48"/>
       <use x="190.869141" xlink:href="#DejaVuSans-48"/>
      </g>
     </g>
    </g>
    <g id="ytick_10">
     <g id="line2d_59">
      <path clip-path="url(#pa0dd3774ff)" d="M 102.69 172.497683 
L 739.368 172.497683 
" style="fill:none;stroke:#b0b0b0;stroke-linecap:square;stroke-width:0.8;"/>
     </g>
     <g id="line2d_60">
      <g>
       <use style="stroke:#000000;stroke-width:0.8;" x="102.69" xlink:href="#m2cbef9550f" y="172.497683"/>
      </g>
     </g>
     <g id="text_30">
      <!-- 7500 -->
      <defs>
       <path d="M 8.203125 72.90625 
L 55.078125 72.90625 
L 55.078125 68.703125 
L 28.609375 0 
L 18.3125 0 
L 43.21875 64.59375 
L 8.203125 64.59375 
z
" id="DejaVuSans-55"/>
      </defs>
      <g transform="translate(70.24 176.296901)scale(0.1 -0.1)">
       <use xlink:href="#DejaVuSans-55"/>
       <use x="63.623047" xlink:href="#DejaVuSans-53"/>
       <use x="127.246094" xlink:href="#DejaVuSans-48"/>
       <use x="190.869141" xlink:href="#DejaVuSans-48"/>
      </g>
     </g>
    </g>
    <g id="ytick_11">
     <g id="line2d_61">
      <path clip-path="url(#pa0dd3774ff)" d="M 102.69 150.879086 
L 739.368 150.879086 
" style="fill:none;stroke:#b0b0b0;stroke-linecap:square;stroke-width:0.8;"/>
     </g>
     <g id="line2d_62">
      <g>
       <use style="stroke:#000000;stroke-width:0.8;" x="102.69" xlink:href="#m2cbef9550f" y="150.879086"/>
      </g>
     </g>
     <g id="text_31">
      <!-- 10000 -->
      <g transform="translate(63.8775 154.678304)scale(0.1 -0.1)">
       <use xlink:href="#DejaVuSans-49"/>
       <use x="63.623047" xlink:href="#DejaVuSans-48"/>
       <use x="127.246094" xlink:href="#DejaVuSans-48"/>
       <use x="190.869141" xlink:href="#DejaVuSans-48"/>
       <use x="254.492188" xlink:href="#DejaVuSans-48"/>
      </g>
     </g>
    </g>
    <g id="ytick_12">
     <g id="line2d_63">
      <path clip-path="url(#pa0dd3774ff)" d="M 102.69 129.260488 
L 739.368 129.260488 
" style="fill:none;stroke:#b0b0b0;stroke-linecap:square;stroke-width:0.8;"/>
     </g>
     <g id="line2d_64">
      <g>
       <use style="stroke:#000000;stroke-width:0.8;" x="102.69" xlink:href="#m2cbef9550f" y="129.260488"/>
      </g>
     </g>
     <g id="text_32">
      <!-- 12500 -->
      <g transform="translate(63.8775 133.059707)scale(0.1 -0.1)">
       <use xlink:href="#DejaVuSans-49"/>
       <use x="63.623047" xlink:href="#DejaVuSans-50"/>
       <use x="127.246094" xlink:href="#DejaVuSans-53"/>
       <use x="190.869141" xlink:href="#DejaVuSans-48"/>
       <use x="254.492188" xlink:href="#DejaVuSans-48"/>
      </g>
     </g>
    </g>
    <g id="ytick_13">
     <g id="line2d_65">
      <path clip-path="url(#pa0dd3774ff)" d="M 102.69 107.641891 
L 739.368 107.641891 
" style="fill:none;stroke:#b0b0b0;stroke-linecap:square;stroke-width:0.8;"/>
     </g>
     <g id="line2d_66">
      <g>
       <use style="stroke:#000000;stroke-width:0.8;" x="102.69" xlink:href="#m2cbef9550f" y="107.641891"/>
      </g>
     </g>
     <g id="text_33">
      <!-- 15000 -->
      <g transform="translate(63.8775 111.44111)scale(0.1 -0.1)">
       <use xlink:href="#DejaVuSans-49"/>
       <use x="63.623047" xlink:href="#DejaVuSans-53"/>
       <use x="127.246094" xlink:href="#DejaVuSans-48"/>
       <use x="190.869141" xlink:href="#DejaVuSans-48"/>
       <use x="254.492188" xlink:href="#DejaVuSans-48"/>
      </g>
     </g>
    </g>
    <g id="ytick_14">
     <g id="line2d_67">
      <path clip-path="url(#pa0dd3774ff)" d="M 102.69 86.023294 
L 739.368 86.023294 
" style="fill:none;stroke:#b0b0b0;stroke-linecap:square;stroke-width:0.8;"/>
     </g>
     <g id="line2d_68">
      <g>
       <use style="stroke:#000000;stroke-width:0.8;" x="102.69" xlink:href="#m2cbef9550f" y="86.023294"/>
      </g>
     </g>
     <g id="text_34">
      <!-- 17500 -->
      <g transform="translate(63.8775 89.822513)scale(0.1 -0.1)">
       <use xlink:href="#DejaVuSans-49"/>
       <use x="63.623047" xlink:href="#DejaVuSans-55"/>
       <use x="127.246094" xlink:href="#DejaVuSans-53"/>
       <use x="190.869141" xlink:href="#DejaVuSans-48"/>
       <use x="254.492188" xlink:href="#DejaVuSans-48"/>
      </g>
     </g>
    </g>
    <g id="ytick_15">
     <g id="line2d_69">
      <path clip-path="url(#pa0dd3774ff)" d="M 102.69 64.404697 
L 739.368 64.404697 
" style="fill:none;stroke:#b0b0b0;stroke-linecap:square;stroke-width:0.8;"/>
     </g>
     <g id="line2d_70">
      <g>
       <use style="stroke:#000000;stroke-width:0.8;" x="102.69" xlink:href="#m2cbef9550f" y="64.404697"/>
      </g>
     </g>
     <g id="text_35">
      <!-- 20000 -->
      <g transform="translate(63.8775 68.203915)scale(0.1 -0.1)">
       <use xlink:href="#DejaVuSans-50"/>
       <use x="63.623047" xlink:href="#DejaVuSans-48"/>
       <use x="127.246094" xlink:href="#DejaVuSans-48"/>
       <use x="190.869141" xlink:href="#DejaVuSans-48"/>
       <use x="254.492188" xlink:href="#DejaVuSans-48"/>
      </g>
     </g>
    </g>
    <g id="text_36">
     <!-- $force (N)$ -->
     <defs>
      <path d="M 47.796875 75.984375 
L 46.390625 68.5 
L 37.796875 68.5 
Q 32.90625 68.5 30.6875 66.578125 
Q 28.46875 64.65625 27.390625 59.515625 
L 26.421875 54.6875 
L 41.21875 54.6875 
L 39.890625 47.703125 
L 25.09375 47.703125 
L 15.828125 0 
L 6.78125 0 
L 16.109375 47.703125 
L 7.515625 47.703125 
L 8.796875 54.6875 
L 17.390625 54.6875 
L 18.109375 58.5 
Q 19.96875 68.171875 24.625 72.078125 
Q 29.296875 75.984375 39.3125 75.984375 
z
" id="DejaVuSans-Oblique-102"/>
      <path d="M 25.390625 -1.421875 
Q 15.765625 -1.421875 10.171875 4.515625 
Q 4.59375 10.453125 4.59375 20.703125 
Q 4.59375 26.65625 6.515625 32.828125 
Q 8.453125 39.015625 11.53125 43.21875 
Q 16.359375 49.75 22.3125 52.875 
Q 28.265625 56 35.796875 56 
Q 45.125 56 50.859375 50.1875 
Q 56.59375 44.390625 56.59375 35.015625 
Q 56.59375 28.515625 54.6875 22.0625 
Q 52.78125 15.625 49.703125 11.375 
Q 44.921875 4.828125 38.96875 1.703125 
Q 33.015625 -1.421875 25.390625 -1.421875 
z
M 13.921875 21 
Q 13.921875 13.578125 17.015625 9.890625 
Q 20.125 6.203125 26.421875 6.203125 
Q 35.453125 6.203125 41.375 14.078125 
Q 47.3125 21.96875 47.3125 34.078125 
Q 47.3125 41.15625 44.140625 44.765625 
Q 40.96875 48.390625 34.8125 48.390625 
Q 29.734375 48.390625 25.78125 46.015625 
Q 21.828125 43.65625 18.703125 38.8125 
Q 16.40625 35.203125 15.15625 30.5625 
Q 13.921875 25.921875 13.921875 21 
z
" id="DejaVuSans-Oblique-111"/>
      <path d="M 44.578125 46.390625 
Q 43.21875 47.125 41.453125 47.515625 
Q 39.703125 47.90625 37.703125 47.90625 
Q 30.515625 47.90625 25.140625 42.453125 
Q 19.78125 37.015625 18.015625 27.875 
L 12.5 0 
L 3.515625 0 
L 14.203125 54.6875 
L 23.1875 54.6875 
L 21.484375 46.1875 
Q 25.046875 50.921875 30 53.453125 
Q 34.96875 56 40.578125 56 
Q 42.046875 56 43.453125 55.828125 
Q 44.875 55.671875 46.296875 55.28125 
z
" id="DejaVuSans-Oblique-114"/>
      <path d="M 53.609375 52.59375 
L 51.8125 43.703125 
Q 48.578125 46.046875 44.9375 47.21875 
Q 41.3125 48.390625 37.40625 48.390625 
Q 33.109375 48.390625 29.21875 46.875 
Q 25.34375 45.359375 22.703125 42.578125 
Q 18.5 38.328125 16.203125 32.609375 
Q 13.921875 26.90625 13.921875 20.796875 
Q 13.921875 13.421875 17.609375 9.8125 
Q 21.296875 6.203125 28.8125 6.203125 
Q 32.515625 6.203125 36.6875 7.328125 
Q 40.875 8.453125 45.40625 10.6875 
L 43.703125 1.8125 
Q 39.796875 0.203125 35.671875 -0.609375 
Q 31.546875 -1.421875 27.203125 -1.421875 
Q 16.3125 -1.421875 10.453125 4.015625 
Q 4.59375 9.46875 4.59375 19.578125 
Q 4.59375 28.078125 7.640625 35.234375 
Q 10.6875 42.390625 16.703125 48.09375 
Q 20.796875 52 26.3125 54 
Q 31.84375 56 38.375 56 
Q 42.1875 56 45.9375 55.140625 
Q 49.703125 54.296875 53.609375 52.59375 
z
" id="DejaVuSans-Oblique-99"/>
      <path d="M 16.890625 72.90625 
L 30.171875 72.90625 
L 50.296875 10.40625 
L 62.5 72.90625 
L 72.125 72.90625 
L 57.90625 0 
L 44.578125 0 
L 24.515625 62.890625 
L 12.3125 0 
L 2.6875 0 
z
" id="DejaVuSans-Oblique-78"/>
     </defs>
     <g transform="translate(57.797812 177.1012)rotate(-90)scale(0.1 -0.1)">
      <use transform="translate(0 0.015625)" xlink:href="#DejaVuSans-Oblique-102"/>
      <use transform="translate(35.205078 0.015625)" xlink:href="#DejaVuSans-Oblique-111"/>
      <use transform="translate(96.386719 0.015625)" xlink:href="#DejaVuSans-Oblique-114"/>
      <use transform="translate(137.5 0.015625)" xlink:href="#DejaVuSans-Oblique-99"/>
      <use transform="translate(192.480469 0.015625)" xlink:href="#DejaVuSans-Oblique-101"/>
      <use transform="translate(254.003906 0.015625)" xlink:href="#DejaVuSans-40"/>
      <use transform="translate(293.017578 0.015625)" xlink:href="#DejaVuSans-Oblique-78"/>
      <use transform="translate(367.822266 0.015625)" xlink:href="#DejaVuSans-41"/>
     </g>
    </g>
   </g>
   <g id="line2d_71">
    <path clip-path="url(#pa0dd3774ff)" d="M 131.629909 237.353474 
L 134.526797 229.108421 
L 136.26493 224.867658 
L 137.423685 222.531724 
L 138.58244 220.674717 
L 139.741195 219.34992 
L 140.320572 218.898206 
L 140.89995 218.590187 
L 141.479328 218.426574 
L 142.058705 218.406684 
L 142.638083 218.528453 
L 143.21746 218.788455 
L 144.376215 219.702853 
L 145.534971 221.096783 
L 146.693726 222.898744 
L 148.431858 226.172609 
L 153.646256 236.757667 
L 154.805011 238.566666 
L 155.963767 239.969172 
L 157.122522 240.893355 
L 157.701899 241.158588 
L 158.281277 241.285745 
L 158.860654 241.271351 
L 159.440032 241.113286 
L 160.01941 240.810818 
L 160.598787 240.3646 
L 161.757542 239.050428 
L 162.916297 237.203217 
L 164.075052 234.875871 
L 165.813185 230.645026 
L 168.130695 224.111446 
L 171.606961 214.155021 
L 173.345093 209.90439 
L 174.503848 207.559893 
L 175.662604 205.693111 
L 176.821359 204.357702 
L 177.400736 203.900493 
L 177.980114 203.586926 
L 178.559491 203.417762 
L 179.138869 203.392373 
L 179.718247 203.508749 
L 180.297624 203.763515 
L 181.456379 204.668107 
L 182.615134 206.053435 
L 183.773889 207.848326 
L 185.512022 211.115034 
L 190.72642 221.707012 
L 191.885175 223.523016 
L 193.04393 224.934071 
L 194.202686 225.868019 
L 194.782063 226.138475 
L 195.361441 226.271016 
L 195.940818 226.262113 
L 196.520196 226.109597 
L 197.099573 225.81268 
L 197.678951 225.371962 
L 198.837706 224.068427 
L 199.996461 222.23103 
L 201.155216 219.9123 
L 202.893349 215.691423 
L 205.210859 209.164371 
L 208.687124 199.20172 
L 210.425257 194.941273 
L 211.584012 192.588239 
L 212.742767 190.711702 
L 213.901523 189.365692 
L 214.4809 188.902993 
L 215.060278 188.583879 
L 215.639655 188.409163 
L 216.219033 188.378273 
L 216.79841 188.48925 
L 217.377788 188.738771 
L 218.536543 189.63354 
L 219.695298 191.010238 
L 220.854053 192.798027 
L 222.592186 196.057523 
L 227.806584 206.656238 
L 228.965339 208.479215 
L 230.124094 209.898792 
L 231.282849 210.842486 
L 231.862227 211.118158 
L 232.441604 211.256077 
L 233.020982 211.252664 
L 233.60036 211.105695 
L 234.179737 210.814329 
L 234.759115 210.379114 
L 235.91787 209.086228 
L 237.076625 207.258665 
L 238.23538 204.948577 
L 239.973513 200.737718 
L 242.291023 194.217275 
L 245.767288 184.248518 
L 247.505421 179.978305 
L 248.664176 177.616762 
L 249.822931 175.73049 
L 250.981686 174.373892 
L 251.561064 173.905706 
L 252.140441 173.581045 
L 252.719819 173.400778 
L 253.299197 173.364383 
L 253.878574 173.469956 
L 254.457952 173.714227 
L 255.616707 174.599151 
L 256.775462 175.967194 
L 257.934217 177.747849 
L 259.67235 181.000075 
L 264.886748 191.605348 
L 266.045503 193.435264 
L 267.204258 194.863338 
L 268.363013 195.816757 
L 268.942391 196.097636 
L 269.521768 196.240929 
L 270.101146 196.243001 
L 270.680523 196.101578 
L 271.259901 195.815765 
L 271.839278 195.386056 
L 272.998034 194.10383 
L 274.156789 192.28612 
L 275.315544 189.984701 
L 277.053676 185.78391 
L 279.371187 179.270154 
L 282.847452 169.295415 
L 284.585585 165.015487 
L 285.74434 162.645462 
L 286.903095 160.749474 
L 288.06185 159.382302 
L 289.220605 158.578425 
L 289.799983 158.392605 
L 290.37936 158.350703 
L 290.958738 158.450868 
L 291.538115 158.68988 
L 292.696871 159.564942 
L 293.855626 160.924304 
L 295.014381 162.697792 
L 296.752514 165.942692 
L 301.966912 176.554341 
L 303.125667 178.391165 
L 304.284422 179.827707 
L 305.443177 180.790831 
L 306.022554 181.076912 
L 306.601932 181.225572 
L 307.18131 181.233127 
L 307.760687 181.097248 
L 308.340065 180.816988 
L 308.919442 180.392787 
L 310.078197 179.121233 
L 311.236952 177.313397 
L 312.395708 175.020672 
L 314.13384 170.829998 
L 316.451351 164.32301 
L 319.927616 154.34241 
L 321.665749 150.052817 
L 322.824504 147.674337 
L 323.983259 145.768655 
L 325.142014 144.39092 
L 326.300769 143.576019 
L 326.880147 143.384645 
L 327.459524 143.337233 
L 328.038902 143.431985 
L 328.618279 143.665733 
L 329.777034 144.530912 
L 330.93579 145.881566 
L 332.094545 147.647856 
L 333.832677 150.885374 
L 339.047075 161.503218 
L 340.20583 163.346917 
L 341.364586 164.7919 
L 342.523341 165.764709 
L 343.102718 166.055984 
L 343.682096 166.210006 
L 344.261473 166.22304 
L 344.840851 166.092704 
L 345.420229 165.817998 
L 345.999606 165.399308 
L 347.158361 164.138438 
L 348.317116 162.340493 
L 349.475871 160.056488 
L 351.214004 155.875983 
L 353.531514 149.375841 
L 357.00778 139.389503 
L 358.745912 135.090296 
L 359.904667 132.703388 
L 361.063423 130.788031 
L 362.222178 129.399747 
L 363.380933 128.573826 
L 363.96031 128.376898 
L 364.539688 128.323974 
L 365.119066 128.413307 
L 365.698443 128.641784 
L 366.857198 129.497063 
L 368.015953 130.838983 
L 369.174708 132.598043 
L 370.912841 135.828123 
L 376.127239 146.451981 
L 377.285994 148.302521 
L 378.444749 149.755919 
L 379.603505 150.738391 
L 380.182882 151.034852 
L 380.76226 151.194231 
L 381.341637 151.21274 
L 381.921015 151.087946 
L 382.500392 150.818794 
L 383.07977 150.405619 
L 384.238525 149.155443 
L 385.39728 147.367409 
L 386.556035 145.092151 
L 388.294168 140.921862 
L 390.611678 134.428646 
L 394.087943 124.436691 
L 395.826076 120.127922 
L 396.984831 117.732614 
L 398.143586 115.807603 
L 399.302342 114.408783 
L 400.461097 113.571847 
L 401.040474 113.369365 
L 401.619852 113.310925 
L 402.199229 113.394836 
L 402.778607 113.618036 
L 403.937362 114.463394 
L 405.096117 115.796555 
L 406.254872 117.548353 
L 407.993005 120.770939 
L 413.786781 132.373487 
L 414.945536 134.043339 
L 416.104291 135.278485 
L 417.263046 136.013518 
L 417.842423 136.178248 
L 418.421801 136.202229 
L 419.001179 136.082975 
L 419.580556 135.819378 
L 420.159934 135.411719 
L 421.318689 134.172249 
L 422.477444 132.394144 
L 423.636199 130.127658 
L 424.794954 127.441789 
L 426.533087 122.816401 
L 432.326862 106.520847 
L 433.485618 103.909475 
L 434.644373 101.732095 
L 435.803128 100.054287 
L 436.961883 98.922454 
L 437.54126 98.570082 
L 438.120638 98.362044 
L 438.700016 98.298087 
L 439.279393 98.376571 
L 439.858771 98.594486 
L 441.017526 99.429905 
L 442.176281 100.754282 
L 443.335036 102.498787 
L 445.073169 105.713822 
L 450.866944 117.325193 
L 452.025699 119.00265 
L 453.184455 120.24683 
L 454.34321 120.991981 
L 454.922587 121.162056 
L 455.501965 121.191505 
L 456.081342 121.077789 
L 456.66072 120.819748 
L 457.240097 120.417608 
L 458.398853 119.188855 
L 459.557608 117.420698 
L 460.716363 115.163009 
L 461.875118 112.48445 
L 463.613251 107.86664 
L 469.407026 91.562363 
L 470.565781 88.943401 
L 471.724536 86.756999 
L 472.883292 85.069082 
L 474.042047 83.926441 
L 474.621424 83.568531 
L 475.200802 83.354938 
L 475.780179 83.28546 
L 476.359557 83.358513 
L 476.938934 83.571137 
L 477.518312 83.919033 
L 478.677067 84.996986 
L 479.835822 86.533002 
L 480.994577 88.450125 
L 482.73271 91.836907 
L 487.367731 101.297585 
L 488.526486 103.168451 
L 489.685241 104.646927 
L 490.843996 105.658267 
L 491.423373 105.970241 
L 492.002751 106.145656 
L 492.582129 106.18057 
L 493.161506 106.072391 
L 493.740884 105.819905 
L 494.320261 105.423286 
L 495.479016 104.205261 
L 496.637771 102.447071 
L 497.796527 100.198205 
L 498.955282 97.526986 
L 500.693414 92.91681 
L 502.431547 87.885645 
L 503.010925 84.41326 
L 504.16968 76.439892 
L 504.749057 73.792366 
L 505.328435 72.398174 
L 505.907812 72.38736 
L 506.48719 73.760933 
L 507.066568 76.390771 
L 508.225323 84.343733 
L 509.384078 93.348137 
L 509.963455 97.20048 
L 510.542833 100.122724 
L 511.12221 101.842294 
L 511.701588 102.198794 
L 512.280966 101.158969 
L 512.860343 98.819813 
L 513.439721 95.399513 
L 516.336609 74.951966 
L 516.915986 72.91681 
L 517.495364 72.216655 
L 518.074741 72.91681 
L 518.654119 74.951966 
L 519.233496 78.132293 
L 520.392251 86.662705 
L 521.551007 95.399513 
L 522.130384 98.819813 
L 522.709762 101.158969 
L 523.289139 102.198794 
L 523.868517 101.842294 
L 524.447894 100.122724 
L 525.027272 97.20048 
L 526.186027 88.925031 
L 527.344782 80.031572 
L 527.92416 76.390771 
L 528.503537 73.760933 
L 529.082915 72.38736 
L 529.662292 72.398174 
L 530.24167 73.792366 
L 530.821048 76.439892 
L 531.979803 84.41326 
L 533.138558 93.412735 
L 533.717935 97.253306 
L 534.297313 100.158853 
L 534.87669 101.858354 
L 535.456068 102.193288 
L 536.035446 101.132411 
L 536.614823 98.774679 
L 537.194201 95.340013 
L 540.091088 74.911349 
L 540.670466 72.895595 
L 541.249844 72.216822 
L 541.829221 72.938343 
L 542.408599 74.992858 
L 542.987976 78.188727 
L 544.146731 86.733476 
L 545.305486 95.45883 
L 545.884864 98.864689 
L 546.464242 101.185218 
L 547.043619 102.203967 
L 547.622997 101.825909 
L 548.202374 100.086309 
L 548.781752 97.147431 
L 549.940507 88.85465 
L 551.099262 79.969506 
L 551.67864 76.341892 
L 552.258017 73.7298 
L 552.837395 72.376876 
L 553.416772 72.409318 
L 553.99615 73.824098 
L 554.575527 76.489252 
L 555.734283 84.482849 
L 556.893038 93.477195 
L 557.472415 97.30591 
L 558.051793 100.194693 
L 558.63117 101.874089 
L 559.210548 102.187448 
L 559.789925 101.105542 
L 560.369303 98.729288 
L 560.948681 95.280333 
L 563.845568 74.871005 
L 564.424946 72.874699 
L 565.004324 72.217323 
L 565.583701 72.960194 
L 566.163079 75.034021 
L 566.742456 78.245363 
L 567.901211 86.804258 
L 569.059966 95.517965 
L 569.639344 98.909306 
L 570.218722 101.211157 
L 570.798099 102.208807 
L 571.377477 101.809199 
L 571.956854 100.049608 
L 572.536232 97.094162 
L 573.694987 88.784234 
L 574.853742 79.907603 
L 575.43312 76.293256 
L 576.012497 73.698967 
L 576.591875 72.366723 
L 577.171252 72.420792 
L 577.75063 73.856129 
L 578.330007 76.538851 
L 579.488762 84.5525 
L 580.647518 93.541515 
L 581.226895 97.358289 
L 581.806273 100.230246 
L 582.38565 101.889498 
L 582.965028 102.181276 
L 583.544405 101.078365 
L 584.123783 98.683641 
L 584.703161 95.220474 
L 587.600048 74.830936 
L 588.179426 72.854122 
L 588.758803 72.218158 
L 589.338181 72.982363 
L 589.917559 75.075456 
L 590.496936 78.302199 
L 591.655691 86.875049 
L 592.814446 95.576915 
L 593.393824 98.953664 
L 593.973201 101.236784 
L 594.552579 102.213313 
L 595.131957 101.792164 
L 595.711334 100.012621 
L 596.290712 97.040673 
L 597.449467 88.713782 
L 598.608222 79.845861 
L 599.1876 76.244862 
L 599.766977 73.668435 
L 600.346355 72.356901 
L 600.925732 72.432595 
L 601.50511 73.888457 
L 602.084487 76.588688 
L 603.243242 84.62221 
L 604.401998 93.605696 
L 604.981375 97.410443 
L 605.560753 100.265508 
L 606.14013 101.90458 
L 606.719508 102.174772 
L 607.298885 101.05088 
L 607.878263 98.637739 
L 608.45764 95.160437 
L 611.354528 74.791143 
L 611.933906 72.833865 
L 612.513283 72.219327 
L 613.092661 73.004849 
L 613.672038 75.117161 
L 614.251416 78.359233 
L 615.410171 86.945848 
L 616.568926 95.63568 
L 617.148304 98.99776 
L 617.727681 101.262099 
L 618.307059 102.217486 
L 618.886437 101.774806 
L 619.465814 99.97535 
L 620.045192 96.986966 
L 621.203947 88.643298 
L 621.783324 90.022703 
L 623.521457 101.120662 
L 624.680212 106.573918 
L 625.25959 108.470713 
L 625.838967 109.755245 
L 626.418345 110.4147 
L 626.997722 110.462291 
L 627.5771 109.936708 
L 628.156477 108.900503 
L 628.735855 107.437494 
L 629.89461 103.650948 
L 631.632743 97.646844 
L 632.21212 96.05635 
L 632.791498 94.858541 
L 633.370876 94.143963 
L 633.950253 93.98304 
L 634.529631 94.423142 
L 635.109008 95.486616 
L 635.688386 97.169852 
L 636.267763 99.443435 
L 637.426518 105.523331 
L 639.164651 117.067258 
L 640.902784 128.662796 
L 642.061539 134.826584 
L 642.640916 137.152299 
L 643.220294 138.891647 
L 643.799672 140.012879 
L 644.379049 140.50998 
L 644.958427 140.402921 
L 645.537804 139.736833 
L 646.117182 138.580119 
L 647.275937 135.166877 
L 649.593447 127.223558 
L 650.172825 125.726034 
L 650.752202 124.646622 
L 651.33158 124.070937 
L 651.910957 124.06362 
L 652.490335 124.665646 
L 653.069713 125.892619 
L 653.64909 127.734122 
L 654.228468 130.154151 
L 655.387223 136.467827 
L 657.125355 148.149959 
L 658.863488 159.591317 
L 660.022243 165.513617 
L 660.601621 167.69044 
L 661.180998 169.270164 
L 661.760376 170.227682 
L 662.339753 170.563799 
L 662.919131 170.305188 
L 663.498509 169.503289 
L 664.077886 168.232162 
L 665.236641 164.672251 
L 667.554152 156.821895 
L 668.133529 155.424411 
L 668.712907 154.46927 
L 669.292284 154.036914 
L 669.871662 154.186015 
L 670.451039 154.951036 
L 671.030417 156.340794 
L 671.609794 158.338094 
L 672.76855 163.961826 
L 673.927305 171.217332 
L 676.824192 190.493631 
L 677.982948 196.163103 
L 678.562325 198.187606 
L 679.141703 199.605981 
L 679.72108 200.399842 
L 680.300458 200.576805 
L 680.879835 200.170172 
L 681.459213 199.237545 
L 682.03859 197.858428 
L 683.197346 194.1676 
L 684.935478 188.105365 
L 685.514856 186.443804 
L 686.094233 185.153143 
L 686.673611 184.327795 
L 687.252989 184.042794 
L 687.832366 184.350678 
L 688.411744 185.279299 
L 688.991121 186.830661 
L 689.570499 188.980841 
L 690.729254 194.859329 
L 691.888009 202.267873 
L 694.205519 217.974875 
L 695.364274 224.328532 
L 695.943652 226.773988 
L 696.523029 228.643177 
L 697.102407 229.898942 
L 697.681785 230.529667 
L 698.261162 230.549762 
L 698.84054 229.999059 
L 699.419917 228.941161 
L 699.999295 227.460784 
L 701.15805 223.655169 
L 702.896183 217.665779 
L 703.47556 216.091165 
L 704.054938 214.913808 
L 704.634315 214.223401 
L 705.213693 214.089361 
L 705.79307 214.557939 
L 706.372448 215.650297 
L 706.951826 217.361622 
L 707.531203 219.66133 
L 708.689958 225.783358 
L 710.428091 237.353474 
L 710.428091 237.353474 
" style="fill:none;stroke:#1f77b4;stroke-linecap:square;stroke-width:1.5;"/>
   </g>
   <g id="line2d_72">
    <path clip-path="url(#pa0dd3774ff)" d="M 131.629909 237.353474 
L 502.654385 87.229093 
L 621.382217 87.229093 
L 710.428091 237.353474 
" style="fill:none;stroke:#000000;stroke-dasharray:1.48,0.64;stroke-dashoffset:0;stroke-width:0.4;"/>
   </g>
   <g id="line2d_73">
    <path clip-path="url(#pa0dd3774ff)" d="M 502.654385 237.353474 
L 502.654385 87.229093 
" style="fill:none;stroke:#ff0000;stroke-dasharray:2.22,0.96;stroke-dashoffset:0;stroke-width:0.6;"/>
   </g>
   <g id="line2d_74">
    <path clip-path="url(#pa0dd3774ff)" d="M 621.382217 237.353474 
L 621.382217 87.229093 
" style="fill:none;stroke:#ff0000;stroke-dasharray:2.22,0.96;stroke-dashoffset:0;stroke-width:0.6;"/>
   </g>
   <g id="patch_8">
    <path d="M 102.69 249.7392 
L 102.69 63.7632 
" style="fill:none;stroke:#000000;stroke-linecap:square;stroke-linejoin:miter;stroke-width:0.8;"/>
   </g>
   <g id="patch_9">
    <path d="M 739.368 249.7392 
L 739.368 63.7632 
" style="fill:none;stroke:#000000;stroke-linecap:square;stroke-linejoin:miter;stroke-width:0.8;"/>
   </g>
   <g id="patch_10">
    <path d="M 102.69 249.7392 
L 739.368 249.7392 
" style="fill:none;stroke:#000000;stroke-linecap:square;stroke-linejoin:miter;stroke-width:0.8;"/>
   </g>
   <g id="patch_11">
    <path d="M 102.69 63.7632 
L 739.368 63.7632 
" style="fill:none;stroke:#000000;stroke-linecap:square;stroke-linejoin:miter;stroke-width:0.8;"/>
   </g>
   <g id="text_37">
    <!-- Supair Sora 2 : modlisation force et vitesse -->
    <defs>
     <path d="M 53.515625 70.515625 
L 53.515625 60.890625 
Q 47.90625 63.578125 42.921875 64.890625 
Q 37.9375 66.21875 33.296875 66.21875 
Q 25.25 66.21875 20.875 63.09375 
Q 16.5 59.96875 16.5 54.203125 
Q 16.5 49.359375 19.40625 46.890625 
Q 22.3125 44.4375 30.421875 42.921875 
L 36.375 41.703125 
Q 47.40625 39.59375 52.65625 34.296875 
Q 57.90625 29 57.90625 20.125 
Q 57.90625 9.515625 50.796875 4.046875 
Q 43.703125 -1.421875 29.984375 -1.421875 
Q 24.8125 -1.421875 18.96875 -0.25 
Q 13.140625 0.921875 6.890625 3.21875 
L 6.890625 13.375 
Q 12.890625 10.015625 18.65625 8.296875 
Q 24.421875 6.59375 29.984375 6.59375 
Q 38.421875 6.59375 43.015625 9.90625 
Q 47.609375 13.234375 47.609375 19.390625 
Q 47.609375 24.75 44.3125 27.78125 
Q 41.015625 30.8125 33.5 32.328125 
L 27.484375 33.5 
Q 16.453125 35.6875 11.515625 40.375 
Q 6.59375 45.0625 6.59375 53.421875 
Q 6.59375 63.09375 13.40625 68.65625 
Q 20.21875 74.21875 32.171875 74.21875 
Q 37.3125 74.21875 42.625 73.28125 
Q 47.953125 72.359375 53.515625 70.515625 
z
" id="DejaVuSans-83"/>
     <path d="M 8.5 21.578125 
L 8.5 54.6875 
L 17.484375 54.6875 
L 17.484375 21.921875 
Q 17.484375 14.15625 20.5 10.265625 
Q 23.53125 6.390625 29.59375 6.390625 
Q 36.859375 6.390625 41.078125 11.03125 
Q 45.3125 15.671875 45.3125 23.6875 
L 45.3125 54.6875 
L 54.296875 54.6875 
L 54.296875 0 
L 45.3125 0 
L 45.3125 8.40625 
Q 42.046875 3.421875 37.71875 1 
Q 33.40625 -1.421875 27.6875 -1.421875 
Q 18.265625 -1.421875 13.375 4.4375 
Q 8.5 10.296875 8.5 21.578125 
z
M 31.109375 56 
z
" id="DejaVuSans-117"/>
     <path d="M 18.109375 8.203125 
L 18.109375 -20.796875 
L 9.078125 -20.796875 
L 9.078125 54.6875 
L 18.109375 54.6875 
L 18.109375 46.390625 
Q 20.953125 51.265625 25.265625 53.625 
Q 29.59375 56 35.59375 56 
Q 45.5625 56 51.78125 48.09375 
Q 58.015625 40.1875 58.015625 27.296875 
Q 58.015625 14.40625 51.78125 6.484375 
Q 45.5625 -1.421875 35.59375 -1.421875 
Q 29.59375 -1.421875 25.265625 0.953125 
Q 20.953125 3.328125 18.109375 8.203125 
z
M 48.6875 27.296875 
Q 48.6875 37.203125 44.609375 42.84375 
Q 40.53125 48.484375 33.40625 48.484375 
Q 26.265625 48.484375 22.1875 42.84375 
Q 18.109375 37.203125 18.109375 27.296875 
Q 18.109375 17.390625 22.1875 11.75 
Q 26.265625 6.109375 33.40625 6.109375 
Q 40.53125 6.109375 44.609375 11.75 
Q 48.6875 17.390625 48.6875 27.296875 
z
" id="DejaVuSans-112"/>
     <path d="M 34.28125 27.484375 
Q 23.390625 27.484375 19.1875 25 
Q 14.984375 22.515625 14.984375 16.5 
Q 14.984375 11.71875 18.140625 8.90625 
Q 21.296875 6.109375 26.703125 6.109375 
Q 34.1875 6.109375 38.703125 11.40625 
Q 43.21875 16.703125 43.21875 25.484375 
L 43.21875 27.484375 
z
M 52.203125 31.203125 
L 52.203125 0 
L 43.21875 0 
L 43.21875 8.296875 
Q 40.140625 3.328125 35.546875 0.953125 
Q 30.953125 -1.421875 24.3125 -1.421875 
Q 15.921875 -1.421875 10.953125 3.296875 
Q 6 8.015625 6 15.921875 
Q 6 25.140625 12.171875 29.828125 
Q 18.359375 34.515625 30.609375 34.515625 
L 43.21875 34.515625 
L 43.21875 35.40625 
Q 43.21875 41.609375 39.140625 45 
Q 35.0625 48.390625 27.6875 48.390625 
Q 23 48.390625 18.546875 47.265625 
Q 14.109375 46.140625 10.015625 43.890625 
L 10.015625 52.203125 
Q 14.9375 54.109375 19.578125 55.046875 
Q 24.21875 56 28.609375 56 
Q 40.484375 56 46.34375 49.84375 
Q 52.203125 43.703125 52.203125 31.203125 
z
" id="DejaVuSans-97"/>
     <path d="M 41.109375 46.296875 
Q 39.59375 47.171875 37.8125 47.578125 
Q 36.03125 48 33.890625 48 
Q 26.265625 48 22.1875 43.046875 
Q 18.109375 38.09375 18.109375 28.8125 
L 18.109375 0 
L 9.078125 0 
L 9.078125 54.6875 
L 18.109375 54.6875 
L 18.109375 46.1875 
Q 20.953125 51.171875 25.484375 53.578125 
Q 30.03125 56 36.53125 56 
Q 37.453125 56 38.578125 55.875 
Q 39.703125 55.765625 41.0625 55.515625 
z
" id="DejaVuSans-114"/>
     <path d="M 11.71875 12.40625 
L 22.015625 12.40625 
L 22.015625 0 
L 11.71875 0 
z
M 11.71875 51.703125 
L 22.015625 51.703125 
L 22.015625 39.3125 
L 11.71875 39.3125 
z
" id="DejaVuSans-58"/>
     <path d="M 52 44.1875 
Q 55.375 50.25 60.0625 53.125 
Q 64.75 56 71.09375 56 
Q 79.640625 56 84.28125 50.015625 
Q 88.921875 44.046875 88.921875 33.015625 
L 88.921875 0 
L 79.890625 0 
L 79.890625 32.71875 
Q 79.890625 40.578125 77.09375 44.375 
Q 74.3125 48.1875 68.609375 48.1875 
Q 61.625 48.1875 57.5625 43.546875 
Q 53.515625 38.921875 53.515625 30.90625 
L 53.515625 0 
L 44.484375 0 
L 44.484375 32.71875 
Q 44.484375 40.625 41.703125 44.40625 
Q 38.921875 48.1875 33.109375 48.1875 
Q 26.21875 48.1875 22.15625 43.53125 
Q 18.109375 38.875 18.109375 30.90625 
L 18.109375 0 
L 9.078125 0 
L 9.078125 54.6875 
L 18.109375 54.6875 
L 18.109375 46.1875 
Q 21.1875 51.21875 25.484375 53.609375 
Q 29.78125 56 35.6875 56 
Q 41.65625 56 45.828125 52.96875 
Q 50 49.953125 52 44.1875 
z
" id="DejaVuSans-109"/>
     <path d="M 56.203125 29.59375 
L 56.203125 25.203125 
L 14.890625 25.203125 
Q 15.484375 15.921875 20.484375 11.0625 
Q 25.484375 6.203125 34.421875 6.203125 
Q 39.59375 6.203125 44.453125 7.46875 
Q 49.3125 8.734375 54.109375 11.28125 
L 54.109375 2.78125 
Q 49.265625 0.734375 44.1875 -0.34375 
Q 39.109375 -1.421875 33.890625 -1.421875 
Q 20.796875 -1.421875 13.15625 6.1875 
Q 5.515625 13.8125 5.515625 26.8125 
Q 5.515625 40.234375 12.765625 48.109375 
Q 20.015625 56 32.328125 56 
Q 43.359375 56 49.78125 48.890625 
Q 56.203125 41.796875 56.203125 29.59375 
z
M 47.21875 32.234375 
Q 47.125 39.59375 43.09375 43.984375 
Q 39.0625 48.390625 32.421875 48.390625 
Q 24.90625 48.390625 20.390625 44.140625 
Q 15.875 39.890625 15.1875 32.171875 
z
M 38.578125 79.984375 
L 48.296875 79.984375 
L 32.375 61.625 
L 24.90625 61.625 
z
" id="DejaVuSans-233"/>
     <path d="M 9.421875 75.984375 
L 18.40625 75.984375 
L 18.40625 0 
L 9.421875 0 
z
" id="DejaVuSans-108"/>
    </defs>
    <g transform="translate(287.853375 57.7632)scale(0.12 -0.12)">
     <use xlink:href="#DejaVuSans-83"/>
     <use x="63.476562" xlink:href="#DejaVuSans-117"/>
     <use x="126.855469" xlink:href="#DejaVuSans-112"/>
     <use x="190.332031" xlink:href="#DejaVuSans-97"/>
     <use x="251.611328" xlink:href="#DejaVuSans-105"/>
     <use x="279.394531" xlink:href="#DejaVuSans-114"/>
     <use x="320.507812" xlink:href="#DejaVuSans-32"/>
     <use x="352.294922" xlink:href="#DejaVuSans-83"/>
     <use x="415.771484" xlink:href="#DejaVuSans-111"/>
     <use x="476.953125" xlink:href="#DejaVuSans-114"/>
     <use x="518.066406" xlink:href="#DejaVuSans-97"/>
     <use x="579.345703" xlink:href="#DejaVuSans-32"/>
     <use x="611.132812" xlink:href="#DejaVuSans-50"/>
     <use x="674.755859" xlink:href="#DejaVuSans-32"/>
     <use x="706.542969" xlink:href="#DejaVuSans-58"/>
     <use x="740.234375" xlink:href="#DejaVuSans-32"/>
     <use x="772.021484" xlink:href="#DejaVuSans-109"/>
     <use x="869.433594" xlink:href="#DejaVuSans-111"/>
     <use x="930.615234" xlink:href="#DejaVuSans-100"/>
     <use x="994.091797" xlink:href="#DejaVuSans-233"/>
     <use x="1055.615234" xlink:href="#DejaVuSans-108"/>
     <use x="1083.398438" xlink:href="#DejaVuSans-105"/>
     <use x="1111.181641" xlink:href="#DejaVuSans-115"/>
     <use x="1163.28125" xlink:href="#DejaVuSans-97"/>
     <use x="1224.560547" xlink:href="#DejaVuSans-116"/>
     <use x="1263.769531" xlink:href="#DejaVuSans-105"/>
     <use x="1291.552734" xlink:href="#DejaVuSans-111"/>
     <use x="1352.734375" xlink:href="#DejaVuSans-110"/>
     <use x="1416.113281" xlink:href="#DejaVuSans-32"/>
     <use x="1447.900391" xlink:href="#DejaVuSans-102"/>
     <use x="1483.105469" xlink:href="#DejaVuSans-111"/>
     <use x="1544.287109" xlink:href="#DejaVuSans-114"/>
     <use x="1585.369141" xlink:href="#DejaVuSans-99"/>
     <use x="1640.349609" xlink:href="#DejaVuSans-101"/>
     <use x="1701.873047" xlink:href="#DejaVuSans-32"/>
     <use x="1733.660156" xlink:href="#DejaVuSans-101"/>
     <use x="1795.183594" xlink:href="#DejaVuSans-116"/>
     <use x="1834.392578" xlink:href="#DejaVuSans-32"/>
     <use x="1866.179688" xlink:href="#DejaVuSans-118"/>
     <use x="1925.359375" xlink:href="#DejaVuSans-105"/>
     <use x="1953.142578" xlink:href="#DejaVuSans-116"/>
     <use x="1992.351562" xlink:href="#DejaVuSans-101"/>
     <use x="2053.875" xlink:href="#DejaVuSans-115"/>
     <use x="2105.974609" xlink:href="#DejaVuSans-115"/>
     <use x="2158.074219" xlink:href="#DejaVuSans-101"/>
    </g>
   </g>
  </g>
 </g>
 <defs>
  <clipPath id="p5530d661fa">
   <rect height="185.976" width="636.678" x="102.69" y="286.9344"/>
  </clipPath>
  <clipPath id="pa0dd3774ff">
   <rect height="185.976" width="636.678" x="102.69" y="63.7632"/>
  </clipPath>
 </defs>
</svg>
